<?xml version="1.0" encoding="utf-8"?>
<!-- Generator: Adobe Illustrator 18.1.0, SVG Export Plug-In . SVG Version: 6.00 Build 0)  -->
<svg version="1.1" id="Layer_1" xmlns="http://www.w3.org/2000/svg" xmlns:xlink="http://www.w3.org/1999/xlink" x="0px" y="0px"
	 viewBox="0 0 180 50" enable-background="new 0 0 180 50" xml:space="preserve">
<rect y="0" fill="#ED1F24" width="180" height="50"/>
<g>
	<path fill="#FFFFFF" d="M60.9,22v3.4H67v1.9h-6.2v3.5H68v1.9h-9.2V20.1h9V22H60.9z"/>
	<path fill="#FFFFFF" d="M80.3,32.7l-6.7-9v9h-2.1V20.1h2.1l6.8,9.1v-9.1h2.1v12.6H80.3z"/>
	<path fill="#FFFFFF" d="M91.2,22v10.7h-2.1V22h-4v-1.9h10.1V22H91.2z"/>
	<path fill="#FFFFFF" d="M100.1,22v3.4h6.2v1.9h-6.2v3.5h7.1v1.9h-9.2V20.1h9V22H100.1z"/>
	<path fill="#FFFFFF" d="M116.3,28.9c-0.2,0-0.4,0-0.6,0h-3v3.8h-2.1V20.1h5.1c3.2,0,5.1,1.6,5.1,4.3c0,2-0.9,3.4-2.6,4.1l2.8,4.2
		h-2.4L116.3,28.9z M115.8,27c1.9,0,3.1-0.8,3.1-2.5c0-1.7-1.1-2.4-3.1-2.4h-3v5H115.8z"/>
</g>
</svg>
