<?xml version="1.0" encoding="utf-8"?>
<!-- Generator: Adobe Illustrator 18.1.0, SVG Export Plug-In . SVG Version: 6.00 Build 0)  -->
<svg version="1.1" id="Layer_3" xmlns="http://www.w3.org/2000/svg" xmlns:xlink="http://www.w3.org/1999/xlink" x="0px" y="0px"
	 viewBox="0 402 800 490" enable-background="new 0 402 800 490" xml:space="preserve">
<g>
	<g>
		<g>
			<g>
				<defs>
					<rect id="SVGID_1_" x="48.7" y="658.7" width="694.3" height="233.3"/>
				</defs>
				<clipPath id="SVGID_2_">
					<use xlink:href="#SVGID_1_"  overflow="visible"/>
				</clipPath>
				<g clip-path="url(#SVGID_2_)">
					<ellipse fill="#39C6F4" cx="122.5" cy="690.1" rx="53.2" ry="47.8"/>
					<ellipse fill="#39C6F4" cx="668.3" cy="827.1" rx="53.2" ry="47.8"/>
					<ellipse fill="#39C6F4" cx="175.4" cy="784.6" rx="78.6" ry="70.6"/>
					<ellipse fill="#39C6F4" cx="335.2" cy="741.7" rx="110.8" ry="99.4"/>
					<ellipse fill="#39C6F4" cx="494.3" cy="794.5" rx="75.8" ry="68"/>
					<ellipse fill="#39C6F4" cx="625.9" cy="714.2" rx="96.7" ry="86.8"/>
					<g>
						<g>
							<g>
								<path fill="#009ED4" d="M99.9,717.3L99.9,717.3L99.9,717.3L99.9,717.3z"/>
							</g>
						</g>
					</g>
				</g>
			</g>
		</g>
	</g>
</g>
<line fill="none" stroke="#009ED4" stroke-width="6" stroke-miterlimit="10" x1="0" y1="656.9" x2="800" y2="656.9"/>
<g>
	<g>
		<g>
			<g>
				<defs>
					<rect id="SVGID_3_" x="48.7" y="395.2" width="694.3" height="259.8"/>
				</defs>
				<clipPath id="SVGID_4_">
					<use xlink:href="#SVGID_3_"  overflow="visible"/>
				</clipPath>
				<g clip-path="url(#SVGID_4_)">
					<circle fill="#FFFFFF" stroke="#6DCEF5" stroke-width="3" stroke-miterlimit="10" cx="122.5" cy="620.1" r="53.2"/>
					<circle fill="#FFFFFF" stroke="#6DCEF5" stroke-width="3" stroke-miterlimit="10" cx="668.3" cy="467.6" r="53.2"/>
					<circle fill="#FFDE17" stroke="#6DCEF5" stroke-width="3" stroke-miterlimit="10" cx="175.4" cy="514.9" r="78.6"/>
					<circle fill="#ED1F24" stroke="#6DCEF5" stroke-width="3" stroke-miterlimit="10" cx="335.2" cy="562.6" r="110.7"/>
					<circle fill="#39B54A" stroke="#6DCEF5" stroke-width="3" stroke-miterlimit="10" cx="494.3" cy="503.9" r="75.7"/>
					<circle fill="#009ED4" stroke="#6DCEF5" stroke-width="3" stroke-miterlimit="10" cx="625.9" cy="593.2" r="96.7"/>
					<path fill="#FFFFFF" d="M169.2,535.7c5.1,2.9,2.4,10.9,8.5,14.1c5.9,3.2,12.1,0.5,17.5,6.2c-0.2-3.6-0.3-6.4-2.9-8.9
						c-2-1.9-5.2-2.7-6.8-5.1c-2.9-4.5-2.9-14.4-11.9-10.4c0.1,2.2-1.6,4-3.8,4.1"/>
					<path fill="#FFFFFF" d="M165.9,534.8c2.4,0.4,11.3-3.8,7.7-7.2c-1.9-1.8-3.8,2.2-4.7,3.1C167.3,532,163.9,531.2,165.9,534.8"/>
					<g>
						<path fill="#FFFFFF" d="M193.1,475c-17.1-4.9-38.9,4.4-49,18.8c-0.4,0.5-0.7,1.1-1,1.6l27.9,28.2c2-0.8,3.6-1,3.6-1
							c8.1-2,11.5,4.8,18.4,7.2c8,2.8,13.3-0.9,18.3-7.6C223.6,505.9,211.6,480.2,193.1,475z M160,496.5c-2.9,0-5.2-2.1-5.2-4.8
							s2.3-4.8,5.2-4.8s5.2,2.1,5.2,4.8S162.9,496.5,160,496.5z M180.5,489.8c-2.9,0-5.2-2.1-5.2-4.8s2.3-4.8,5.2-4.8
							s5.2,2.1,5.2,4.8C185.8,487.7,183.4,489.8,180.5,489.8z M194.6,492.4c0-3.4,2.7-6.2,6.1-6.2c3.4,0,6.1,2.8,6.1,6.2
							c0,3.5-2.7,6.2-6.1,6.2C197.2,498.6,194.6,495.8,194.6,492.4z M206.2,517.4c-3.4,0-6.2-2.8-6.2-6.1c0-3.4,2.8-6.1,6.2-6.1
							s6.2,2.7,6.2,6.1C212.6,514.7,209.8,517.4,206.2,517.4z"/>
						<path fill="#FFFFFF" d="M162.5,531.4L136.6,506c-4.3,11.2-4.7,25.1,0.9,35.4c3.7,6.6,13.2,18.4,23.4,11c4.6-3.4,0-11.3,0-11.3
							C160.2,536.7,161,533.7,162.5,531.4z M141.8,529.8c-2.2,0-4-1.9-4-4.4s1.8-4.4,4-4.4s4,2,4,4.4S144,529.8,141.8,529.8z"/>
						<path fill="#FFFFFF" d="M168.9,524.9l-28-28.2l-12.4-12.5c-7.1-2.9-6.7,4.6-6.7,4.6l15.5,15.2l25.9,25.4l1.7,1.7
							c5.9-0.8,5.4-4.6,5.4-4.6L168.9,524.9z"/>
					</g>
					<g>
						<path fill="#FFFFFF" d="M490.9,513.5h-18.7l-4.8,16.2h-9.9l18-56h13.9l16.8,56h-10.7L490.9,513.5z M488.8,506.1l-6.9-25.1
							l-7.5,25.1H488.8z"/>
						<path fill="#FFFFFF" d="M526.6,507.9v-3.1c0-3.8-2.3-5.7-6.9-5.7c-4.4,0-7.1,1.4-8.1,4.2h-7.2c0.3-6.4,5.4-9.6,15.2-9.6
							c4.9,0,8.4,1.1,10.5,3.1c2.1,2.1,3.2,5.6,3.2,10.4v23.4h-6.8V527c-3.1,2.9-6.6,4.2-10.8,4.2c-3.9,0-7.1-1-9.5-3
							s-3.6-4.7-3.6-8.1c0-3.8,1.4-6.8,4.4-9c2.9-2.2,6.8-3.4,11.7-3.4L526.6,507.9L526.6,507.9z M526.6,513.4h-8.8
							c-2.4,0-4.4,0.6-5.9,1.8c-1.5,1.2-2.2,2.7-2.2,4.6c0,1.8,0.6,3.2,1.8,4.4s2.7,1.8,4.6,1.8c3,0,5.5-1,7.5-2.9
							c2.1-1.9,3.1-4.3,3.1-7.2L526.6,513.4L526.6,513.4z"/>
					</g>
					<g>
						<rect x="448.6" y="528.4" fill="#FFFFFF" width="91.4" height="3.2"/>
						<rect x="448.6" y="495.2" fill="#FFFFFF" width="91.4" height="3.2"/>
						<rect x="448.6" y="533" fill="#FFFFFF" width="91.4" height="3.2"/>
						<rect x="448.6" y="471.6" fill="#FFFFFF" width="91.4" height="3.2"/>
					</g>
					<g>
						<g>
							<g>
								<path fill="#009ED4" d="M151.8,643.1l-7.9,7.7l-51.8-53.6l7.7-7.5l0.1-0.1L151.8,643.1L151.8,643.1z M99.9,589.8L99.9,589.8
									L99.9,589.8L99.9,589.8z M151.2,643.2l-51.4-53.1l-7.3,7.1l51.4,53.1L151.2,643.2L151.2,643.2z"/>
								<path fill="#009ED4" d="M91.5,597.2l8.1-7.8l0.5-0.4l52.1,53.8l-0.3,0.3l0.3-0.3l0.2,0.2l-8.6,8.2L91.5,597.2L91.5,597.2z
									 M94.2,597.5l49.2,50.9l6.1-5.9l-49.2-50.9L94.2,597.5L94.2,597.5z"/>
							</g>
							<g>
								<polygon fill="#009ED4" points="146.4,637.9 142.5,641.7 142.3,641.4 146.2,637.7 								"/>
							</g>
							<g>
								<polygon fill="#009ED4" points="140.6,631.9 136.7,635.7 136.5,635.4 140.4,631.7 								"/>
							</g>
							<g>
								<polygon fill="#009ED4" points="134.4,625.5 130.6,629.3 130.3,629.1 134.2,625.3 								"/>
							</g>
							<g>
								<polygon fill="#009ED4" points="129.1,619.9 125.2,623.7 124.9,623.5 128.9,619.7 								"/>
							</g>
							<g>
								<polygon fill="#009ED4" points="123.2,614 119.4,617.7 119.1,617.5 123.1,613.7 								"/>
							</g>
							<g>
								<polygon fill="#009ED4" points="117.1,607.5 113.2,611.4 112.9,611.1 116.9,607.4 								"/>
							</g>
							<g>
								<polygon fill="#009ED4" points="111.2,601.5 107.3,605.3 107.1,605.1 111,601.3 								"/>
							</g>
							<g>
								<polygon fill="#009ED4" points="105.4,595.5 101.5,599.3 101.3,599.1 105.2,595.3 								"/>
							</g>
						</g>
						<g>
							<g>
								<g>
									<path fill="#009ED4" d="M110.7,643.4l36.6-36.2l0,0c0.1-0.1,0.3-0.2,0.4-0.4c3.5-3.4,4.1-8.4,1.4-11.1
										c-2.7-2.7-7.6-2.1-11.1,1.4c-0.2,0.2-0.5,0.5-0.7,0.8L101,633.8L110.7,643.4z"/>
								</g>
							</g>
							<g>
								<g>
									<polygon fill="#009ED4" points="142.4,604.1 143.9,605.6 108.1,641.1 106.6,639.5 									"/>
								</g>
							</g>
							<g>
								<g>
									<polygon fill="#009ED4" points="139.2,600.9 140.7,602.4 104.9,637.8 103.4,636.3 									"/>
								</g>
							</g>
							<g>
								<g>
									<polygon fill="#009ED4" points="93,651.3 96.3,643.2 99.4,634.8 104.5,639.9 109.6,645.1 101.2,648.1 									"/>
								</g>
							</g>
						</g>
					</g>
					<path id="path1458" fill="#FFFFFF" d="M621,654.8c-25.8-1.8-48.5-22.2-54.9-47c-5.9-25.7,5.8-54.6,28.7-67.9
						c14.7-8.8,33.2-9.9,49.5-5.3c20.1,6.2,35.4,24.2,40.8,44.2c4.8,18.5,1.4,39.5-11.5,54.1c-11.6,14.6-30.2,22.9-48.8,22.2
						C623.6,654.9,622.3,654.9,621,654.8z M636.4,651.9c4.6-0.4,3.8-1.8-0.4-2.2c-7.5-1.4-15.7-1.5-22.9,1.1
						c6.4,3.1,14.9,2.3,22.1,1.4L636.4,651.9L636.4,651.9z M613.6,647.8c3.3-3.4-0.1-11.5-3.1-14.7c-6.4-3.3-11.4-8.8-17.4-12.8
						c-4.4-1.6-8.8,1.4-13.1,2.5c0,4.2-0.3,9.1,3.4,12.1c6.2,6.1,13.6,11.4,22,13.9C608.2,648.9,611.1,648.7,613.6,647.8z
						 M649,647.9c10.7-4.6,20.8-12.1,26.8-22.2c2.2-2.9,3.8-8-1.9-6.3c-7.1,4.5-13.6,10.1-20.9,14.4c-4.4,3.5-7.6,8.4-10.8,13
						C643.3,649.3,646.9,648.7,649,647.9z M656.2,629.3c5.4-4.4,13.2-7.3,16-14c1.2-5.3,1.4-10.8,1.9-16.2
						c-5.4-4.8-11.9-8-18.4-11.1c-6.4,0.5-11.5,6.2-16.6,9.9c-2.7,1.5-2,4.8-2.8,7.4c-1,6-2.1,11.9-2.8,18c5,3.8,10.6,7.1,16.7,8.6
						C652.7,631.9,654.5,630.4,656.2,629.3z M617.9,630.2c4.9-1.9,11.3-3.2,13.6-8.4c1.7-7.2,2.6-14.7,3.6-22.1
						c-4.9-4.6-10-9.5-16.4-11.9c-5.5-0.1-10.1,3.8-15,5.9c-6.6,1.8-8.9,7.8-9.1,13.9c-1.9,6.1,0.3,12.4,5.8,15.8
						C605.1,627,611.4,632.7,617.9,630.2z M577,621.7c-3.9-7.3-6.7-15.4-7.8-23.6c-3.9,0.8-0.4,10.4,0.8,14.4
						c1.9,5.3,4.7,10.2,7.6,14.9C578.1,625.4,578.4,623.4,577,621.7z M575.3,589c1.8-2.5,4.5-4.4,5.5-7.2c1.8-8.6,4.8-16.8,9.1-24.5
						c-0.2-4.9-5.7-7.9-8.4-2.5c-7.8,10.1-13.9,22.4-14.2,35.4c-1,4.4,2.8,7.7,5.1,2.4C573.3,591.4,574.3,590.2,575.3,589z
						 M675.9,595.1c3.3-4.4,7.9-9.6,6.7-15.4c-2.1-11.2-7.8-21.8-16.6-29.1c-2.6-1.1-7.4-5.2-9.2-1.3c-2.7,5.2-9.4,10.1-7,16.6
						c2.1,6.4,3.6,13.1,6.6,19.1c5.6,4.4,12,7.8,18.4,10.6L675.9,595.1L675.9,595.1z M602.1,592.2c5.1-2.6,10.1-5.4,15.1-8.3
						c1.7-5.9,3.8-11.7,5.8-17.5c0.2-6.2-5.3-10.8-9.1-15.2c-3.7-5.9-9.9-1.4-14.4,0.8c-10,5.3-12.2,17.1-15.6,26.9
						c0.5,3.7,3.8,6.8,6.2,9.5C593.5,591.8,597.3,596.4,602.1,592.2z M638.8,560.5c2.6-0.4,5.6-0.1,8.1-0.9c3.7-4,6.9-8.6,8.4-13.9
						c-1.9-5.2-8-7.7-12.9-9.4c-6.2-1.9-13-2.8-19.5-2.1c-4.7,2.4-13.1,9.4-8.4,14.8c3.5,4.2,7.2,8.1,11,12
						C630,561.1,634.4,560.8,638.8,560.5z"/>
					<path fill="#FFFFFF" d="M360.6,541.6v23.2c2.6,0,3.9,0.9,3.9,2.7c0,0.9-0.2,1.6-0.5,1.9c-0.4,0.3-1.2,0.4-2.5,0.4l-4.9,24.6
						c7.4-3,13.1-5.7,17.2-8c4.9-2.7,8.8-5.6,11.9-8.8s4.9-6.9,5.4-11.1v-28.7c0-4.2-1.9-7.8-5.6-10.8s-8.7-5.4-14.7-7.4
						c-5.4-1.8-11.6-3.1-18.6-4c-3.3-0.4-6.3-0.8-9-1s-5.3-0.4-7.9-0.4c-4.4,0-9.7,0.4-15.9,1.2c-6.6,0.7-12.6,1.9-18.2,3.6
						c-6.3,1.9-11.5,4.5-15.6,7.6s-6.1,6.8-6.1,11.1v28.7c0.4,3.1,1.5,5.9,3.4,8.5s4.7,5.1,8.1,7.5c3,2.1,6.3,4.1,10.1,5.9
						c3.1,1.5,7.6,3.6,13.6,6l-5-24.6c-1.4,0-2.2-0.1-2.6-0.3c-0.3-0.2-0.6-0.9-0.8-1.9c0-1.1,0.3-1.8,0.9-2.2s1.7-0.6,3.2-0.6
						v-23.2L360.6,541.6L360.6,541.6z M335.4,509.4L335.4,509.4c-2.6,0-5.3,0.1-8.1,0.4s-6.2,0.7-10.3,1.2c-7.8,1-14.7,2.5-20.6,4.4
						c-6.6,2.1-12.1,4.7-16.2,7.8c-4.4,3.6-6.6,7.7-6.6,12.4v32.1c0.5,4.2,2.2,7.9,5,11.3s6.3,6.4,10.6,9c3.1,1.9,7.5,4.2,13.1,6.6
						c4.6,1.9,9.2,3.9,13.8,5.8l1.5,7.1c-4.6-1.9-9.2-3.9-13.9-5.9c-6.5-2.8-11.8-5.4-15.8-7.6c-5.6-3.1-10.2-6.4-13.9-9.9
						c-4.1-3.9-6.2-7.9-6.6-11.9V538c0-7.3,4.1-13.6,12.4-18.7s17.8-8.9,28.4-11.4c10.8-2.4,19.9-3.7,27.3-3.7
						c5.4,0,11.9,0.7,19.5,2.1c7.6,1.4,14.9,3.4,21.9,6.1c8.1,3.1,14.5,6.5,19.3,10.5c5.2,4.4,7.8,9.5,7.8,15.2v34.2
						c0,4.3-1.9,8.3-5.9,12c-3.6,3.4-9.2,7.1-16.8,11.1c-5.4,2.8-11.6,5.6-18.4,8.4c-3.1,1.2-6.2,2.5-9.2,3.7l1.5-7.1
						c4.4-1.8,8.9-3.8,13.2-5.6c5.6-2.5,10.1-4.8,13.4-6.8c4.4-2.8,7.9-5.8,10.5-8.8c1.6-1.9,2.8-3.7,3.6-5.6s1.2-3.8,1.2-5.9v-32.1
						c0-4.8-2.2-8.9-6.8-12.3c-4.2-3.2-9.8-5.9-16.8-8.2c-6.2-2-12.8-3.5-19.9-4.4C346.5,509.9,340.4,509.4,335.4,509.4L335.4,509.4
						z M356.1,564.8L356.1,564.8h-40.9v-20h40.9V564.8L356.1,564.8z M349.9,631.6L349.9,631.6h-28.4l-4-19.8
						c-7.7-3.1-12.8-5.2-15.2-6.2c-7.4-3.2-13.8-6.3-19-9.2c-6.9-3.9-12.2-7.8-15.9-11.4c-3.9-3.9-5.8-8.1-5.8-12.5v-35.7
						c0-8.1,4.4-14.9,13.1-20.4c8.2-5.2,18.6-9.2,30.8-12.3c10.8-2.6,20.8-4,30.1-4c6.4,0,13.4,0.7,20.9,2.1
						c8.9,1.6,16.9,3.8,24.2,6.6c8.4,3.2,15.3,7.2,20.6,11.8c5.3,4.6,7.9,10.1,7.9,16.2v35.7c0,4.4-1.9,8.6-5.6,12.5
						c-3.6,3.6-8.8,7.4-15.9,11.4c-5.3,3-11.8,6.1-19.2,9.4c-0.8,0.4-5.7,2.4-14.7,6.1L349.9,631.6L349.9,631.6z M317.5,570.1
						L317.5,570.1l1.4,8.4h-3.7l-2.1-8.4H317.5L317.5,570.1z M353.8,570.1L353.8,570.1h4.1l-1.5,8.4h-4.2L353.8,570.1L353.8,570.1z
						 M319.5,582.2L319.5,582.2l1.2,7.9h-3.2l-1.5-7.9H319.5L319.5,582.2z M351.6,582.2L351.6,582.2h4.3l-1.7,7.9H350L351.6,582.2
						L351.6,582.2z M321.3,593.4L321.3,593.4l1.7,7.8h-3l-1.8-7.8H321.3L321.3,593.4z M349.4,593.4L349.4,593.4h4.1l-1.8,7.8h-3.9
						L349.4,593.4L349.4,593.4z M323.9,604.5L323.9,604.5h-3.6l2.2,9.9h3.4L323.9,604.5L323.9,604.5z M347.1,604.5L347.1,604.5
						l-2.1,9.9h4.1l1.8-9.9H347.1L347.1,604.5z M326.8,617.7L326.8,617.7h-3.7l1.7,8.8h3.9L326.8,617.7L326.8,617.7z M344.7,617.7
						L344.7,617.7l-1.8,8.8h3.9l1.7-8.8H344.7L344.7,617.7z M321.9,570.1L321.9,570.1h7.9l0.6,8.4h-7.3L321.9,570.1L321.9,570.1z
						 M350.2,570.1L350.2,570.1l-1.7,8.4h-7.6l0.6-8.4H350.2L350.2,570.1z M323.6,582.2L323.6,582.2h7l0.6,7.9h-6.5L323.6,582.2
						L323.6,582.2z M348,582.2L348,582.2l-1.1,7.9h-6.8l0.6-7.9H348L348,582.2z M325.4,593.4L325.4,593.4h6.2l0.6,7.8h-5.3
						L325.4,593.4L325.4,593.4z M345.9,593.4L345.9,593.4l-1.2,7.8h-5.4l0.6-7.8H345.9L345.9,593.4z M332.4,604.5L332.4,604.5h-5.2
						l2.1,9.9h3.8L332.4,604.5L332.4,604.5z M338.9,604.5L338.9,604.5l-0.4,9.9h3.9l1.8-9.9H338.9L338.9,604.5z M333.4,617.7
						L333.4,617.7h-3.6l1.4,8.8h3L333.4,617.7L333.4,617.7z M338.2,617.7L338.2,617.7l-0.6,8.8h2.7l1.4-8.8H338.2L338.2,617.7z
						 M333.1,570.1L333.1,570.1h5.4l-0.6,8.4h-4.1L333.1,570.1L333.1,570.1z M337.4,582.2L337.4,582.2l-0.6,7.9h-1.9l-0.6-7.9H337.4
						L337.4,582.2z M336.5,593.4L336.5,593.4l-0.9,7.8l-0.6-7.8H336.5L336.5,593.4z"/>
					<g>
						<path fill="#009ED4" d="M690.9,443.9h-45.6c-3.1,0-5.6,2.6-5.6,5.7v19.6v6.3v7.6h56.8v-7.6v-6.3v-19.6
							C696.5,446.4,694.1,443.9,690.9,443.9z M691.9,479.2h-47.4v-30.1h47.4V479.2z"/>
						<path fill="#009ED4" d="M678.1,485.6c0,0.8-0.3,1.4-0.7,1.4h-18.2c-0.4,0-0.7-0.6-0.7-1.4H633v3c0.4,1.6,1.8,2.7,3.5,2.7h63.7
							c1.7,0,3.1-1.1,3.5-2.7v-3H678.1z"/>
					</g>
				</g>
			</g>
		</g>
	</g>
</g>
</svg>
