<?xml version="1.0" encoding="utf-8"?>
<!-- Generator: Adobe Illustrator 18.1.0, SVG Export Plug-In . SVG Version: 6.00 Build 0)  -->
<svg version="1.1" id="Layer_2" xmlns="http://www.w3.org/2000/svg" xmlns:xlink="http://www.w3.org/1999/xlink" x="0px" y="0px"
	 viewBox="0 402 800 490" enable-background="new 0 402 800 490" xml:space="preserve">
<g>
	<g>
		<g>
			<defs>
				<rect id="SVGID_1_" x="-14.9" y="657.7" width="814.8" height="276.9"/>
			</defs>
			<clipPath id="SVGID_2_">
				<use xlink:href="#SVGID_1_"  overflow="visible"/>
			</clipPath>
			<polygon clip-path="url(#SVGID_2_)" fill="#39C6F4" points="1498.6,657.9 -2.9,657.9 -2.9,681 12.8,681 12.4,690 19.3,690.6 
				18.1,727.3 23.1,727.3 22.9,734.5 22.9,734.5 22.9,734.5 23.1,734.5 23.3,734.5 23.6,734.5 23.9,734.5 24.8,734.5 28.8,734.5 
				28.6,740.9 28.6,740.9 28.6,740.9 28.8,741 29.1,741 34.7,741 34.5,747 34.5,747.1 34.6,747.1 34.8,747.2 40.6,747.3 40.5,752.3 
				40.6,752.5 40.7,752.6 59.2,753.2 59.1,759.3 73,759.2 73.4,757.5 74,757.5 74,757.3 74,757.1 74,756.8 74.1,756.4 74.1,756 
				74.1,755.5 74.1,755 74.1,754.5 74.1,754.1 74.1,753.9 74.1,753.7 74.1,753.7 74.1,753.2 93,752.5 93.4,752.5 93.8,752.3 
				93.9,752.1 94.1,752 94.1,751.9 94.1,747.3 99.3,747.1 99.8,747.1 100.1,747.1 100.4,747 100.5,746.9 100.6,746.8 100.6,741 
				105.3,741 105.6,740.9 105.8,740.9 105.9,740.9 106,740.8 105.9,734.5 109.1,734.5 107.4,851.8 107.3,866.8 107.3,868.6 
				201.2,868 201.1,852.9 200.1,734 213.4,733.7 213.8,778.1 213.9,780.9 214,782 214.4,785.7 214.9,789.5 215.6,793.3 216.6,797.1 
				217.6,800.8 218.3,802.7 218.9,804.6 219.6,806.5 220.3,808.3 221.1,810.1 221.9,812 222.8,813.8 223.8,815.6 224.7,817.5 
				225.7,819.3 226.8,821.1 226.5,823.9 227.9,823.9 227.9,824.8 228.1,825.8 228.3,826.8 228.5,827.7 228.7,828.8 229,829.8 
				229.3,830.7 229.6,831.8 229.9,832.7 230.3,833.7 230.7,834.7 231.1,835.6 276.2,835.5 276.6,834.6 277,833.6 277.4,832.6 
				277.8,831.6 278.1,830.6 278.3,829.6 278.6,828.6 278.8,827.6 279.1,826.6 279.2,825.6 279.4,824.6 279.4,823.8 280.9,823.8 
				280.9,823.6 280.8,823.6 280.6,823.1 280.1,822.3 279.9,822 281.6,819.1 283.6,815.5 285.3,811.8 286.9,808.1 288.4,804.5 
				289.6,800.7 290.7,797 291.6,793.2 292.3,789.4 292.9,785.6 293.2,782.4 293.3,781.8 293.3,781.4 293.4,778 293.8,730.2 
				294.8,734.4 296.1,738 297.6,740.3 299.1,742 303.4,742.1 313.1,741.6 314.7,740 316.3,737.6 317.6,734 318.8,729.3 319.8,724 
				320.3,695.5 322.9,695.8 324.9,695.9 325.3,854.2 325.4,874.5 326,875.8 329.4,877 335.6,878.1 343.9,878.9 354.1,879.5 
				365.1,879.7 367.4,870 367.4,858.4 372.5,858.4 383.3,858.1 392.7,857.5 400.1,856.7 404.9,855.8 406.9,854.8 407.3,716.4 
				417.1,713.5 417.1,714.8 423.9,714.9 423.9,796.2 488.1,797.2 488.8,796.6 488.8,793.1 488.9,793.1 494.4,788.8 494.4,745.6 
				494.6,745.6 494.7,725.5 502.1,725.6 511.4,724.8 511.4,733.8 525.2,735 525.8,735 525.8,738.1 527,738.3 550.4,738 549.6,782.1 
				549.5,785.8 549.3,794.8 550.9,794.8 550.9,798.2 550.7,804.9 569.6,804.8 569.6,805.6 572.2,805.6 573.2,804.8 590.4,804.8 
				590.4,805.5 592.9,805.5 593.4,804.8 613.3,804.8 613.4,798.1 613.4,794.7 613.6,794.7 613.6,785.8 613.6,782 614.1,720.6 
				614.6,723 614.6,744.6 614.8,745 615.7,745 615.7,745.7 615.9,746 616.8,746.1 616.8,746.5 617,746.8 617.8,746.8 617.8,747.3 
				618,747.6 618.9,747.6 618.9,748.1 619.1,748.3 619.6,748.3 626.2,748.3 626.7,748.3 626.7,747.6 626.7,747.6 627.1,747.5 
				627.3,786.8 629.8,790.6 630.1,832.8 632.3,835.5 634.5,835.6 634.6,837.3 634.6,837.7 636,837.8 636,839.5 636,839.8 
				638.3,840.1 638.3,842.9 638.3,843.3 640.3,843.4 662.1,843.5 664.1,843.3 664.1,842.9 664.1,840.1 666.4,839.8 666.4,839.5 
				666.4,837.8 667.9,837.7 667.9,837.3 667.9,835.6 670.2,835.5 672.4,832.8 672.6,790.6 675.1,786.8 675.4,741.1 680.4,727.3 
				680.6,702 690.6,702 690.6,681 690.9,681 690.9,728.1 693,728.1 692.9,747.8 714.8,748.5 714.8,731.5 719.5,731.6 720.4,731.6 
				720.4,728.1 724.6,728 724.6,724.4 724.9,724.4 725.9,724.4 727,724.4 727.8,724.4 727.7,728.5 730.4,728.5 730.4,737.9 
				732.9,738 732.9,738 732.9,747.1 739.6,747.3 745.2,747.1 745.2,741.6 747.9,741.7 751.7,741.6 752.5,741.6 753.4,741.6 
				754.1,741.6 754.9,741.6 755.6,741.6 756.3,741.6 756.9,741.6 757.5,741.6 758.1,741.6 758.4,741.6 758.8,741.6 759.1,741.6 
				762.7,741.6 762.7,731.3 765.5,731.3 765.5,723 769.5,723 775.2,723 775.3,722.9 775.3,725 778.4,725.1 799.8,724.8 799.6,689.1 
				808.4,689.1 808.5,732.6 806.6,732.6 806.7,785.9 810.6,786.2 810.7,804.2 815.1,804.8 815.4,804.9 815.8,805 816.3,805.1 
				816.8,805.3 817.5,805.4 818.3,805.5 819.1,805.6 819.9,805.6 820.9,805.7 821.9,805.8 823,805.8 824.1,805.9 828.8,806.5 
				833.4,805.9 834.6,805.8 835.6,805.8 836.6,805.7 837.6,805.6 838.5,805.5 839.4,805.5 840.1,805.4 840.8,805.3 841.4,805.1 
				841.9,805 842.3,804.8 842.6,804.8 847.1,804.2 847.1,786.2 851,785.9 851.1,732.6 849.1,732.6 849.1,689 851.1,689 851,681 
				855.3,681 855.4,707.6 860.8,707.6 861,765.3 860.8,765.3 860.7,765.3 860.7,770.4 860.3,770.5 859.5,770.5 858.8,770.5 
				858.3,770.5 857.9,770.6 857.8,770.6 858,802.1 858.1,802.3 858.4,802.3 858.9,802.4 859.6,802.5 860.3,802.5 861.1,802.5 
				861.1,802.5 861.3,802.5 861.5,802.5 884.2,827.3 908.3,827.4 931.6,802.7 931.8,802.7 931.9,802.7 932.1,802.8 932.9,802.7 
				933.7,802.7 934.3,802.6 934.8,802.5 935,802.5 935.1,802.4 935.1,802.4 935.8,770.8 935.6,770.7 935.2,770.6 934.6,770.6 
				933.9,770.6 933.1,770.5 932.6,770.5 932.7,765.5 932.6,765.5 932.7,763.3 948.1,763.4 947.6,834.8 948.4,840.3 977.6,837.1 
				977.7,808.9 977.9,727.8 980.8,727.8 980.8,728.1 985.3,728.1 985.3,728.4 989.3,728.4 989.3,728.6 991.2,728.6 994.8,734.6 
				994.8,766.3 996.1,779.7 996.1,810.3 998.9,810.5 999.3,810.5 999.3,812 1002.4,812.4 1002.5,812.4 1002.5,813.9 1005.6,814.3 
				1005.7,814.3 1005.7,815.6 1008.8,816 1008.9,816 1008.9,817.6 1012,818 1024,818 1027,817.6 1027.1,816 1027.3,816 
				1030.3,815.6 1030.3,814.3 1030.6,814.3 1033.6,813.9 1033.7,812.4 1034,812.4 1037,812 1037,810.5 1037.1,810.5 1039.8,810.3 
				1040.1,779.7 1041.7,766.4 1041.9,743.5 1052,733.1 1054.1,858.5 1054.1,860.4 1054.9,861 1054.9,862.8 1055,865.1 1055.1,867.6 
				1056.8,869 1060.9,870.1 1112.7,870.6 1114.7,870.3 1121.9,863.1 1121.8,860.7 1121.8,858.4 1121.8,856.8 1122.6,856.1 
				1122.1,790.8 1194.8,791 1202.4,790.5 1202.1,764.1 1205.6,764.1 1216.4,764 1225.7,764 1226.7,764 1226.5,802.6 1226.4,808.8 
				1226.4,810.1 1228.5,810.3 1276.9,810.5 1278.9,810.3 1278.9,809 1279,802.8 1279.4,763.3 1287.5,763.3 1289.3,763.3 
				1289.4,757.7 1290.3,757.7 1290.9,712 1293.6,711.9 1294.3,711.9 1297.2,711.9 1299.6,712 1301.5,712 1302.6,712 1302.6,711.8 
				1310,711.9 1310,711 1330.9,709.8 1333.2,811.6 1333.9,812 1335.4,812.3 1337.6,812.6 1340.3,812.7 1343.2,812.8 1407.8,812.8 
				1410.8,812.7 1413.6,812.6 1416,812.4 1417.9,812 1419.2,811.7 1419.7,811.3 1418.9,681 1428.9,681 1428.9,706.6 1436.5,706.6 
				1452.1,706.6 1451.8,770.5 1451.9,770.9 1452.5,770.9 1452.5,772.4 1452.7,772.8 1458,773.2 1490.7,773.2 1498.6,772.5 
				1498.6,660.5 			"/>
		</g>
	</g>
</g>
<g>
	<g>
		<g>
			<g>
				<defs>
					<rect id="SVGID_3_" x="-14.9" y="383.3" width="814.8" height="276.9"/>
				</defs>
				<clipPath id="SVGID_4_">
					<use xlink:href="#SVGID_3_"  overflow="visible"/>
				</clipPath>
				<polygon clip-path="url(#SVGID_4_)" fill="#009ED4" points="1498.6,657.1 1498.6,533.5 1490.7,532.7 1458,532.7 1452.7,533.1 
					1452.5,533.6 1452.5,535.3 1451.9,535.3 1451.8,535.7 1452.1,606.2 1436.5,606.2 1428.9,606.3 1428.9,634.5 1418.9,634.5 
					1419.7,490.6 1419.2,490.2 1417.9,489.8 1416,489.5 1413.6,489.2 1410.8,489.1 1407.8,489 1343.2,489 1340.3,489.1 
					1337.6,489.2 1335.4,489.5 1333.9,489.8 1333.2,490.3 1330.9,602.6 1310,601.4 1310,600.4 1302.6,600.5 1302.6,600.3 
					1301.5,600.3 1299.6,600.3 1297.2,600.4 1294.3,600.4 1293.6,600.4 1290.9,600.3 1290.3,549.8 1289.4,549.8 1289.3,543.6 
					1287.5,543.6 1279.4,543.6 1279,500.1 1278.9,493.2 1278.9,491.8 1276.9,491.6 1228.5,491.8 1226.4,492 1226.4,493.5 
					1226.5,500.3 1226.7,542.9 1225.7,542.9 1216.4,542.8 1205.6,542.8 1202.1,542.8 1202.4,513.6 1194.8,513.1 1122.1,513.3 
					1122.6,441.2 1121.8,440.4 1121.8,438.6 1121.8,436.1 1121.9,433.5 1114.7,425.5 1112.7,425.2 1060.9,425.7 1056.8,427 
					1055.1,428.5 1055,431.3 1054.9,433.8 1054.9,435.8 1054.1,436.5 1054.1,438.5 1052,577 1041.9,565.5 1041.7,540.2 
					1040.1,525.5 1039.8,491.8 1037.1,491.5 1037,491.5 1037,489.8 1034,489.5 1033.7,489.5 1033.6,487.8 1030.6,487.4 
					1030.3,487.4 1030.3,485.9 1027.3,485.5 1027.1,485.5 1027,483.7 1024,483.3 1012,483.3 1008.9,483.7 1008.9,485.5 
					1008.8,485.5 1005.7,485.9 1005.7,487.4 1005.6,487.4 1002.5,487.8 1002.5,489.5 1002.4,489.5 999.3,489.8 999.3,491.5 
					998.9,491.5 996.1,491.8 996.1,525.5 994.8,540.3 994.8,575.3 991.2,581.9 989.3,582 989.3,582.1 985.3,582.2 985.3,582.5 
					980.8,582.5 980.8,582.8 977.9,582.8 977.7,493.3 977.6,462.2 948.4,458.6 947.6,464.7 948.1,543.5 932.7,543.6 932.6,541.3 
					932.7,541.3 932.6,535.6 933.1,535.6 933.9,535.6 934.6,535.6 935.2,535.5 935.6,535.5 935.8,535.3 935.1,500.5 935.1,500.5 
					935,500.4 934.8,500.3 934.3,500.2 933.7,500.1 932.9,500.1 932.1,500.1 931.9,500.1 931.8,500.1 931.6,500.1 908.3,472.9 
					884.2,473 861.5,500.3 861.3,500.3 861.1,500.3 861.1,500.3 860.3,500.3 859.6,500.4 858.9,500.5 858.4,500.6 858.1,500.6 
					858,500.8 857.8,535.5 857.9,535.6 858.3,535.6 858.8,535.7 859.5,535.8 860.3,535.8 860.7,535.8 860.7,541.4 860.8,541.5 
					861,541.5 860.8,605.1 855.4,605.1 855.3,634.5 851,634.5 851.1,625.6 849.1,625.6 849.1,577.5 851.1,577.5 851,518.7 
					847.1,518.3 847.1,498.5 842.6,497.9 842.3,497.8 841.9,497.6 841.4,497.5 840.8,497.3 840.1,497.2 839.4,497.1 838.5,497 
					837.6,496.9 836.6,496.8 835.6,496.8 834.6,496.7 833.4,496.6 828.8,496 824.1,496.6 823,496.7 821.9,496.8 820.9,496.8 
					819.9,496.9 819.1,497 818.3,497.1 817.5,497.2 816.8,497.3 816.3,497.5 815.8,497.6 815.4,497.7 815.1,497.8 810.7,498.5 
					810.6,518.3 806.7,518.7 806.6,577.5 808.5,577.5 808.4,625.6 799.6,625.6 799.8,586.2 778.4,585.8 775.3,586 775.3,588.3 
					775.2,588.2 769.5,588.1 765.5,588.2 765.5,579 762.7,579 762.7,567.6 759.1,567.6 758.8,567.6 758.4,567.6 758.1,567.6 
					757.5,567.5 756.9,567.5 756.3,567.5 755.6,567.5 754.9,567.5 754.1,567.5 753.4,567.5 752.5,567.5 751.7,567.5 747.9,567.5 
					745.2,567.5 745.2,561.5 739.6,561.3 732.9,561.5 732.9,571.6 732.9,571.6 730.4,571.7 730.4,582 727.7,582.1 727.8,586.6 
					727,586.6 725.9,586.6 724.9,586.6 724.6,586.6 724.6,582.6 720.4,582.5 720.4,578.6 719.5,578.6 714.8,578.8 714.8,560 
					692.9,560.7 693,582.5 690.9,582.5 690.9,634.5 690.6,634.5 690.6,611.3 680.6,611.3 680.4,583.4 675.4,568.1 675.1,517.7 
					672.6,513.5 672.4,466.9 670.2,464 667.9,463.8 667.9,462 667.9,461.5 666.4,461.4 666.4,459.5 666.4,459.1 664.1,458.9 
					664.1,455.8 664.1,455.4 662.1,455.1 640.3,455.2 638.3,455.4 638.3,455.8 638.3,458.9 636,459.1 636,459.6 636,461.4 
					634.6,461.5 634.6,462 634.5,463.8 632.3,464 630.1,467 629.8,513.5 627.3,517.7 627.1,561.1 626.7,561 626.7,561 626.7,560.2 
					626.2,560.1 619.6,560.1 619.1,560.1 618.9,560.4 618.9,561 618,561 617.8,561.3 617.8,561.8 617,561.8 616.8,562.2 
					616.8,562.6 615.9,562.7 615.7,563.1 615.7,563.9 614.8,563.9 614.6,564.3 614.6,588.1 614.1,590.8 613.3,497.8 550.7,497.7 
					550.4,571.5 525.8,571.5 525.8,575 511.4,576.2 511.4,586.1 494.7,585.3 494.6,563.2 494.4,563.1 494.4,515.5 488.8,506.9 
					488.1,506.2 423.9,507.3 423.9,597.1 417.1,597.2 417.1,598.6 407.3,595.4 406.9,442.7 404.9,441.6 400.1,440.5 392.7,439.6 
					383.3,439 372.5,438.6 367.4,438.6 367.4,425.8 365.1,415.1 354.1,415.4 343.9,416 335.6,417 329.4,418.1 326,419.5 
					325.4,420.9 325.3,443.3 324.9,618.1 322.9,618.2 320.3,618.5 319.8,587 318.8,581.1 317.6,576 316.3,572 314.7,569.4 
					313.1,567.6 303.4,567.1 299.1,567.2 297.6,569 296.1,571.6 294.8,575.5 293.8,580.1 293.4,527.4 293.3,523.6 293.3,523.2 
					293.2,522.6 292.9,519 292.3,514.8 291.6,510.6 290.7,506.5 289.6,502.3 288.4,498.2 286.9,494.1 285.3,490.1 283.6,486 
					281.6,482 279.9,478.8 280.1,478.6 280.6,477.6 280.8,477.1 280.9,477 280.9,476.9 279.4,476.9 279.4,476 279.2,474.8 
					279.1,473.7 278.8,472.6 278.6,471.5 278.3,470.5 278.1,469.3 277.8,468.2 277.4,467.1 277,466.1 276.6,465 276.2,463.9 
					231.1,463.8 230.7,464.8 230.3,466 229.9,467 229.6,468.1 229.3,469.2 229,470.3 228.7,471.4 228.5,472.5 228.3,473.6 
					228.1,474.7 227.9,475.8 227.9,476.8 226.5,476.8 226.8,479.9 225.7,481.8 224.7,483.9 223.8,485.9 222.8,487.9 221.9,489.9 
					221.1,492 220.3,494 219.6,496 218.9,498.1 218.3,500.1 217.6,502.2 216.6,506.3 215.6,510.5 214.9,514.7 214.4,518.9 
					214,523.1 213.9,524.2 213.8,527.3 213.4,576.3 200.1,576 201.1,444.8 201.2,428 107.3,427.4 107.3,429.5 107.4,446 
					109.1,575.4 105.9,575.4 106,568.5 105.9,568.4 105.8,568.4 105.6,568.4 105.3,568.3 100.6,568.3 100.6,561.8 100.5,561.8 
					100.4,561.7 100.1,561.6 99.8,561.5 99.3,561.5 94.1,561.3 94.1,556.3 94.1,556.1 93.9,556 93.8,555.8 93.4,555.6 93,555.5 
					74.1,554.8 74.1,554.2 74.1,554.2 74.1,554 74.1,553.8 74.1,553.3 74.1,552.8 74.1,552.3 74.1,551.8 74.1,551.3 74,550.8 
					74,550.5 74,550.2 74,550.1 73.4,550.1 73,548.1 59.1,548.1 59.2,554.8 40.7,555.5 40.6,555.6 40.5,555.8 40.6,561.3 
					34.8,561.4 34.6,561.5 34.5,561.6 34.5,561.6 34.7,568.3 29.1,568.3 28.8,568.3 28.6,568.4 28.6,568.4 28.6,568.4 28.8,575.4 
					24.8,575.4 23.9,575.4 23.6,575.4 23.3,575.5 23.1,575.5 22.9,575.5 22.9,575.5 22.9,575.5 23.1,583.3 18.1,583.4 19.3,623.9 
					12.4,624.5 12.8,634.5 -2.9,634.5 -2.9,660 1498.6,660 				"/>
			</g>
		</g>
	</g>
	<g>
		<g>
			<g>
				<path fill="#494949" d="M112.3,659c1.3,0,4.4-0.4,4.9-1.3c0,0-0.1-0.9-0.4-2.1c-1.1-0.7-2.7-1.1-4.6-1.1s-3.6,0.4-4.6,1.1
					c-0.1,1.2-0.2,2.1-0.2,2.1C108.1,658.6,111,659,112.3,659z"/>
				<path fill="#1C1C1C" d="M108.5,649.1L108.5,649.1c0-0.5,0-1,0.2-1.4c0.7-1,0.6-3.3,0.6-3.3v0.1c0-0.1,0-0.1,0-0.2h5.9
					c0,0.1,0,0.1,0,0.2v-0.1c0,0-0.2,2.2,0.5,3.2c0.4,0.7,0.3,1.8,0.1,2.4c0.2,1.4,0.7,3.8,0.9,5.4c-1.1-0.7-2.8-1.1-4.6-1.1
					s-3.6,0.4-4.6,1.1C107.9,653.3,108.4,649.8,108.5,649.1z"/>
				<path fill="#1C1C1C" d="M112.3,658.6c0,0-3.5,0.1-4.9-0.9v3.2c0.9,0.5,4.9,0.6,4.9,0.6s4.1,0,4.9-0.6v-3.2
					C115.8,658.7,112.3,658.6,112.3,658.6z"/>
			</g>
			<g>
				<path fill="#515151" d="M122,559.6c-7.9,0-18.6,0.9-18.6,0.9c-1.4,8.4-1.3,15.1,1.4,43.4c0.4,3.8-2.4,29.8,1,44.8h12.5
					c0,0,2.6-17.6,0.5-45c-0.2-2,0.8-8.6,1.1-10.5c1-9.8,1-17.1,1.2-19.4c0.1-0.4,1.3-0.2,1.4-0.2l0.1-1.8v-12.2
					C122.3,559.6,122.2,559.6,122,559.6z"/>
			</g>
			<g>
				<path fill="#39B54A" d="M71.7,519.1l8.5,10.1c0.8-0.5,1.6-1.1,2.5-1.8c5.1-4.2,15.4-10.9,15.4-10.9l13-4.9l-9.8-8.1
					C101.1,503.7,98.5,503.8,71.7,519.1z"/>
			</g>
			<g>
				<path fill="#494949" d="M132.6,659c-1.3,0-4.4-0.4-4.9-1.3c0,0,0.1-0.9,0.4-2.1c1.1-0.7,2.8-1.1,4.6-1.1s3.6,0.4,4.6,1.1
					c0.1,1.2,0.2,2.1,0.2,2.1C136.8,658.6,133.9,659,132.6,659z"/>
				<path fill="#1C1C1C" d="M136.4,649.1L136.4,649.1c0-0.5,0-1-0.2-1.4c-0.7-1-0.6-3.3-0.6-3.3v0.1c0-0.1,0-0.1,0-0.2h-5.9
					c0,0.1,0,0.1,0,0.2v-0.1c0,0,0.2,2.2-0.5,3.2c-0.4,0.7-0.3,1.8-0.1,2.4c-0.2,1.4-0.7,3.8-0.9,5.4c1.1-0.7,2.8-1.1,4.6-1.1
					s3.6,0.4,4.6,1.1C137,653.3,136.6,649.8,136.4,649.1z"/>
				<path fill="#1C1C1C" d="M132.6,658.6c0,0,3.5,0.1,4.9-0.9v3.2c-0.9,0.5-4.9,0.6-4.9,0.6s-4.1,0-4.9-0.6v-3.2
					C129.1,658.7,132.6,658.6,132.6,658.6z"/>
			</g>
			<path fill="#BD814E" d="M151.1,565.8c0,0-1.4,1.8-2.3,3.1c-0.8,1.3-0.6,5-0.6,5.8c0,0.8,1.1,1.2,1.4-0.2c0.5-1.9,0.8-3,0.8-3
				s1.3,0.7,3.6,2c2.4,1.4,1.8,1.7,3.3,1.6s0.8,0.7,1.5-1.6s-5.1-7.8-5.1-7.8H151.1L151.1,565.8z"/>
			<polygon fill="#E6E7E8" points="149,565.8 149,567.7 155.8,567.7 155.8,565.4 			"/>
			<path fill="#39B54A" d="M143.8,503.7c0,0,11.3,6.9,12.3,44.9c0.4,13.9,0.3,17.8,0.3,17.8l-8.3,0.1c0,0-0.6-16.1-1.4-23.6
				c-0.6-6.6-6.9-20.4-6.9-20.4L143.8,503.7z"/>
			<g>
				<path fill="#262626" d="M122.9,559.6c7.9,0,17.9,0.9,17.9,0.9c1.4,8.4,1.9,15.1-0.7,43.4c-0.4,3.8,3.6,25.8-0.1,44.8h-13.5
					c0,0-2.6-17.6-0.5-45c0.2-2-0.8-8.6-1.1-10.5c-1-9.8-1-17-1.2-19.2c-0.1-0.4-1.3-0.4-1.4-0.4v-14
					C122.6,559.6,122.8,559.6,122.9,559.6z"/>
			</g>
			<polygon fill="#39B54A" points="143.8,503.7 128.4,501.6 122.6,502.8 122.6,554.8 140.8,554.8 139.8,535 142.8,511.6 			"/>
			<path fill="#BD814E" d="M122.6,489.3L122.6,489.3v14.4l0,0c3.7,0,5.8,0,5.8,0l-0.7-15.5L122.6,489.3z"/>
			<path fill="#C9996F" d="M122.6,489.3L122.6,489.3v14.4l0,0c-3.7,0-5.7-0.5-5.7-0.5l0.7-15L122.6,489.3z"/>
			<path fill="#BD814E" d="M133.1,480.4c-0.2,0-0.4,0-0.6,0c0.8-11.7-6.7-12.6-9.1-12.5c-2.7-0.1-11.2,0.8-10.6,12.5
				c-0.2,0-0.4,0-0.6,0c-1.4,0-2.3,1.6-1.9,3.9c0.3,2.3,1.4,4.1,2.8,4.1c0.1,0,0.1,0,0.1,0c0.2,2.1,0.5,4.1,1,4.9
				c0.9,1.4,3.8,3.3,8.4,3.7v0.1c0.2,0,0.4,0,0.7-0.1c0.3,0,0.6,0.1,0.9,0.1v-0.1c3.3-0.4,6-2.2,6.8-3.6c0.5-0.8,0.8-2.8,1-4.9
				c0.1,0,0.1,0,0.1,0c1.4,0,2.5-1.8,2.8-4.1C135.3,482,134.5,480.4,133.1,480.4z"/>
			<polygon fill="#39B54A" points="122.7,514.8 122.6,501.7 115.8,501.1 115.8,501.6 101.1,503.7 105.1,535 103.4,554.8 
				122.6,554.8 122.7,534.6 			"/>
			<polygon fill="#1C1C1C" points="123.9,506.6 122.6,506.6 122.6,552.4 127.6,537.8 			"/>
			<polygon fill="#1C1C1C" points="121.3,506.6 122.6,506.6 122.6,552.4 117.7,537.8 			"/>
			<path fill="#6C3F26" d="M134.3,464.1c-3.7,2.7-16.8,0-18.5,4.2l0,0c-1.2-0.1-4.1,0-4.5,3.1c-0.2,2.3,0.1,4.9,0.6,7.4
				c0.5,3.1,1.5,4.8,1.5,4.8s0.8-3.9,1-5.2c0.2-1.1,0.5-2.8,0.8-4.4c0.8,0.4,2.9,1.6,7.4,2.2c2.1,0.3,4.9,0.6,8.1,0.6
				c0.1,0.6,0.2,1.2,0.3,1.6c0.2,1.3,1,5.2,1,5.2s1.8-2.8,1.8-8c0-1.7,0-2.6,0-2.6l-0.1-0.1c0-0.1,0-0.3-0.1-0.4
				C137.1,469.4,134.3,464.1,134.3,464.1z"/>
			<rect x="103.4" y="554.8" fill="#FFDE17" width="37.4" height="5.8"/>
			<rect x="108.1" y="554.8" fill="#39B54A" width="2.8" height="5.8"/>
			<rect x="130.8" y="554.8" fill="#39B54A" width="2.8" height="5.8"/>
			<path fill="#1C1C1C" d="M126.9,553.9h-8.4c-0.4,0-0.7,0.3-0.7,0.7v6.1c0,0.4,0.3,0.7,0.7,0.7h8.4c0.4,0,0.7-0.3,0.7-0.7v-6.1
				C127.6,554.2,127.3,553.9,126.9,553.9z M126.1,559.8c0,0.2-0.2,0.5-0.5,0.5h-5.9c-0.2,0-0.5-0.2-0.5-0.5v-4.3
				c0-0.2,0.2-0.5,0.5-0.5h5.9c0.2,0,0.5,0.2,0.5,0.5V559.8z"/>
			<polygon fill="#262626" points="121.3,506.6 119.5,500.9 122.6,501.6 122.6,506.6 			"/>
			<polygon fill="#1C1C1C" points="123.9,506.6 125.8,500.9 122.6,501.6 122.6,506.6 			"/>
			<path fill="#9EE4F2" d="M122.6,501.6c0,0,3.6-1.2,5.6-2.4l2.6,2.8l-4.4,6.2L122.6,501.6z"/>
			<path fill="#9EE4F2" d="M122.6,501.6c0,0-3.6-1.2-5.6-2.4l-2.6,2.8l4.4,6.2L122.6,501.6z"/>
		</g>
		<g>
			<path fill="#BD814E" d="M103.7,524.8c1.9,4.8,1.8,9.4,3,18.7c0.2,1.2-4.3,2.5-4.8,1.3c-3.1-8-4.1-13.8-4.4-20.6
				C97.4,522.7,103.1,523.4,103.7,524.8z"/>
			<g>
				<polygon fill="#C9996F" points="73.9,511.1 65.7,512.2 65.7,521 79.8,528 79.8,511.1 				"/>
				<polygon fill="#BD814E" points="92.4,521 92.4,512 85.7,511.1 79.8,511.1 79.8,528 93.4,534.9 				"/>
			</g>
			<g>
				<path fill="#6C3F26" d="M65.3,492c0,3.2,0,13.4,0,13.4h14.5v-28.8C71.8,477.1,65.3,483.8,65.3,492z"/>
			</g>
			<g>
				<path fill="#6C3F26" d="M94.3,492c0,3.2,0,13.4,0,13.4H79.8v-28.8C87.9,477.1,94.3,483.8,94.3,492z"/>
			</g>
			<path fill="#C9996F" d="M79.8,501.3h-5.9v9.4c0,4,5.9,5.2,5.9,5.2v-5.2l0,0V501.3z"/>
			<path fill="#BD814E" d="M80.6,571.5h-1.2v-14.4l9.4,0.3c0,0,11.6-3.3,5.1,30.9c-1.4,7.6-3.3,10.9-4.3,15.8
				c-1.2,6,0.2,10.2-0.1,15.6C88.8,634.5,86,650,86,650h-2.6c0,0-2.7-18.2-2.7-30.4c0-5.3,0.7-7.5,0.8-14.9c0-6.8-1.1-12.5-1.1-17.9
				C80.4,577,80.6,577.7,80.6,571.5z"/>
			<path fill="#BD814E" d="M78.9,571.5h1.2l-0.7-15.6l-8.7-0.9c0,0-11.7-3.1-5.2,33.2c1.4,7.6,3.3,10.9,4.3,15.8
				c1.2,6-0.2,10.2,0.1,15.6c0.8,14.9,3.6,30.4,3.6,30.4h2.6c0,0,2.8-18.2,2.8-30.4c0-5.3-0.7-7.5-0.7-14.9c0-6.8,1.1-12.5,1.1-17.9
				C79.3,576.9,78.9,577.7,78.9,571.5z"/>
			<rect x="79.8" y="501.3" fill="#BD814E" width="5.9" height="9.4"/>
			<path fill="#BD814E" d="M79.8,507.6c0,0,2.7,0.2,4.3-1.5c1-1,4.2-1.9,4.2-5.6s0.4-7.4,0.4-9.8c0.1-2.3,0.6-8.3-5.2-8.3
				c-3.6,0-3.8,0-3.8,0V507.6z"/>
			<path fill="#BD814E" d="M88.1,492.8c0,0,1.1-1.3,1.8-1.3c0.7,0,1.2,1.3,1.2,1.9c0.1,0.8-0.9,3.8-1.1,4.2s-0.9,1.1-1.4,0.4
				C87.8,496.8,88.1,492.8,88.1,492.8z"/>
			<path fill="#BD814E" d="M71.5,492.8c0,0-1.1-1.3-1.8-1.3c-0.7,0-1.2,1.3-1.2,1.9c-0.1,0.8,0.9,3.8,1.1,4.2
				c0.1,0.4,0.9,1.1,1.4,0.4C71.9,496.8,71.5,492.8,71.5,492.8z"/>
			<path fill="#BD814E" d="M79.8,507.6c0,0-2.7,0.2-4.3-1.5c-1-1-4.2-1.9-4.2-5.6s-0.4-7.4-0.4-9.8s-0.6-8.3,5.2-8.3
				c3.6,0,3.8,0,3.8,0V507.6z"/>
			<path fill="#6C3F26" d="M83.6,484.2c0,0-5,7.5-12.8,7.8c0,0-2.5-6.8,2.5-10.1c5.1-3.2,10.4,0,10.4,0L83.6,484.2z"/>
			<path fill="#6C3F26" d="M83.6,484.2c0,0,3.8,7.6,4.9,8.1c0,0,1.7-0.8,1.5-2.9c-0.2-2.1-2.4-9.2-6-8.5
				C80.5,481.6,83,483,83.6,484.2z"/>
			<path fill="#BD814E" d="M79.8,510v5.9c0,0,5.9-1.2,5.9-5.3L79.8,510z"/>
			<path fill="#009ED4" d="M69.8,491.4c0,0-1.5-6.3,4.8-9.8c2.2-1.2,5.9-1.9,9.9,0.1c0,0,5.3,2.4,5.3,9.6c0,0,0.3,0.1,0.5,0.2
				c0,0,0.7-11.9-10.8-12c-4.1,0-11.1,2.3-10.2,12L69.8,491.4z"/>
			<path fill="#FDD09E" d="M78.6,654.5c0,0-0.9-5.2-1.2-7.3l-2.6-0.1v9.1C74.8,656.2,77.5,656.5,78.6,654.5z"/>
			<path fill="#FDD09E" d="M70.9,654.5c0,0,0.8-5.8,1.2-7.8l2.7,0.4v9.1C74.8,656.2,72,656.5,70.9,654.5z"/>
			<path fill="#E24512" d="M74.8,656.1c-2.8,0-3.9-1.6-3.9-1.6v5.9c0.7,1,3.9,1,3.9,1s3.2-0.1,3.9-1v-5.9
				C78.6,654.5,77.6,656.1,74.8,656.1z"/>
			<path fill="#FDD09E" d="M77.2,640.5c0,0-0.2,4.1,0.3,4.9c0.5,0.9,0,2.6,0,2.6l-1.6-0.5L77.2,640.5z"/>
			<path fill="#FDD09E" d="M72.3,640.5c0,0,0.2,4.1-0.3,4.9c-0.5,0.9,0,2.6,0,2.6l1.6-0.5L72.3,640.5z"/>
			<path fill="#FDC486" d="M80.9,654.5c0,0,0.9-5.2,1.2-7.3l2.6-0.1v9.1C84.9,656.2,82.1,656.5,80.9,654.5z"/>
			<path fill="#FDC486" d="M88.8,654.5c0,0-0.8-5.8-1.2-7.8l-2.7,0.4v9.1C84.9,656.2,87.6,656.5,88.8,654.5z"/>
			<path fill="#E24512" d="M84.9,656.1c-2.8,0-3.9-1.6-3.9-1.6v5.9c0.7,1,3.9,1,3.9,1s3.2-0.1,3.9-1v-5.9
				C88.8,654.5,87.7,656.1,84.9,656.1z"/>
			<g>
				<path fill="#E24512" d="M74.8,650.4c0,0-1.8,0-3.4,0.6l-0.3,2c0,0,0.8-0.8,3.7-0.8s3.7,0.8,3.7,0.8l-0.3-2
					C76.6,650.4,74.8,650.4,74.8,650.4z"/>
				<path fill="#E24512" d="M88.3,651c-1.6-0.6-3.4-0.6-3.4-0.6s-1.8,0-3.4,0.6l-0.3,2c0,0,0.8-0.8,3.7-0.8c2.9,0,3.7,0.8,3.7,0.8
					L88.3,651z"/>
			</g>
			<path fill="#FDC486" d="M82.4,640.5c0,0,0.2,4.1-0.3,4.9c-0.5,0.9,0,2.6,0,2.6l1.6-0.5L82.4,640.5z"/>
			<path fill="#FDC486" d="M87.3,640.5c0,0-0.2,4.1,0.3,4.9c0.6,0.9,0,2.6,0,2.6l-1.6-0.5L87.3,640.5z"/>
			<g>
				<path fill="#E24512" d="M74.7,647.5c0,0-1.6,0-2.9,0.5l-0.2,1.7c0,0,0.7-0.6,3.1-0.6s3.1,0.6,3.1,0.6l-0.2-1.7
					C76.3,647.5,74.7,647.5,74.7,647.5z"/>
				<path fill="#E24512" d="M87.9,648c-1.3-0.5-2.9-0.5-2.9-0.5s-1.6,0-2.9,0.5l-0.2,1.7c0,0,0.7-0.6,3.1-0.6c2.4,0,3.1,0.6,3.1,0.6
					L87.9,648z"/>
			</g>
			<path fill="#E64E9D" d="M91.8,512l0.9,14.9l4-0.2l1.5,5.9l7.3-0.8c-1.1-9.9-3.6-15.1-4.4-16.2C99.1,512.5,94.9,512.4,91.8,512z"
				/>
			<path fill="#BD814E" d="M55.8,525.9c-1.5,4.9-0.9,5.1-1.4,14.4c-0.1,1.3,4.3,7.9,4.6,6.7c2.4-8.2,3.1-15.3,2.9-22.1
				C61.9,523.3,56.3,524.4,55.8,525.9z"/>
			<path fill="#E24512" d="M92.1,550.9V536c0.9-0.4,1.6-0.9,2.1-1.6c2.7-4.2-0.2-7.6-0.2-14.7c0,0-4.7,3.3-14.1,3.3
				c-5.7-0.1-10.9-2-13.1-2.9l-0.1-8c-3,0.7-7.2,1.1-9.1,4.4c-0.7,1.2-2.8,6.6-3.1,16.6l7.3,0.2l1.1-6.1l1.9-0.1
				c-0.5,2.7-0.8,4.8,0.8,7.2c0.5,0.8,1.2,1.2,2,1.6l-0.2,15.1c-8,12.8-6.9,43.1-6.9,43.1s5.8,4.1,19.4,4.1l0,0
				c14.7,0,19.4-4.1,19.4-4.1S100.3,563.5,92.1,550.9z"/>
			<g>
				<g>
					<path fill="#009ED4" d="M107.9,541.6l3.1-0.6c1.4-4.6-0.1-11-2.2-14.6c-1.7-3-6.5-5.7-9.9-7L89.4,541c1.5,0.6,3.5,3.4,0.6,6.2
						c-5.2,4.8-2.7,10.5-0.4,11.5c1.1,0.5,3.3-1.3,1.2-5.7c0,0,9.3-3.3,10.5-12.1c0.4-2.7,0.5-5.1,1.4-6.8
						C105.5,529.1,103.8,537.3,107.9,541.6z"/>
				</g>
				<path fill="#BD814E" d="M108.1,542.3c0,0-0.4,0.8-0.7,1.5c-0.3,0.8,0.6,1.4,1.2,0.5c0.1-0.1,0.2-0.3,0.3-0.4
					c0.1-0.1,0.4,1.2,0.7,1.6c0.6,0.7,2.2,0.1,2.7-0.7c0.3-0.6,0.1-2.8-1.1-3.8L108.1,542.3z"/>
				<path fill="#E64E9D" d="M111.5,540.3c0,0,0.4,0.5,0.1,1.1l-3.6,0.9c0,0-0.8-0.3-0.5-1L111.5,540.3z"/>
				<g>
					<path fill="#009ED4" d="M76.6,527.8l-1.7-2.6c2.4-4.1,8.2-7.4,12.2-8.3c3.4-0.7,8.6,0.9,11.9,2.6l-7.6,20.9l-1.9,0.7
						c-1.5-0.7-4.9-0.4-4.7,3.6c0.4,8.4-4.9,9.8-7.1,8.8c-2.1-1-2.5-4.7,2.1-6.2c0,0-3.8-8.1,1.8-14.9c1.7-2.1,3.4-3.8,4-5.6
						C87.4,521.2,82.5,528,76.6,527.8z"/>
				</g>
				<path fill="#BD814E" d="M75.9,528.2c0,0-0.3,0.8-0.7,1.5c-0.4,0.7-1.4,0.5-1.2-0.5c0-0.1,0.1-0.4,0.1-0.5s-1.1,0.6-1.7,0.5
					c-0.9,0-1.6-1.6-1.3-2.4c0.2-0.6,2-1.9,3.4-1.8L75.9,528.2z"/>
				<path fill="#E64E9D" d="M75.1,524.3c0,0-0.6,0.1-0.9,0.7l1.8,3.2c0,0,0.8,0.4,1.1-0.3L75.1,524.3z"/>
				
					<ellipse transform="matrix(-0.9179 -0.3969 0.3969 -0.9179 -23.4858 1045.5625)" fill="#F1F2F2" cx="96.4" cy="525.2" rx="8.4" ry="8.7"/>
				<g>
					<path fill="#BD814E" d="M103.5,508.8c-3.8-1.6-8.2,0.1-9.9,3.9c-0.1,0.2-0.1,0.4-0.2,0.6c-0.6,0.5-1.1,1.1-1.4,1.8
						c-1.2,2.9,1,6.8,5.1,8.5l0,0L103.5,508.8L103.5,508.8z"/>
					<path fill="#BD814E" d="M106.8,521.5c0.3-0.7,0.4-1.5,0.3-2.2c0.1-0.2,0.2-0.4,0.3-0.6c1.6-3.8-0.1-8.2-3.9-9.8l-6.4,14.7
						C101.2,525.4,105.6,524.5,106.8,521.5z"/>
				</g>
				
					<ellipse transform="matrix(0.9179 0.3968 -0.3968 0.9179 214.6743 -1.687838e-02)" fill="#BD814E" cx="107.4" cy="518.8" rx="1.5" ry="1.4"/>
				
					<ellipse transform="matrix(-0.9179 -0.3969 0.3969 -0.9179 -23.9866 1020.7358)" fill="#BD814E" cx="93.6" cy="512.8" rx="1.5" ry="1.4"/>
				<path fill="#009ED4" d="M102.2,519.5c-0.6-0.8-1.6-0.4-2.9-1c-1.3-0.6-1.8-1.5-2.7-1.4c-0.6,0.1-0.9,0.4-1.1,0.9
					c-0.6,1.4,0.2,3.8,2.1,4.6s4.2-0.2,4.8-1.6C102.6,520.5,102.5,519.9,102.2,519.5z"/>
				<g>
					<circle fill="#FFDE17" cx="98.6" cy="520.3" r="1"/>
					<g>
						<path fill="#FFDE17" d="M98.8,519.9c-1.4-0.6-2.9,0.1-3.5,1.4c-0.6,1.4,0.1,2.9,1.4,3.5c1.4,0.6,2.9-0.1,3.5-1.4
							C100.7,522,100.1,520.5,98.8,519.9z M96.9,524.2c-1-0.4-1.5-1.6-1.1-2.7c0.4-1,1.6-1.5,2.7-1.1c1,0.4,1.5,1.6,1.1,2.7
							C99.1,524.1,97.9,524.6,96.9,524.2z"/>
					</g>
				</g>
				<g>
					<path fill="#6C3F26" d="M99.9,512.8c0,0,0-0.1,0-0.2c0-0.1,0-0.3,0-0.6c0-0.3,0.1-0.5,0.2-0.8s0.3-0.6,0.6-0.9s0.7-0.6,1.1-0.8
						s1-0.3,1.6-0.2l0.2,0.1c0.1,0,0.1,0.1,0.2,0.1c0.1,0.1,0.3,0.1,0.4,0.1c0.3,0.1,0.6,0.3,0.8,0.5c0.5,0.4,0.8,1,0.9,1.6
						c0,0.1,0,0.2,0.1,0.2c0,0.1,0,0.2,0,0.2v0.2l0,0v0.1l0,0l0,0v0.1v0.1c-0.1,0.4-0.2,0.7-0.3,1c-0.3,0.6-0.9,1-1.5,1.1
						c-0.1,0-0.1,0.1-0.2,0.1c-0.1,0-0.1,0-0.2,0c-0.1,0-0.1,0-0.2,0h-0.1h-0.1l0,0h-0.1l0,0h-0.1c-0.1,0-0.1,0-0.1,0
						c-0.1,0-0.2-0.1-0.2-0.1c-0.1-0.1-0.2-0.1-0.4-0.2c-0.5-0.3-0.8-0.8-0.9-1.2c-0.1-0.2-0.1-0.4-0.1-0.7v-0.1l0,0l0,0v-0.1
						c0-0.1,0-0.1,0.1-0.1c0.1-0.1,0.1-0.2,0.1-0.3c0.2-0.3,0.5-0.5,0.7-0.6c0.1-0.1,0.2-0.1,0.3-0.1c0.1,0,0.2,0,0.2,0
						c0.1,0,0.2,0,0.2,0s-0.1,0-0.2,0.1c-0.1,0-0.1,0.1-0.2,0.1c-0.1,0-0.1,0.1-0.2,0.1c-0.1,0.1-0.3,0.3-0.3,0.6c0,0.1,0,0.1,0,0.2
						s0,0.1,0,0.1v0.1v0.1l0,0c0,0,0-0.1,0,0l0,0l0,0c0,0.1,0.1,0.2,0.1,0.4c0.1,0.2,0.4,0.4,0.6,0.6c0.1,0,0.1,0.1,0.2,0.1
						c0.1,0,0.1,0,0.1,0h0.1h0.1l0,0c0,0-0.1,0,0,0l0,0l0,0l0,0h0.1c0.1,0,0.1,0,0.1,0c0.1,0,0.1,0,0.1,0s0.1,0,0.1-0.1
						c0.3-0.1,0.6-0.4,0.7-0.6c0.1-0.1,0.1-0.3,0.1-0.4v-0.1v-0.1c0-0.1,0-0.1,0-0.1c0-0.1,0-0.1,0-0.1c0-0.2-0.1-0.4-0.2-0.5
						c-0.1-0.1-0.2-0.3-0.3-0.4c-0.1-0.1-0.2-0.2-0.4-0.3c-0.1-0.1-0.1-0.1-0.2-0.1l-0.1-0.1c-0.1,0-0.1,0-0.1-0.1
						c-0.4-0.1-0.8-0.1-1.1,0c-0.4,0.1-0.7,0.2-0.9,0.4c-0.2,0.2-0.5,0.4-0.7,0.6s-0.3,0.4-0.4,0.6c-0.1,0.2-0.1,0.4-0.2,0.4
						C99.9,512.8,99.9,512.8,99.9,512.8z"/>
					<path fill="#6C3F26" d="M99.9,512.9C99.9,512.9,99.9,512.9,99.9,512.9c-0.1-0.1-0.2-0.1-0.3-0.2c-0.1-0.1-0.2-0.2-0.3-0.3
						c-0.1-0.1-0.1-0.1-0.2-0.2c-0.1-0.1-0.1-0.2-0.2-0.3c-0.1-0.1-0.1-0.2-0.1-0.3c-0.1-0.1-0.1-0.2-0.1-0.4
						c-0.1-0.2-0.1-0.6-0.1-0.9c0-0.1,0.1-0.3,0.1-0.4c0-0.1,0.1-0.1,0.1-0.2l0.1-0.2c0-0.1,0.1-0.1,0.1-0.2
						c0.1-0.1,0.1-0.1,0.1-0.2c0.1-0.1,0.2-0.2,0.3-0.4s0.2-0.2,0.4-0.4l0.1-0.1l0,0l0,0h0.1l0,0l0.1-0.1c0.1-0.1,0.1-0.1,0.2-0.1
						c0.1-0.1,0.2-0.1,0.2-0.1c0.1-0.1,0.1-0.1,0.2-0.1c0.2-0.1,0.3-0.1,0.4-0.1c0.3-0.1,0.6-0.1,0.9,0c0.1,0,0.2,0.1,0.4,0.1
						c0.1,0.1,0.2,0.1,0.3,0.1c0.2,0.1,0.4,0.2,0.5,0.4c0.1,0.1,0.2,0.2,0.3,0.4c0.1,0.1,0.1,0.2,0.1,0.2s0.1,0.1,0.1,0.1
						s-0.1,0-0.1-0.1c-0.1,0-0.1-0.1-0.2-0.1c-0.1-0.1-0.2-0.1-0.4-0.1c-0.1,0-0.1-0.1-0.2-0.1c-0.1,0-0.2,0-0.2,0
						c-0.3,0-0.8,0.1-1.1,0.2c-0.1,0.1-0.2,0.1-0.2,0.1l-0.1,0.1c-0.1,0-0.1,0.1-0.1,0.1c0,0-0.1,0.1-0.1,0.1l-0.1,0.1l0,0
						c0.1-0.1,0,0,0,0l0,0l0,0l0,0l0,0c-0.1,0.1-0.1,0.1-0.2,0.2c-0.1,0.1-0.2,0.3-0.4,0.5c-0.1,0.2-0.2,0.4-0.2,0.6
						c-0.1,0.2-0.1,0.4-0.1,0.6c0,0.1,0,0.1,0,0.1c0,0.1,0,0.1,0,0.1c0,0.1,0,0.1,0,0.1s0,0.1,0,0.1c0,0.1,0,0.2,0,0.2
						c0,0.1,0,0.1,0,0.1s0,0.1,0,0.1c0,0.2,0.1,0.3,0.1,0.4c0,0.1,0.1,0.2,0.1,0.2C99.9,512.8,99.9,512.9,99.9,512.9z"/>
				</g>
			</g>
			<path fill="#BD814E" d="M106.3,540.3c-1.6,0.8-2.3-0.6-3.8,0.4c-7.3,5.2-16.2,10.4-16.2,10.4s-4.3-0.8-5.1,0.2
				c-0.5,0.7,1.3,0.6,1.4,1.1c0.2,0.9-3.6,1.3-3.9,2.1c-0.9,2.2,1.4,4.1,1.8,4.1c2.3,0.1,0.9-0.1,4.6-1.6c2.2-0.9,4.4-3.6,4.4-3.6
				s11.8-5.4,15.8-7.2C107.6,545.3,106.3,540.3,106.3,540.3z"/>
			<path fill="#BD814E" d="M54.4,540.3c0.9-1.2,2.6-0.2,4.4-0.6c8.8-1.3,23.4-3.7,23.4-3.7s3.1-3.7,4.4-3.4c0.8,0.1-1.2,2.6-0.9,3.1
				c0.4,0.8,5-0.8,5.4-0.1c0.5,0.7,0.2,1.6,0.1,1.9c-0.2,1-0.3,1.2-1.3,1.6c-2.2,0.9-8.5,1.1-8.5,1.1s-21.9,9.4-25.1,8.7
				C54.2,548.3,54.4,540.3,54.4,540.3z"/>
		</g>
	</g>
	<g>
		<g>
			<g>
				<path fill="#E64E9D" d="M288,658h5.6c0,0-0.1-9.1-0.2-20.6h-6.3C288.2,650.3,288,658,288,658z"/>
				<path fill="#FDDBAE" d="M293.4,600.1l-9.8,8.7c1.9,11.1,2.9,20.8,3.6,28.5h6.3C293.4,624.8,293.3,609.6,293.4,600.1z"/>
				<path fill="#FDDBAE" d="M306.9,607.9l-9.9-7.8c0.1,9.5,0,24.8-0.1,37.2h6.4C303.8,629.3,304.9,619.3,306.9,607.9z"/>
				<path fill="#E64E9D" d="M303.2,637.3h-6.4c-0.1,11.5-0.2,20.6-0.2,20.6h5.6C302.3,658,302.1,650.2,303.2,637.3z"/>
			</g>
			<path fill="#FDD09E" d="M310.4,595.2c3.4-2.2,8.3-7.1,13.1-11.2c0.5-0.4,3.9-0.3,2.6,2.2c0,0-10.3,11.6-14,15.8L310.4,595.2z"/>
			<rect x="296.4" y="657.3" fill="#FFDE17" width="6.3" height="4.2"/>
			<rect x="287.8" y="657.3" fill="#FFDE17" width="6.3" height="4.2"/>
			<rect x="296.4" y="655.1" fill="#FFDE17" width="6.3" height="1"/>
			<rect x="287.8" y="655.1" fill="#FFDE17" width="6.3" height="1"/>
			<path fill="#FDD09E" d="M311,597.7c0.2,0.8,3.3,0.9,3.3,0.1c-0.2-8.9-0.4-13.4-0.4-13.4l-5.8,0.2
				C308.3,584.6,309.9,594.2,311,597.7z"/>
			<path fill="#FFE5BA" d="M295.2,564.5h-4.4v6.9c0,2.9,4.4,3.9,4.4,3.9v-3.9l0,0V564.5z"/>
			<path fill="#FDD09E" d="M295.2,570.9v4.4c0,0,4.4-0.9,4.4-3.9L295.2,570.9z"/>
			<rect x="295.2" y="564.5" fill="#FDD09E" width="4.4" height="6.9"/>
			<path fill="#FDD09E" d="M295.2,569.8c0,0,2.6,0.2,4.2-1.3c0.9-0.9,4.1-1.7,4.1-4.9c0-3.3,0.4-6.6,0.4-8.6c0.1-2,0.6-7.3-5-7.3
				c-3.4,0-3.7,0-3.7,0L295.2,569.8L295.2,569.8z"/>
			<path fill="#FDD09E" d="M303.2,556.8c0,0,1.1-1.2,1.7-1.2c0.7,0,1.1,1.1,1.2,1.7c0.1,0.6-0.9,3.3-1.1,3.6
				c-0.1,0.3-0.9,0.9-1.4,0.4C302.8,560.4,303.2,556.8,303.2,556.8z"/>
			<path fill="#FFE5BA" d="M287.2,556.8c0,0-1.1-1.2-1.7-1.2c-0.7,0-1.1,1.1-1.2,1.7c-0.1,0.6,0.9,3.3,1.1,3.6
				c0.1,0.3,0.9,0.9,1.4,0.4C287.6,560.4,287.2,556.8,287.2,556.8z"/>
			<path fill="#FFE5BA" d="M295.2,569.8c0,0-2.6,0.2-4.2-1.3c-0.9-0.9-4.1-1.7-4.1-4.9c0-3.3-0.4-6.6-0.4-8.6c-0.1-2-0.6-7.3,5-7.3
				c3.4,0,3.7,0,3.7,0V569.8L295.2,569.8z"/>
			<path fill="#FFDE17" d="M316.1,552.5c-0.9-4.9-2.9-7.9-6.6-7.9c-3.2,0.1-6.6,4.4-6.6,4.4l2.8,1.6c0,0,1.1,0.6,2.6,1.3
				c-0.1,4,3.7,6.4,3.7,6.4c-0.5-1.6,0.8-3,0.8-3c-0.2,5.2,4.6,5.1,4.6,5.1C314.4,556.4,316.7,556,316.1,552.5z"/>
			<path fill="#FFDE17" d="M301.5,548.6c0,0-1.2,4.1-7.4,4.4c0,0,1.7-1.9,1.8-2.9c0,0-1.8,2.5-5.5,2.8c0,0,0.8-1.6,0.9-2.8l-4.2,5.6
				c0,0-3.2-10.8,6.8-11.4c5.4-0.3,7.1,1.1,7.8,2.1C302.4,547.5,301.5,548.6,301.5,548.6z"/>
			<path fill="#39B54A" d="M305.4,546.1c-0.6-0.1-1.5,0.2-1.5,0.2s-0.8,0.2-1.3,0.7c0,0,1.7,1.9,1.8,5.7c0,0,0.2,0.4,1.5-0.1
				c1.3-0.4,1.2-0.8,1.2-0.8C308,547.5,305.4,546.1,305.4,546.1z"/>
			<path fill="#FFDE17" d="M275.3,552.5c0.9-4.9,2.9-7.9,6.6-7.9c3.2,0.1,6.6,4.4,6.6,4.4l-2.7,1.6c0,0-1.1,0.6-2.6,1.3
				c0.1,4-3.7,6.4-3.7,6.4c0.5-1.6-0.8-3-0.8-3c0.2,5.2-4.6,5.1-4.6,5.1C277,556.4,274.6,556,275.3,552.5z"/>
			<path fill="#39B54A" d="M287.4,546.3c0,0-0.8-0.2-1.5-0.2c0,0-2.6,1.4-1.8,5.7c0,0-0.1,0.4,1.2,0.8c1.3,0.4,1.5,0.1,1.5,0.1
				c0.1-3.8,1.8-5.7,1.8-5.7C288.3,546.6,287.4,546.3,287.4,546.3z"/>
			<path fill="#FFDE17" d="M300.1,549.6c0,0,3.2,8.1,3.2,11c0,0,2.7-10.7,0.5-13.4C303.1,546.5,300.1,545.6,300.1,549.6z"/>
			<path fill="#FFDE17" d="M291.3,549.6c0,0-4.6,7.3-4.6,10.3c0,0-1.3-9.9,0.9-12.6C288.2,546.5,291.3,545.6,291.3,549.6z"/>
			<path fill="#6DCEF5" d="M313.5,579.1c-0.2-2.3-1.1-5.6-6.8-6.4l0,0l-5.8-0.8h-10.1l-7.1,0.9c-6.4,0.6-6.5,3.8-6.8,6.2
				c-0.2,2.1-0.5,5.9-0.5,5.9h5.8l1-4.4v-0.3h1v16.9l-4.4,27.9h15.4v-21.4l0,0l0,0v21.4h15.4l-4.4-27.9v-16.9h1.1l0.1,0.3l1.1,4.7
				c0.9,0.2,2.4,3.2,5.6-1C314,584.5,313.8,581.3,313.5,579.1z"/>
			<path fill="#FDD09E" d="M323.8,583.9c0,0-0.1-4.8,0.3-5.6c0.4-0.8,1.3-0.6,1.4,1.4l0.9-1.5c0,0,1.6-2.3,2.3-2.6
				c0.7-0.2,2.8,1.7,3,2.3c0.2,0.7,0.6,1.9-0.3,3.4c-2.7,4.6-5.3,5.1-5.3,5.1L323.8,583.9z"/>
			<path fill="#FDD09E" d="M280,595.2c-3.4-2.2-8.3-7.1-13.1-11.2c-0.5-0.4-3.9-0.3-2.6,2.2c0,0,10.3,11.6,14,15.8L280,595.2z"/>
			<path fill="#FDD09E" d="M279.4,597.7c-0.2,0.8-3.3,0.9-3.3,0.1c0.2-8.9,0.4-13.4,0.4-13.4l5.8,0.2
				C282.1,584.6,280.5,594.2,279.4,597.7z"/>
			<path fill="#FDD09E" d="M266.6,583.9c0,0,0.1-4.8-0.3-5.6c-0.4-0.8-1.3-0.6-1.4,1.4v0.8c0,0-2.5-4.6-3.2-4.9s-2.8,1.7-3,2.3
				c-0.2,0.7-0.6,1.9,0.3,3.4c2.7,4.6,5.3,5.1,5.3,5.1L266.6,583.9z"/>
			<path fill="#E64E9D" d="M299.6,571.4c0,0,3.8,0.3,3.1,3.9c-0.8,3.8-7,3.9-7.4,0C295.2,575.3,298.8,573.8,299.6,571.4z"/>
			<path fill="#E64E9D" d="M290.8,571.4c0,0-3.8,0.3-3.1,3.9c0.8,3.8,7,3.9,7.4,0C295.2,575.3,291.6,573.8,290.8,571.4z"/>
			<g>
				<g>
					<path fill="#E64E9D" d="M282.6,592.6c0,0-2.4,4.4-0.2,8.4l6.1-3.3v-1.2C288.5,596.6,286.8,594.8,282.6,592.6z"/>
					<path fill="#E64E9D" d="M294.4,592.6c0,0,2.4,4.4,0.2,8.4l-6.1-3.3v-1.2C288.5,596.6,291.3,594.5,294.4,592.6z"/>
					<path fill="#E64E9D" d="M287.8,597.3c0,0-3.4,4.2-3.9,8.9l2.6,0.7c0,0,1.8-5,2.4-9.2L287.8,597.3z"/>
					<path fill="#E64E9D" d="M289.1,597.3c0,0,3.4,4.2,3.9,8.9l-2.6,0.7c0,0-1.8-5-2.4-9.2L289.1,597.3z"/>
				</g>
			</g>
			<rect x="284.2" y="596.6" fill="#E64E9D" width="22.7" height="2.2"/>
			<path fill="#5BABB6" d="M265,595c-3.7-11.7-4-18.7-4.4-28.3c-0.4-8.1-0.8-18.2-3.6-34.4l1.1-0.2c2.8,16.3,3.2,26.4,3.6,34.6
				c0.4,9.6,0.8,16.5,4.4,28.1L265,595z"/>
			<path fill="#F267A5" d="M273.8,505c1.5,11.2-5.7,25.8-16.8,27.3c-11.2,1.5-22.1-10.8-23.6-22c-1.5-11.2,6.4-21.4,17.6-22.9
				C262.1,486,272.3,493.9,273.8,505z"/>
			<path fill="#F585B7" d="M257.5,505.8c0.8,6.1-3.1,14.1-9.2,14.9c-6.1,0.8-12.1-5.9-12.8-11.9c-0.8-6.1,3.5-11.6,9.6-12.4
				C251.1,495.5,256.7,499.8,257.5,505.8z"/>
			<polygon fill="#F267A5" points="252.1,538.3 256.9,526.7 264.5,536.6 			"/>
		</g>
		<g>
			<g>
				<path fill="#515151" d="M377.6,659c-1.3,0-4.4-0.4-4.9-1.3c0,0,0.1-0.9,0.4-2.1c1.1-0.7,2.8-1.1,4.6-1.1s3.6,0.4,4.6,1.1
					c0.1,1.2,0.3,2.1,0.3,2.1C381.8,658.6,378.9,659,377.6,659z"/>
				<path fill="#262626" d="M381.4,649.1L381.4,649.1c0-0.5,0-1-0.2-1.4c-0.7-1-0.6-3.3-0.6-3.3v0.1c0-0.1,0-0.1,0-0.2h-5.9
					c0,0.1,0,0.1,0,0.2v-0.1c0,0,0.2,2.2-0.5,3.2c-0.4,0.7-0.3,1.8-0.1,2.4c-0.2,1.4-0.7,3.8-0.9,5.4c1.1-0.7,2.8-1.1,4.6-1.1
					s3.6,0.4,4.6,1.1C382,653.3,381.6,649.8,381.4,649.1z"/>
				<path fill="#262626" d="M377.6,658.6c0,0,3.5,0.1,4.9-0.9v3.2c-0.9,0.5-4.9,0.6-4.9,0.6s-4.1,0-4.9-0.6v-3.2
					C374.1,658.7,377.6,658.6,377.6,658.6z"/>
			</g>
			<g>
				<path fill="#515151" d="M357.3,659c1.3,0,4.4-0.4,4.9-1.3c0,0-0.1-0.9-0.4-2.1c-1.1-0.7-2.8-1.1-4.6-1.1s-3.6,0.4-4.6,1.1
					c-0.1,1.2-0.2,2.1-0.2,2.1C353.1,658.6,356,659,357.3,659z"/>
				<path fill="#262626" d="M353.5,649.1L353.5,649.1c0-0.5,0-1,0.2-1.4c0.7-1,0.6-3.3,0.6-3.3v0.1c0-0.1,0-0.1,0-0.2h5.9
					c0,0.1,0,0.1,0,0.2v-0.1c0,0-0.2,2.2,0.5,3.2c0.4,0.7,0.3,1.8,0.1,2.4c0.2,1.4,0.7,3.8,0.9,5.4c-1.1-0.7-2.8-1.1-4.6-1.1
					s-3.6,0.4-4.6,1.1C352.9,653.3,353.4,649.8,353.5,649.1z"/>
				<path fill="#262626" d="M357.3,658.6c0,0-3.5,0.1-4.9-0.9v3.2c0.9,0.5,4.9,0.6,4.9,0.6s4.1,0,4.9-0.6v-3.2
					C360.8,658.7,357.3,658.6,357.3,658.6z"/>
			</g>
			<g>
				<path fill="#515151" d="M348.5,558.8c-1.4,8.4-1.4,16.8,1.3,45.2c0.4,3.8-2.4,29.8,1,44.8h12.5c0,0,2.6-17.6,0.5-45
					c-0.2-2,0.8-8.6,1.1-10.5c1-9.8,1-17.1,1.2-19.4c0.1-0.4,1.3-0.2,1.4-0.2l0.1-1.8l-0.1-13.1L348.5,558.8L348.5,558.8z"/>
			</g>
			<g>
				<path fill="#262626" d="M386.8,558.8c1.4,8.4,1.1,16.8-1.6,45.2c-0.4,3.8,3.6,25.8-0.1,44.8h-13.5c0,0-2.6-17.6-0.5-45
					c0.2-2-0.8-8.6-1.1-10.5c-1-9.8-1-17-1.2-19.2c-0.1-0.4-1.3-0.4-1.4-0.4v-14.9C367.6,558.8,386.8,558.8,386.8,558.8z"/>
			</g>
			<polygon fill="#FFE5BA" points="344.4,466.3 359.6,471.3 360.1,462.7 346.6,461.3 			"/>
			<rect x="362.8" y="454.5" fill="#FFE5BA" width="9" height="9.8"/>
			<path fill="#FFE5BA" d="M346.6,461.3c-3.6-3.9-8.4-3.7-14.2-8.1c-0.5-0.4,0.1-0.9-1-2.2c-0.8-1-2.9-3.4-3.4-3.2
				c-0.6,0.2-1.9,1.8-2.1,3.1c-0.3,2.3,1.4,3.5,1.6,3.8c1.8,2.2,2.9,0.1,5.1,1.9c0,0,5.2,5.9,11.9,9.8
				C344.4,466.3,347.2,462,346.6,461.3z"/>
			<polygon fill="#FFE5BA" points="390.5,466.3 375.3,471.3 374.8,462.7 388.3,461.3 			"/>
			<path fill="#FFE5BA" d="M388.3,461.3c3.6-3.9,8.4-3.7,14.2-8.1c0.5-0.4-0.1-0.9,1-2.2c0.8-1,2.9-3.4,3.4-3.2
				c0.6,0.2,1.9,1.8,2.1,3.1c0.3,2.3-1.4,3.5-1.6,3.8c-1.8,2.2-2.9,0.1-5.1,1.9c0,0-5.2,5.9-11.9,9.8
				C390.5,466.3,387.7,462,388.3,461.3z"/>
			<path fill="#FFE5BA" d="M398.6,542.7c0.7,0.2,3.6,1.8,5.4,2.6c0.5,1.2,0.8,2,0.8,2s0.1-0.6,0.3-1.6c0.4,0.1,0.6,0.1,0.6-0.1
				c-0.1-0.6-0.2-1.1-0.3-1.8c0.3-3.2,0.5-8.1-0.7-12.4c-0.9-3.1-2-6.5-4-8.5c0-0.1-0.1-0.2-0.1-0.2l-8.9,7.8
				C392.7,535,394.8,541.4,398.6,542.7z"/>
			<path fill="#FFE5BA" d="M398.8,543c-0.2,7.3,4.9,16.7,8.3,25.8c0.3,0.8-1.9,1.2-1.4,3.6c0.7,3.3,0.2,7,0.9,7.3
				c0.9,0.4,1.2-0.2,1.5-2.5c0.1-0.5,1-0.8,1.1-0.3c0.3,1.2,0.7,2.8,0.8,3.2c0.1,0.5-2.6,5.1-1.3,5.8c0.8,0.4,2.6-3.2,2.8-3.6
				c0.9-2.1,1.2-3.5,1.3-4c0.1-0.6-0.9-7.1-0.9-7.1s-0.3-24.8-5.6-30C404.4,539.7,398.8,541.8,398.8,543z"/>
			<path fill="#FFE5BA" d="M337.7,542.1c0.2,7.3-4.9,16.7-8.3,25.8c-0.3,0.8,1.9,1.2,1.4,3.6c-0.7,3.3,0.3,7.9-0.3,8.2
				c-0.9,0.4-1.6,1.2-2.1-3.4c-0.1-0.5-0.6,0.1-0.8,0.6c-0.3,1.2-0.4,2.3-0.5,2.8c-0.1,0.5,2,4.7,0.7,5.3c-0.8,0.4-2.6-3.2-2.8-3.6
				c-0.9-2.1-1.2-3.5-1.3-4c-0.1-0.6,0.9-7.1,0.9-7.1s0.3-24.8,5.6-30C331.9,538.8,337.6,540.8,337.7,542.1z"/>
			<path fill="#FFE5BA" d="M337.9,541.7c-0.7,0.2-3.6,1.8-5.4,2.6c-0.5,1.2-0.8,2-0.8,2s-0.1-0.6-0.3-1.6c-0.4,0.1-0.6,0.1-0.6-0.1
				c0.1-0.6,0.2-1.1,0.3-1.8c-0.3-3.2-0.5-8.1,0.7-12.4c0.9-3.1,2-6.5,4-8.5c0-0.1,0.1-0.2,0.1-0.2l8.9,7.8
				C343.8,534.1,341.7,540.4,337.9,541.7z"/>
			<path fill="#FFDE17" d="M390.4,507.9c-1.6-1.1-2.8-0.9-3.7-0.3c0.3-1.9,0.8-3.4,1.2-4.6l-20.6-2.1l-20.6,2.1
				c0.4,0.9,0.7,2,0.9,3.2c-0.5,0.1-1.1,0.3-1.7,0.8c-5,3.4-8.8,11.6-10.1,14.7l8.9,7.8c0.3-1.1,0.4-2,0.6-2.7l1.1,11.1l0.2,27.1
				h20.5h0.4h20.6l-1.6-37.6c1.3,0.4,3.1,0.2,4.5-0.1c0.1,0.8,0.4,1.9,0.6,3.1l8.9-7.8C399.2,519.5,395.4,511.3,390.4,507.9z"/>
			<path fill="#FDDBAE" d="M378.5,449.8c-0.3,2.1-1.2,3.7-2.5,3.7c-1.8,0-1.6-2-1.6-4.1c0-2.6,0.7-3.1,2.4-3.1
				C378.1,446.4,378.8,447.9,378.5,449.8z"/>
			<path fill="#FFE5BA" d="M358.7,447.5c0,0-0.6,8.3,0.4,10.1c0.9,1.4,4.7,3.6,8.3,3.6v-26C367.4,435.3,357.2,433.9,358.7,447.5z"/>
			<path fill="#FFE5BA" d="M376.2,447.5c0,0,0.6,8.3-0.4,10.1c-0.9,1.4-4.7,3.6-8.3,3.6v-26C367.4,435.3,377.7,433.9,376.2,447.5z"
				/>
			<path fill="#FFE5BA" d="M356.4,449.8c0.3,2.1,1.2,3.7,2.5,3.7c1.8,0,1.6-2,1.6-4.1c0-2.6-0.7-3.1-2.4-3.1
				C356.8,446.4,356.1,447.9,356.4,449.8z"/>
			<g>
				<path fill="#FFDE17" d="M359.1,437.9c0,0-0.4-4.6,6.8-4.8c6.9-0.2,7.8-2.2,7.8-2.2s1.9,1.9,1.9,5.4c0,4.3-4.1,6.6-8.2,6.6
					C361.6,443,359.8,439.1,359.1,437.9z"/>
				<path fill="#FFDE17" d="M359.1,437.9l-2,1l0.2,6.6l1.2,2.2c0,0,0.8-1.5,0.9-2.4c0.2-1.1,1.2-3.8,1.1-5.2L359.1,437.9z"/>
				<path fill="#FFDE17" d="M375.4,437.6l1.8,1.4l0.1,7.1l-1.1,1.7c0,0,0.1-3.1-0.1-3.9c-0.2-1.1-2.1-2.2-1.9-3.8L375.4,437.6z"/>
				<path fill="#FFDE17" d="M359.1,437c0,0,0.4-3.6,4.6-4.8c2.1-0.6,1.4-1.2,1.4-1.2s1.4,0.3,0,2.2C363.9,435,359.3,436.5,359.1,437
					z"/>
				<path fill="#FFDE17" d="M357,439c0,0,0.1,3.8-0.7,3.7c0,0,0.8,0.9,1.4,0.3C358.3,442.4,357,439,357,439z"/>
				<path fill="#FFDE17" d="M365.3,433.1c0,0,3.3-0.6,3.4-1.9c0,0,2.1,1-0.1,2.6C366.4,435.4,365.3,433.1,365.3,433.1z"/>
				<path fill="#FFDE17" d="M377.1,439.8c0,0,0.3,1.8,1.6,1.9c0,0-1.2,1.4-2.4-0.4C375.6,440.3,377.1,439.8,377.1,439.8z"/>
				<path fill="#FFDE17" d="M375.1,438.1c0,0,1.7-2.9,0.6-6c0,0-0.6,2.3-1.7,3C372.9,435.8,375.1,438.1,375.1,438.1z"/>
			</g>
			<path fill="#6DCEF5" d="M346.9,496.8c-1.2,0.4-1.4,3.1-1.4,17.3h10.2v-10.3c0,0,4.1-1.3,6.1-1.4c0,0,2.7-7.6,1.2-9.8
				C361.7,490.5,350.7,495.6,346.9,496.8z"/>
			<path fill="#FFDE17" d="M370.2,439c0,0-0.8,7.6-6.7,5.8c-5.9-1.8-5.1-3.7-5.1-3.7l8.1-4.1L370.2,439z"/>
			<rect x="347.7" y="514" fill="#FFE5BA" width="5.8" height="9.4"/>
			<rect x="347.2" y="521.1" fill="#FFDE17" width="6.8" height="4.6"/>
			<path fill="#6DCEF5" d="M387.9,496.8c1.2,0.4,1.4,3.1,1.4,17.3h-10.2v-10.3c0,0-4.1-1.3-6.1-1.4c0,0-2.7-7.6-1.2-9.8
				C373.1,490.5,384.1,495.6,387.9,496.8z"/>
			<rect x="381.3" y="514" fill="#FFE5BA" width="5.8" height="9.4"/>
			<rect x="380.8" y="521.1" fill="#FFDE17" width="6.8" height="4.6"/>
			<path fill="#E24512" d="M383.4,470.1l-1.5-9.3l-14.6,2.4l-14.4-2.2l-1.5,9.2l3.1,2.6l-1,21c0,0,17.7,2.7,28.7-0.5l-1.9-21.4
				L383.4,470.1z"/>
			<g>
				<path fill="#FDC486" d="M367.4,491.2v13.6v5.6l0,0c3.1,0,6.6-2.6,6.6-5.6l-1.1-13.6H367.4z"/>
				<path fill="#FDC486" d="M367.4,491.2v13.6v5.6l0,0c-3.1,0-6.6-2.6-6.6-5.6l1.1-13.6H367.4z"/>
				<path fill="#FDDBAE" d="M377.1,483.3c0,0-0.2,9.6-1.4,11.6c-0.9,1.6-4.4,3.8-8.4,3.8v-29C367.4,469.6,378.8,468.1,377.1,483.3z"
					/>
				<path fill="#FDDBAE" d="M379.8,485.9c-0.3,2.3-1.4,4.1-2.8,4.1c-2.1,0-1.8-2.2-1.8-4.5c0-2.9,0.8-3.4,2.6-3.4
					C379.3,482.1,380.1,483.7,379.8,485.9z"/>
				<path fill="#FFE5BA" d="M357.7,483.3c0,0,0.2,9.6,1.4,11.6c0.9,1.6,4.4,3.8,8.4,3.8v-29C367.4,469.6,356,468.1,357.7,483.3z"/>
				<path fill="#FFE5BA" d="M355.1,485.9c0.3,2.3,1.4,4.1,2.8,4.1c2.1,0,1.7-2.2,1.7-4.5c0-2.9-0.8-3.4-2.6-3.4
					C355.6,482.1,354.8,483.7,355.1,485.9z"/>
				<g>
					<g>
						<path fill="#262626" d="M378.5,477.3c0,5.2-1.8,8-1.8,8s-0.8-3.9-1-5.2c-0.4-2.2-1.4-7.2-0.8-9.2l3.5,3.9
							C378.5,474.7,378.5,475.7,378.5,477.3z"/>
					</g>
					<path fill="#262626" d="M378.5,475.2c0-3.9-3.6-7.2-8.1-7.2h-3.6l0.5,9.8c2.2,0.3,5.2,0.6,8.6,0.6c2.7,0,2.6-2.8,2.6-2.8
						C378.4,475.5,378.5,475.4,378.5,475.2z"/>
					<path fill="#262626" d="M367.3,468h-2.8c-4.3,0-8.1,7.6-8.1,9.3c0,5.2,1.7,8,1.7,8s0.8-3.9,1-5.2c0.2-1.1,0.5-2.8,0.8-4.4
						c0.8,0.4,2.9,1.6,7.4,2.2V468z"/>
				</g>
				<path fill="#262626" d="M361.1,470.1c0,0-4.6-0.9-5.1,3.1c-0.4,4,0.8,9.2,2.1,12.1C358.1,485.3,358.8,471,361.1,470.1z"/>
				<path fill="#262626" d="M360.1,469.8c1.7-4.2,14.8-1.6,18.6-4.2c0,0,3.4,6.2-1.7,9.1C377,474.6,359.1,472.5,360.1,469.8z"/>
			</g>
			<g>
				<path fill="#FFE5BA" d="M366.9,465.5c2.8,0,6.4-1.4,6.4-3.4l-12.6,0.1C360.8,464.1,364.3,465.5,366.9,465.5z"/>
			</g>
			<path fill="#39B54A" d="M347.2,523c0,0-4.2,2.4-4.4,4.1c-0.1,1.8-0.4,2.8-0.4,2.8s4.8,0.4,5.2,0c0.4-0.4,6.3-4.2,6.3-4.2V523
				C354,523,350.2,523.8,347.2,523z"/>
			<path fill="#39B54A" d="M387.6,523c0,0,4.2,2.4,4.4,4.1c0.1,1.8,0.4,2.8,0.4,2.8s-4.8,0.4-5.2,0c-0.4-0.4-6.3-4.2-6.3-4.2V523
				C380.8,523,384.6,523.8,387.6,523z"/>
		</g>
		<g>
			<path fill="#39B54A" d="M419.4,503.7c0,0-11.3,6.9-12.3,44.9c-0.4,13.9-0.3,17.8-0.3,17.8l8.3,0.1c0,0,0.6-16.1,1.4-23.6
				c0.6-6.6,6.9-20.4,6.9-20.4L419.4,503.7z"/>
			<g>
				<path fill="#E24512" d="M421.4,545.8h38.4c0-1.7,0-3.4,0-5.1h-38.4C421.4,542.4,421.4,544.1,421.4,545.8z"/>
				<path fill="#E24512" d="M426.9,502.7l-7.5,1c0,0,0.2,1.6,0.4,3.8h12L426.9,502.7z"/>
				<path fill="#E24512" d="M421.2,523.8c0,0.9,0.1,1.9,0.1,2.9h38.7c0-1.1,0.1-2.1,0.1-2.9c0-0.5,0.1-1.3,0.1-2.2h-39.1
					C421.1,522.5,421.2,523.2,421.2,523.8z"/>
				<path fill="#E24512" d="M443.9,512l-3.9,3.5l-3.6-3.5h-16.1c0.2,1.7,0.3,3.4,0.5,5.1h39.7c0.1-1.7,0.3-3.4,0.5-5.1H443.9z"/>
				<path fill="#E24512" d="M421.4,565.8h18.9h0.4h18.9c0,0,0-2.3,0-5.9h-38.3C421.4,563.4,421.4,565.8,421.4,565.8z"/>
				<path fill="#E24512" d="M421.4,555.4h38.3c0-1.6,0-3.3,0-5.1h-38.3C421.4,552,421.4,553.8,421.4,555.4z"/>
				<path fill="#E24512" d="M421.3,536.2h38.5c0-1.8,0-3.5,0.1-5.1h-38.6C421.3,532.7,421.3,534.5,421.3,536.2z"/>
				<path fill="#E24512" d="M461.8,503.7l-7.5-1l-5.4,4.8h12.4C461.6,505.3,461.8,503.7,461.8,503.7z"/>
				<path fill="#39B54A" d="M460.9,512c0.2-1.6,0.3-3.2,0.4-4.4h-12.4l-5,4.4H460.9z"/>
				<path fill="#39B54A" d="M431.8,507.5h-12c0.1,1.3,0.3,2.9,0.4,4.4h16.1L431.8,507.5z"/>
				<path fill="#39B54A" d="M421.1,521.5h39.1c0.1-1.2,0.2-2.8,0.4-4.4h-39.8C420.8,518.7,421,520.3,421.1,521.5z"/>
				<path fill="#39B54A" d="M421.3,531.1h38.6c0-1.6,0.1-3.1,0.1-4.4h-38.7C421.3,528,421.3,529.5,421.3,531.1z"/>
				<path fill="#39B54A" d="M421.4,540.7h38.4c0-1.5,0-3,0-4.4h-38.5C421.4,537.7,421.4,539.2,421.4,540.7z"/>
				<path fill="#39B54A" d="M421.4,550.3h38.3c0-1.4,0-2.9,0-4.4h-38.4C421.4,547.3,421.4,548.8,421.4,550.3z"/>
				<path fill="#39B54A" d="M421.4,559.8h38.3c0-1.3,0-2.8,0-4.4h-38.3C421.4,557,421.4,558.5,421.4,559.8z"/>
			</g>
			<g>
				<path fill="#262626" d="M459.8,558.8c1.4,8.4,1.1,16.8-1.6,45.2c-0.4,3.8,3.6,25.8-0.1,44.8h-13.5c0,0-2.6-17.6-0.5-45
					c0.2-2-0.8-8.6-1.1-10.5c-1-9.8-1-17-1.2-19.2c-0.1-0.4-1.3-0.4-1.4-0.4v-14.9C440.6,558.8,459.8,558.8,459.8,558.8z"/>
			</g>
			<polygon fill="#FDD09E" points="455.4,658.9 455.1,648.8 454.8,658.9 			"/>
			<path fill="#FDD09E" d="M468,565.1c0,0,0.1,1.8-0.8,3.1c-0.8,1.3-0.6,5-0.6,5.8s1.1,1.2,1.4-0.2c0.5-1.9,0.8-3,0.8-3
				s1.4,1.6,1.4,4.2c0,2.7-1.3,4.1,0.2,4.1c1.5-0.1,3.8-1.2,4.6-3.6s-2.8-10.5-2.8-10.5H468z"/>
			<path fill="#39B54A" d="M461.8,503.7c0,0,11.3,6.9,12.3,44.9c0.4,13.9,0.3,17.8,0.3,17.8l-8.3,0.1c0,0-0.6-16.1-1.4-23.6
				c-0.6-6.6-4.6-12.1-4.7-16.3C459.8,522.3,461.8,503.7,461.8,503.7z"/>
			<g>
				<path fill="#515151" d="M450.6,659c-1.3,0-4.4-0.4-4.9-1.3c0,0,0.1-0.9,0.4-2.1c1.1-0.7,2.8-1.1,4.6-1.1s3.6,0.4,4.6,1.1
					c0.1,1.2,0.3,2.1,0.3,2.1C454.8,658.6,451.9,659,450.6,659z"/>
				<path fill="#262626" d="M454.4,649.1L454.4,649.1c0-0.5,0-1-0.3-1.4c-0.7-1-0.6-3.3-0.6-3.3v0.1c0-0.1,0-0.1,0-0.2h-5.9
					c0,0.1,0,0.1,0,0.2v-0.1c0,0,0.2,2.2-0.5,3.2c-0.4,0.7-0.3,1.8-0.1,2.4c-0.3,1.4-0.7,3.8-0.9,5.4c1.1-0.7,2.8-1.1,4.6-1.1
					s3.6,0.4,4.6,1.1C454.9,653.3,454.5,649.8,454.4,649.1z"/>
				<path fill="#262626" d="M450.6,658.6c0,0,3.5,0.1,4.9-0.9v3.2c-0.9,0.5-4.9,0.6-4.9,0.6s-4.1,0-4.9-0.6v-3.2
					C447.1,658.7,450.6,658.6,450.6,658.6z"/>
			</g>
			<g>
				<path fill="#515151" d="M430.3,659c1.3,0,4.4-0.4,4.9-1.3c0,0-0.1-0.9-0.4-2.1c-1.1-0.7-2.8-1.1-4.6-1.1s-3.6,0.4-4.6,1.1
					c-0.1,1.2-0.2,2.1-0.2,2.1C426,658.6,429,659,430.3,659z"/>
				<path fill="#262626" d="M426.4,649.1L426.4,649.1c0-0.5,0-1,0.2-1.4c0.7-1,0.6-3.3,0.6-3.3v0.1c0-0.1,0-0.1,0-0.2h5.9
					c0,0.1,0,0.1,0,0.2v-0.1c0,0-0.2,2.2,0.5,3.2c0.4,0.7,0.3,1.8,0.1,2.4c0.2,1.4,0.7,3.8,0.9,5.4c-1.1-0.7-2.8-1.1-4.6-1.1
					s-3.6,0.4-4.6,1.1C425.9,653.3,426.3,649.8,426.4,649.1z"/>
				<path fill="#262626" d="M430.3,658.6c0,0-3.5,0.1-4.9-0.9v3.2c0.9,0.5,4.9,0.6,4.9,0.6s4.1,0,4.9-0.6v-3.2
					C433.8,658.7,430.3,658.6,430.3,658.6z"/>
			</g>
			<g>
				<path fill="#515151" d="M421.4,558.8c-1.4,8.4-1.4,16.8,1.3,45.2c0.4,3.8-2.4,29.8,1,44.8h12.5c0,0,2.6-17.6,0.5-45
					c-0.2-2,0.8-8.6,1.1-10.5c1-9.8,1-17.1,1.2-19.4c0.1-0.4,1.2-0.2,1.4-0.2l0.1-1.8l-0.1-13.1L421.4,558.8L421.4,558.8z"/>
			</g>
			<path fill="#FDC486" d="M440.6,489.3L440.6,489.3v14.4l0,0c3.7,0,5.8,0,5.8,0l-0.7-15.5L440.6,489.3z"/>
			<path fill="#FDDBAE" d="M440.6,489.3L440.6,489.3v14.4l0,0c-3.7,0-5.8-0.5-5.8-0.5l0.7-15L440.6,489.3z"/>
			<path fill="#FDDBAE" d="M450.3,481.6c0,0-0.2,9.6-1.4,11.6c-0.9,1.6-4.4,3.8-8.4,3.8v-29C440.6,468,452,466.4,450.3,481.6z"/>
			<path fill="#FDDBAE" d="M452.9,484.2c-0.3,2.3-1.4,4.1-2.8,4.1c-2.1,0-1.8-2.2-1.8-4.5c0-2.9,0.8-3.4,2.6-3.4
				C452.4,480.4,453.3,482,452.9,484.2z"/>
			<path fill="#FFE5BA" d="M430.9,481.6c0,0,0.2,9.6,1.4,11.6c0.9,1.6,4.4,3.8,8.4,3.8v-29C440.6,468,429.2,466.4,430.9,481.6z"/>
			<path fill="#FFE5BA" d="M428.3,484.2c0.3,2.3,1.4,4.1,2.8,4.1c2.1,0,1.8-2.2,1.8-4.5c0-2.9-0.8-3.4-2.6-3.4
				C428.8,480.4,427.9,482,428.3,484.2z"/>
			<path fill="#39B54A" d="M454.3,502.7l-5.6-0.8l-8.1-0.4l-8.1,0.4l-5.6,0.8c0,0,0.2,19.6,13.9,19.6
				C453.2,522.3,454.3,502.7,454.3,502.7z"/>
			<path fill="#FFDE17" d="M452.2,463.8c-3.8,2.7-16.8,0-18.6,4.2c-0.1,0.1,0,0.2,0,0.3l0,0c-1.2-0.1-4.1,0-4.5,3.1
				c-0.2,2.3,0.1,4.9,0.6,7.4c0.5,3.1,1.5,4.8,1.5,4.8s0.8-3.9,1-5.2c0.2-1.1,0.5-2.7,0.8-4.4c0.8,0.4,2.9,1.6,7.4,2.2l0,0l0,0
				c2.1,0.3,4.9,0.6,8.1,0.6c0.1,0.6,0.3,1.2,0.3,1.6c0.3,1.3,1,5.2,1,5.2s1.7-2.8,1.7-8c0-1.7,0-2.6,0-2.6l-0.1-0.1
				c0-0.2-0.1-0.5-0.1-0.8C455.1,469.1,452.2,463.8,452.2,463.8z"/>
			<path fill="#F7F7F7" d="M440.6,501.6c0,0,3.6-1.2,5.6-2.4l2.6,2.8l-4.4,6.2L440.6,501.6z"/>
			<path fill="#F7F7F7" d="M440.6,501.6c0,0-3.6-1.2-5.6-2.4l-2.6,2.8l4.4,6.2L440.6,501.6z"/>
			<path fill="#FDD09E" d="M414.3,566.5c0.8,1.3,0.8,4.4,0.8,5.2c0,0.8-1.1,1.2-1.4-0.2c-0.5-1.9-0.8-3-0.8-3s-0.4,1.4-0.4,4
				s0.3,4.4-1.2,4.3c-1.5-0.1-3.8-1.2-4.6-3.6c-0.8-2.3,1.4-6.9,1.4-6.9L414.3,566.5z"/>
		</g>
	</g>
	<g>
		<g>
			<path fill="#6C3F26" d="M740,548.9c0-0.1-0.1-0.2-0.1-0.4c-0.1-9.1,0.4-13.8-0.9-18.6c-0.4-1.5-6.1-2.8-6.1-1.2
				c-0.4,6.8,0,12.7,2.1,20.9c-0.6,9.9,1.5,21.8,1.5,21.8s-0.6,0.9-1.2,3.1c-0.4,1.6-1.2,3.6-0.7,3.8c0.9,0.2,1.2-0.4,2.3-2.4
				c0.1-0.2,0.7-0.7,1.1,0.4c0.6,1.9-0.2,2.6-0.2,3c0,0.5-2.2,4-1.5,4.2c0.8,0.3,2-1.7,2.2-2c1.2-1.9,1.6-3.6,1.6-4
				c0.1-2.3,0.1-5.8,0.1-5.8S740.5,553.4,740,548.9z"/>
			<path fill="#6C3F26" d="M699.3,528.6c-0.1-1.6-5.8-0.2-6.1,1.2c-1.3,4.9-0.7,9.6-0.9,18.9c0,0.1,0.1,0.1,0.1,0.2
				c-1.8,4.8-6.2,21.5-6.2,21.5s-0.9,3.3-1.4,5.6c-0.1,0.4-0.2,2.1,0.4,4.2c0.1,0.4,0.7,2.6,1.6,2.5c0.8-0.1-0.4-4-0.3-4.5
				c0.1-0.4-0.5-1.2,0.6-2.9c0.6-0.9,1.1-0.2,1.1-0.1c0.6,2.2,0.6,2.9,1.6,2.9c0.6,0,0.3-2.2,0.4-3.9c0.1-2.3-0.3-3.3-0.3-3.3
				s5.3-10.9,7.3-20.6c0.1-0.2,0.1-0.6,0-0.9l0.1-0.1C699.3,541.3,699.8,535.5,699.3,528.6z"/>
			<path fill="#39B54A" d="M737.6,520.5c-1.8-3.3-5.9-3.9-8.9-4.7l0,0l-6.7-0.9h-5.9h-5.9l-6.7,0.9c-3,0.7-7.2,1.3-8.9,4.7
				c-0.7,1.3-2.6,6.7-2.6,16.6h7.3l0.9-6.1h0.8c-0.5,2.7-0.8,4.8,0.8,7.2c0.5,0.8,1.3,1.3,2.2,1.7l0.9,11.9h11.1h11.1l0.9-11.9
				c0.9-0.4,1.8-0.9,2.2-1.7c1.6-2.4,1.2-4.6,0.8-7.2h0.7l0.9,6.1h7.3C740.1,527.1,738.3,521.8,737.6,520.5z"/>
			<path fill="#262626" d="M726.5,488.9c0,0,6.6,7.7,2.3,13.4c0,0,4.4,2.7,0.5,6.6c0,0-0.3,6.1-7.3,5.1c-2.9-0.4-3.5-9.6-2.8-11.4
				C719.8,500.9,723.1,488,726.5,488.9z"/>
			<path fill="#7B533C" d="M716.1,505.1v9.4l0,0v5.2c0,0,5.9-1.2,5.9-5.2v-9.4H716.1z"/>
			<path fill="#FDD09E" d="M713.9,649.3c-0.6-0.9-0.3-4.9-0.3-4.9l-1,5.6l-3.9-5.6c0,0,0.2,4.1-0.3,4.9c-0.5,0.9,0,2.6,0,2.6l2.8,3
				l2.8-3C713.9,651.9,714.4,650.2,713.9,649.3z"/>
			<polygon fill="#FDD09E" points="716.4,575.3 716.1,565.3 715.8,575.3 			"/>
			<path fill="#39B54A" d="M713.9,651.9c0,0-1.2-0.9-2.8-0.9c-1.4,0-2.8,0.9-2.8,0.9c-0.4,2-1.1,6.4-1.1,6.4
				c1.1,1.9,3.9,1.7,3.9,1.7s2.8,0.2,3.9-1.7C715,658.3,714.3,653.9,713.9,651.9z"/>
			<path fill="#FDC486" d="M718.4,649.5c0.5-0.9,0.3-4.9,0.3-4.9l1,5.6l3.9-5.6c0,0-0.2,4.1,0.3,4.9c0.5,0.9,0,2.6,0,2.6l-2.8,3
				l-2.8-3C718.4,652.1,717.8,650.4,718.4,649.5z"/>
			<g>
				<path fill="#6C3F26" d="M715.8,575.3l0.3-10.1l-0.4-11.8h-12.8c0,0-7.6,2.2-1.1,38.5c1.4,7.6,3.3,10.9,4.3,15.8
					c1.2,6-0.2,10.2,0.1,15.6c0.7,12.2,2.7,24.9,3.4,29h3c0.6-4.4,2.6-18.8,2.6-29c0-5.3-0.7-7.5-0.7-14.9c0-6.8,1.1-12.5,1.1-17.9
					c0-9.9-0.3-9.1-0.2-15.3h0.5L715.8,575.3L715.8,575.3z"/>
				<path fill="#6C3F26" d="M730.3,592.3c6.5-36.3-1.1-38.5-1.1-38.5h-12.8l-0.4,11.8l0.3,10.1h0.5c0,6.2-0.2,5.4-0.2,15.3
					c0,5.4,1.1,11.2,1.1,17.9c0,7.4-0.8,9.6-0.8,14.9c0,10.2,1.9,24.5,2.6,29h3c0.7-4.1,2.7-16.8,3.4-29c0.3-5.4-1.2-9.6,0.1-15.6
					C727,603.1,728.9,599.9,730.3,592.3z"/>
			</g>
			<path fill="#39B54A" d="M718.4,652.1c0,0,1.2-0.9,2.8-0.9c1.4,0,2.8,0.9,2.8,0.9c0.4,2,1.1,6.4,1.1,6.4c-1.1,1.9-3.9,1.7-3.9,1.7
				s-2.8,0.2-3.9-1.7C717.3,658.6,718,654.1,718.4,652.1z"/>
			<g>
				<g>
					<path fill="#E24512" d="M707.2,658.3v2.4c0.7,0.4,3.9,0.4,3.9,0.4s3.2,0,3.9-0.4v-2.4c0,0-1.1,0.6-3.9,0.6
						C708.3,659,707.2,658.3,707.2,658.3z"/>
					<path fill="#E24512" d="M721.1,659.2c-2.8,0-3.9-0.6-3.9-0.6v2.4c0.7,0.4,3.9,0.4,3.9,0.4s3.2,0,3.9-0.4v-2.4
						C725,658.6,723.9,659.2,721.1,659.2z"/>
				</g>
			</g>
			<path fill="#262626" d="M705.1,488.9c-2.9,1.8-6.6,7.7-2.3,13.4c0,0-4.4,2.7-0.5,6.6c0,0,0.3,6.1,7.3,5.1
				c2.9-0.4,3.5-9.6,2.8-11.4C711.8,500.9,708.1,487,705.1,488.9z"/>
			<path fill="#A8A8A8" d="M723.7,491.7c0,0,0.4,5.2,0.7,5.9c0.1,0.3,0.4-2.2,0.5-2.6C724.9,494.6,726,490.9,723.7,491.7z"/>
			<path fill="#929292" d="M707.9,491.7c0,0-0.4,5.2-0.7,5.9c-0.1,0.3-0.4-2.2-0.5-2.6C706.6,494.6,705.6,490.9,707.9,491.7z"/>
			<path fill="#88634F" d="M716.1,505.1h-5.9v9.4c0,4,5.9,5.2,5.9,5.2v-5.2l0,0V505.1z"/>
			<path fill="#7B533C" d="M726.2,495.2c-0.3,0-0.7,0.3-1.1,0.6c0-0.5,0.1-0.9,0.1-1.4c0.1-2.3,0.6-8.3-5.2-8.3c-3.6,0-3.8,0-3.8,0
				s-0.3,0-3.8,0c-5.8,0-5.2,6.1-5.2,8.3c0,0.4,0.1,0.9,0.1,1.4c-0.4-0.3-0.7-0.6-1.1-0.6c-0.7,0-1.2,1.3-1.2,1.9
				c-0.1,0.8,0.9,3.8,1.1,4.2c0.1,0.4,0.9,1.1,1.4,0.4c0.1-0.1,0.1-0.2,0.1-0.2c0.1,0.9,0.1,1.9,0.1,2.8c0,3.7,3.2,4.6,4.2,5.6
				c1.7,1.7,4.3,1.5,4.3,1.5s2.7,0.2,4.3-1.5c1-1,4.2-1.9,4.2-5.6c0-0.9,0-1.9,0.1-2.8c0.1,0.1,0.1,0.2,0.1,0.2
				c0.5,0.7,1.2-0.1,1.4-0.4c0.1-0.4,1.2-3.4,1.1-4.2C727.3,496.5,726.9,495.2,726.2,495.2z"/>
			<path fill="#39B54A" d="M727.3,547.6l-13.3,2.3l-8.9-2.3c-12.4,10.4-8.1,75.8-8.1,75.8s4.1,0,13.8,0c1.6,0,3.4,0,5.4,0
				c11,0,19.2,0,19.2,0S739.7,558,727.3,547.6z M716.1,550.5L716.1,550.5L716.1,550.5L716.1,550.5z"/>
			<g>
				<path fill="#262626" d="M720.7,481.7c-1.2,0.2-2.6,0.4-3.8,0.6v6.1c3.7,0.8,7.6,1.3,8.4,0.2
					C727.1,486.5,726.9,480.8,720.7,481.7z"/>
				<path fill="#262626" d="M709.3,486.5c0,0,3.8,1.2,7.6,2.1v-6.1C712.1,483.3,708.2,484.7,709.3,486.5z"/>
			</g>
			<path fill="#262626" d="M707.5,495.6c0,0,2.2-3.6,2.8-6.2c0.5-2.4-1-3.7-1-3.7s-8.2,0.4-1.8,11.8L707.5,495.6z"/>
			<path fill="#262626" d="M724.8,495.6c0,0-2.2-3.6-2.8-6.2c-0.5-2.4,1-3.7,1-3.7s8.2,0.4,1.8,11.8L724.8,495.6z"/>
			<rect x="704.2" y="544.6" fill="#E24512" width="23.9" height="3.6"/>
			<circle fill="#E24512" cx="706.9" cy="501" r="0.5"/>
			<circle fill="#E24512" cx="725.4" cy="501" r="0.5"/>
		</g>
		<g>
			<g>
				<path fill="#515151" d="M620.9,659.3c-1.1,0-3.9-0.3-4.3-1.2c0,0,0.1-0.8,0.3-1.8c1-0.6,2.4-1,4.1-1s3.1,0.4,4.1,1
					c0.1,1.1,0.2,1.8,0.2,1.8C624.7,659,622.1,659.3,620.9,659.3z"/>
				<path fill="#262626" d="M624.3,650.6L624.3,650.6c0-0.4,0-0.9-0.3-1.2c-0.6-0.9-0.5-2.9-0.5-2.9v0.1c0-0.1,0-0.1,0-0.2h-5.3
					c0,0.1,0,0.1,0,0.2v-0.1c0,0,0.1,2-0.4,2.9c-0.4,0.6-0.2,1.6-0.1,2.1c-0.2,1.2-0.6,3.2-0.9,4.8c1-0.6,2.4-1,4.1-1s3.1,0.4,4.1,1
					C624.8,654.3,624.4,651.2,624.3,650.6z"/>
				<path fill="#262626" d="M620.9,659c0,0,3.1,0.1,4.3-0.8v2.8c-0.8,0.4-4.3,0.5-4.3,0.5s-3.6,0-4.3-0.5v-2.8
					C617.9,659,620.9,659,620.9,659z"/>
			</g>
			<g>
				<path fill="#515151" d="M603.1,659.3c1.1,0,3.9-0.3,4.3-1.2c0,0-0.1-0.8-0.3-1.8c-1-0.6-2.4-1-4.1-1c-1.6,0-3.1,0.4-4.1,1
					c-0.1,1.1-0.3,1.8-0.3,1.8C599.4,659,602,659.3,603.1,659.3z"/>
				<path fill="#262626" d="M599.8,650.6L599.8,650.6c0-0.4,0-0.9,0.2-1.2c0.6-0.9,0.5-2.9,0.5-2.9v0.1c0-0.1,0-0.1,0-0.2h5.2
					c0,0.1,0,0.1,0,0.2v-0.1c0,0-0.1,2,0.4,2.9c0.4,0.6,0.3,1.6,0.1,2.1c0.3,1.2,0.6,3.2,0.9,4.8c-1-0.6-2.4-1-4.1-1
					c-1.6,0-3.1,0.4-4.1,1C599.3,654.3,599.6,651.2,599.8,650.6z"/>
				<path fill="#262626" d="M603.1,659c0,0-3.1,0.1-4.3-0.8v2.8c0.8,0.4,4.3,0.5,4.3,0.5s3.6,0,4.3-0.5v-2.8
					C606.2,659,603.1,659,603.1,659z"/>
			</g>
			<g>
				<path fill="#515151" d="M595.4,571.1c-1.2,7.4-1.2,14.8,1.2,39.8c0.3,3.3-2.1,26.1,0.9,39.3h11c0,0,2.3-15.5,0.4-39.6
					c-0.1-1.8,0.8-7.5,0.9-9.2c0.9-8.6,0.9-15.1,1.1-17c0-0.3,1.1-0.2,1.2-0.2l0.1-1.6l-0.1-11.4L595.4,571.1L595.4,571.1z"/>
			</g>
			<g>
				<path fill="#262626" d="M629,571.1c1.2,7.4,0.9,14.8-1.4,39.8c-0.3,3.3,3.2,22.6-0.1,39.3h-11.9c0,0-2.3-15.5-0.4-39.6
					c0.1-1.8-0.8-7.5-0.9-9.2c-0.9-8.6-0.9-14.9-1.1-16.9c0-0.3-1.1-0.3-1.2-0.3v-13.1C612.2,571.1,629,571.1,629,571.1z"/>
			</g>
			<path fill="#009ED4" d="M626,538.3c0.6,1.9,3.3,1.9,5.4,1.7c0.1,0.8,0.2,1.7,0.4,2.8l8.4-6.2c-0.9-2.8-3.8-10.2-7.9-13.6
				c-2.3-1.9-4.1-0.3-4.2,1.1c0,0-1.4,6.4-0.1,10.8C627.9,535,625.9,538.2,626,538.3z"/>
			<path fill="#6C3F26" d="M646.6,580c0,0,1.4-21.7-2.9-26.7c-0.1-0.1-0.3-0.2-0.5-0.3c0.3-2.6,0.4-5.6-0.1-8.6
				c-0.6-2.8-1.3-5.9-2.9-7.7c0-0.1-0.1-0.2-0.1-0.2l-8.4,6.2c0.6,4.1,2.1,9.8,5.3,11.2c0.1,0,0.1,0.1,0.2,0.1
				c-0.1,0.1-0.1,0.1-0.1,0.2c-0.6,6.4,3.2,14.9,5.6,23.2c0.2,0.7-1.8,0.9-1.5,3.1c0.4,3-0.2,6.2,0.3,6.4c0.7,0.4,1.1-0.1,1.5-2.1
				c0.1-0.4,0.9-0.6,1-0.2c0.2,1.1,0.4,2.5,0.4,2.9c0,0.4-2.6,4.3-1.6,4.9c0.7,0.4,2.6-2.6,2.7-2.9c1-1.8,1.4-3,1.4-3.4
				C647.1,585.8,646.6,580,646.6,580z"/>
			<path fill="#6C3F26" d="M592.1,542.8l-8.9-5.4c0,0.1-0.1,0.2-0.1,0.2c-1.4,2-1.9,5.2-2.2,8c-0.2,2.9,0.2,6,0.8,8.5
				c-0.2,0.1-0.4,0.2-0.5,0.4c-3.8,5.4-0.2,26.8-0.2,26.8s0.1,5.8,0.2,6.2c0.1,0.4,0.6,1.6,1.8,3.3c0.2,0.3,2.3,3.1,3,2.6
				c1.1-0.8-1.4-4-1.4-4.5c-0.1-0.4-0.1-1.4,0-2.4c0.1-0.4,0.4-1.1,0.6-0.7c1.1,3.9,1.6,3.1,2.3,2.6c0.5-0.3-1.1-4.2-1-7.2
				c0.1-2.1-1.9-2.1-1.8-2.9c1.6-8.4,4.5-17.3,3.2-23.6c0-0.1-0.1-0.1-0.1-0.1c0.1-0.1,0.2-0.1,0.2-0.2
				C591,552.8,591.9,547,592.1,542.8z"/>
			<path fill="#6DCEF5" d="M628.7,542.2l0.2-3.2c-0.2-1.8-0.4-3.9-0.4-6.1c0-4.4,0.6-8.4,1.6-10.8l-18.1-1.8l-18.1,1.8
				c0,0-3.6,0.6-5.4,2c-4.2,3.3-4.6,10.4-5.3,13.3l8.9,5.4c0.1-1.1,0.1-2.1,0.1-2.8c0.1,0,0.1,0,0.2,0l1.2,12.8l0.1,23.9h18h0.3
				h18.1L628.7,542.2z"/>
			<g>
				<path fill="#6C3F26" d="M612,511.8v12v4.9l0,0c2.7,0,5.8-2.2,5.8-4.9l-0.9-11.9H612z"/>
				<path fill="#7B533C" d="M612,511.8v12v4.9l0,0c-2.7,0-5.8-2.2-5.8-4.9l0.9-11.9H612z"/>
				<path fill="#6C3F26" d="M621.1,503.8c-0.2,0-0.4,0-0.5,0c0.8-12.2-8.6-10.9-8.6-10.9s-9.4-1.2-8.6,10.9c-0.2,0-0.3,0-0.5,0
					c-1.2,0-2,1.4-1.7,3.4c0.3,2.1,1.2,3.6,2.5,3.6c0.1,0,0.1,0,0.1,0c0.2,1.9,0.4,3.6,0.9,4.3c0.9,1.4,3.9,3.3,7.4,3.3
					c3.5,0,6.5-1.9,7.4-3.3c0.4-0.7,0.7-2.4,0.9-4.3c0.1,0,0.1,0,0.1,0c1.2,0,2.2-1.6,2.5-3.6C623.1,505.1,622.4,503.8,621.1,503.8z
					"/>
				<g>
					<g>
						<g>
							<path fill="#262626" d="M621.8,499.6c0,4.6-1.6,7-1.6,7s-0.6-3.5-0.9-4.6c-0.4-2-1.2-6.3-0.6-8.1l3.1,3.4
								C621.8,497.3,621.8,498.1,621.8,499.6z"/>
						</g>
						<path fill="#262626" d="M621.8,497.7c0-3.5-3.2-6.3-7.2-6.3h-3.1l0.4,8.6c1.9,0.3,4.6,0.5,7.6,0.5c2.4,0,2.2-2.4,2.2-2.4
							C621.7,498,621.8,497.9,621.8,497.7z"/>
						<path fill="#262626" d="M611.9,491.4h-2.4c-3.8,0-7.2,6.7-7.2,8.2c0,4.6,1.6,7,1.6,7s0.6-3.5,0.9-4.6c0.2-0.9,0.4-2.4,0.6-3.9
							c0.6,0.4,2.6,1.4,6.6,1.9V491.4z"/>
					</g>
					<path fill="#262626" d="M606.4,493.3c0,0-4.1-0.8-4.4,2.7s0.8,8.1,1.9,10.6C603.8,506.6,604.4,494,606.4,493.3z"/>
					<path fill="#262626" d="M605.6,492.9c1.5-3.8,13-1.4,16.3-3.8c0,0,3,5.4-1.5,8.1C620.4,497.2,604.7,495.3,605.6,492.9z"/>
				</g>
			</g>
		</g>
		<g>
			<g>
				<path fill="#515151" d="M667.9,659c-1.3,0-4.4-0.4-4.9-1.3c0,0,0.1-0.9,0.4-2.1c1.1-0.7,2.8-1.1,4.6-1.1s3.6,0.4,4.6,1.1
					c0.1,1.2,0.2,2.1,0.2,2.1C672.1,658.6,669.1,659,667.9,659z"/>
				<path fill="#262626" d="M671.6,649.1L671.6,649.1c0-0.5,0-1-0.2-1.4c-0.7-1-0.6-3.3-0.6-3.3v0.1c0-0.1,0-0.1,0-0.2h-5.9
					c0,0.1,0,0.1,0,0.2v-0.1c0,0,0.2,2.2-0.5,3.2c-0.4,0.7-0.3,1.8-0.1,2.4c-0.3,1.4-0.7,3.8-0.9,5.4c1.1-0.7,2.8-1.1,4.6-1.1
					s3.6,0.4,4.6,1.1C672.3,653.3,671.8,649.8,671.6,649.1z"/>
				<path fill="#262626" d="M667.9,658.6c0,0,3.5,0.1,4.9-0.9v3.2c-0.9,0.5-4.9,0.6-4.9,0.6s-4.1,0-4.9-0.6v-3.2
					C664.4,658.7,667.9,658.6,667.9,658.6z"/>
			</g>
			<g>
				<path fill="#515151" d="M647.6,659c1.3,0,4.4-0.4,4.9-1.3c0,0-0.1-0.9-0.4-2.1c-1.1-0.7-2.8-1.1-4.6-1.1s-3.6,0.4-4.6,1.1
					c-0.1,1.2-0.2,2.1-0.2,2.1C643.3,658.6,646.3,659,647.6,659z"/>
				<path fill="#262626" d="M643.8,649.1L643.8,649.1c0-0.5,0-1,0.3-1.4c0.7-1,0.6-3.3,0.6-3.3v0.1c0-0.1,0-0.1,0-0.2h5.9
					c0,0.1,0,0.1,0,0.2v-0.1c0,0-0.2,2.2,0.5,3.2c0.4,0.7,0.3,1.8,0.1,2.4c0.2,1.4,0.7,3.8,0.9,5.4c-1.1-0.7-2.8-1.1-4.6-1.1
					s-3.6,0.4-4.6,1.1C643.1,653.3,643.6,649.8,643.8,649.1z"/>
				<path fill="#262626" d="M647.6,658.6c0,0-3.5,0.1-4.9-0.9v3.2c0.9,0.5,4.9,0.6,4.9,0.6s4.1,0,4.9-0.6v-3.2
					C651,658.7,647.6,658.6,647.6,658.6z"/>
			</g>
			<path fill="#6C3F26" d="M686.3,565.8c0,0-1.4,1.8-2.2,3.1c-0.8,1.3-0.6,5-0.6,5.8c0,0.8,1.1,1.2,1.4-0.2c0.5-1.9,0.8-3,0.8-3
				s1.4,1.6,1.4,4.2c0,2.7-1.3,4.1,0.2,4.1c1.5-0.1,3.8-1.2,4.6-3.6c0.8-2.3-2.8-10.5-2.8-10.5H686.3z"/>
			<polygon fill="#E6E7E8" points="684.3,565.8 684.3,567.7 690.9,567.7 690.9,565.4 			"/>
			<g>
				<path fill="#515151" d="M657.3,559.6c-7.9,0-17.9-0.9-17.9-0.9c-1.4,8.4-1.9,16.8,0.8,45.2c0.4,3.8-2.4,29.8,1,44.8h12.5
					c0,0,2.6-17.6,0.5-45c-0.2-2,0.8-8.6,1.1-10.5c1-9.8,1-17.1,1.2-19.4c0.1-0.4,1.2-0.2,1.4-0.2l0.1-1.8v-12.2
					C657.6,559.6,657.4,559.6,657.3,559.6z"/>
			</g>
			<path fill="#EC1E24" d="M679.1,503.7c0,0,11.3,6.9,12.3,44.9c0.4,13.9,0.3,17.8,0.3,17.8l-8.3,0.1c0,0-0.6-16.1-1.4-23.6
				c-0.6-6.6-6.9-20.4-6.9-20.4L679.1,503.7z"/>
			<g>
				<path fill="#262626" d="M658.2,559.6c7.9,0,17.9-0.9,17.9-0.9c1.4,8.4,1.9,16.8-0.8,45.2c-0.4,3.8,3.6,25.8-0.1,44.8h-13.5
					c0,0-2.6-17.6-0.5-45c0.2-2-0.8-8.6-1.1-10.5c-1-9.8-1-17-1.2-19.2c-0.1-0.4-1.3-0.4-1.4-0.4v-14
					C657.9,559.6,658.1,559.6,658.2,559.6z"/>
			</g>
			<path fill="#EC1E24" d="M679.1,503.7l-7.5-1L657.9,526l-0.2,39.8H677c0,0,2.5-33.6,2.8-45.2C679.9,516.7,679.1,503.7,679.1,503.7
				z"/>
			<path fill="#6C3F26" d="M657.9,489.3L657.9,489.3v14.4l0,0c3.7,0,5.8,0,5.8,0l-0.7-15.5L657.9,489.3z"/>
			<path fill="#896551" d="M657.9,489.3L657.9,489.3v14.4l0,0c-3.7,0-5.7-0.5-5.7-0.5l0.7-15L657.9,489.3z"/>
			<path fill="#7B533C" d="M668.3,480.4c-0.2,0-0.4,0-0.6,0c0.9-13.9-9.8-12.4-9.8-12.4s-10.7-1.4-9.8,12.4c-0.2,0-0.4,0-0.6,0
				c-1.4,0-2.2,1.6-1.9,3.9c0.3,2.3,1.4,4.1,2.8,4.1c0.1,0,0.1,0,0.1,0c0.2,2.1,0.5,4.1,1,4.9c0.9,1.6,4.4,3.8,8.4,3.8
				c4,0,7.4-2.1,8.4-3.8c0.5-0.8,0.7-2.8,1-4.9c0.1,0,0.1,0,0.1,0c1.4,0,2.5-1.8,2.8-4.1C670.6,482,669.8,480.4,668.3,480.4z"/>
			<polygon fill="#39B54A" points="657.9,501.6 657.9,526 671.6,502.7 666,502 			"/>
			<path fill="#6C3F26" d="M629.5,565.8c0,0,1.4,1.8,2.2,3.1c0.8,1.3,0.6,5,0.6,5.8c0,0.8-1.1,1.2-1.4-0.2c-0.5-1.9-0.8-3-0.8-3
				s-1.4,1.6-1.4,4.2c0,2.7,1.3,4.1-0.2,4.1c-1.5-0.1-3.8-1.2-4.6-3.6c-0.8-2.3,2.8-10.5,2.8-10.5H629.5z"/>
			<polygon fill="#E6E7E8" points="631.5,565.8 631.5,567.7 624.8,567.7 624.8,565.4 			"/>
			<path fill="#EC1E24" d="M636.7,503.7c0,0-11.3,6.9-12.3,44.9c-0.4,13.9-0.3,17.8-0.3,17.8l8.3,0.1c0,0,0.6-16.1,1.4-23.6
				c0.6-6.6,6.9-20.4,6.9-20.4L636.7,503.7z"/>
			<path fill="#EC1E24" d="M636.7,503.7l7.5-1l13.7,23.2l0.2,39.8h-19.3c0,0-2.5-33.6-2.8-45.2C635.9,516.7,636.7,503.7,636.7,503.7
				z"/>
			<polygon fill="#39B54A" points="657.9,501.6 657.9,526 644.2,502.7 649.8,502 			"/>
			<path fill="#F7F7F7" d="M657.9,501.6c0,0,3.6-1.2,5.6-2.4l2.6,2.8l-4.4,6.2L657.9,501.6z"/>
			<path fill="#F7F7F7" d="M657.9,501.6c0,0-3.6-1.2-5.6-2.4l-2.6,2.8l4.4,6.2L657.9,501.6z"/>
			<g>
				<path fill="#929292" d="M654.3,479.8c-1.5,0-2.7,1.2-2.7,2.7s1.2,2.7,2.7,2.7c1.5,0,2.7-1.2,2.7-2.7
					C657.1,481,655.8,479.8,654.3,479.8z"/>
				<path fill="#929292" d="M661.8,479.8c-1.5,0-2.7,1.2-2.7,2.7s1.2,2.7,2.7,2.7s2.7-1.2,2.7-2.7
					C664.4,481,663.3,479.8,661.8,479.8z"/>
				<path fill="#1C1C1C" d="M664.8,482.1c-0.2-1.5-1.4-2.6-3-2.6c-1.7,0-3,1.4-3.1,3h-1.3c0-1.7-1.4-3-3.1-3c-1.6,0-2.8,1.2-3,2.6
					l-2.3-2.9l-0.2,0.2l2.5,3.1c0.1,1.6,1.4,3,3.1,3c1.6,0,2.8-1.2,3-2.8h1.4v-0.2c0.1,1.7,1.4,3,3.1,3c1.7,0,3-1.3,3.1-3l2.2-2.7
					l-0.2-0.2L664.8,482.1z M654.3,485.2c-1.5,0-2.7-1.2-2.7-2.7s1.2-2.7,2.7-2.7c1.5,0,2.7,1.2,2.7,2.7
					C657.1,484,655.8,485.2,654.3,485.2z M661.8,485.2c-1.5,0-2.7-1.2-2.7-2.7s1.2-2.7,2.7-2.7s2.7,1.2,2.7,2.7
					C664.4,484,663.3,485.2,661.8,485.2z"/>
			</g>
			<path fill="#262626" d="M668.4,489.3c0-0.4-0.3-0.7-0.5-1c-0.2-0.2-0.7-0.9-0.8-1.1c0,0.2,0.4,1.6-0.4,2.4
				c-0.2,0.2-0.2,0.9-0.4,1.1c-0.1,0.2-0.1,0.5-0.1,0.8c0,0.4,0,0.8-0.2,1.1c-0.3,0.2-0.6,0.4-1,0.4c-0.3,0.1-0.6,0.1-0.8,0.2
				c-0.2,0.1-0.3,0.4-0.4,0.7c-0.1,0.4-0.3,0.8-0.6,0.9c-0.1,0.1-0.3,0.1-0.5,0.1c-0.2,0-0.4-0.1-0.6-0.1c-0.3-0.1-0.6-0.1-0.8,0
				c-0.2,0.1-0.4,0.3-0.6,0.6c-0.2,0.3-0.5,0.6-0.9,0.7c-0.1,0-0.1,0-0.1,0c-0.3,0-0.6-0.2-0.9-0.3c-0.2-0.1-0.5-0.2-0.7-0.3l0,0
				l0,0l0,0l0,0l0,0l0,0c-0.2,0-0.5,0.1-0.8,0.3c-0.3,0.2-0.6,0.3-0.9,0.3c-0.1,0-0.1,0-0.1,0c-0.4-0.1-0.6-0.4-0.9-0.7
				c-0.2-0.2-0.4-0.4-0.6-0.6c-0.2-0.1-0.5,0-0.8,0c-0.2,0.1-0.4,0.1-0.6,0.1c-0.2,0-0.4-0.1-0.5-0.1c-0.3-0.2-0.4-0.6-0.6-0.9
				c-0.1-0.2-0.2-0.6-0.4-0.7s-0.5-0.2-0.7-0.2c-0.4-0.1-0.8-0.1-1-0.4c-0.2-0.2-0.2-0.7-0.2-1.1c0-0.3,0-0.6-0.1-0.8
				c-0.1-0.2-0.1-0.9-0.4-1.1c-0.9-0.8-0.4-2.1-0.4-2.4c-0.1,0.2-0.6,0.9-0.8,1.1c-0.3,0.3-0.5,0.6-0.5,1s0.2,0.7,0.5,1
				c0.2,0.2,0.4,0.4,0.4,0.7s-0.1,0.5-0.2,0.8c-0.1,0.4-0.3,0.8-0.1,1.1c0.1,0.3,0.5,0.6,0.8,0.8c0.2,0.1,0.5,0.3,0.6,0.5
				c0.1,0.2,0.1,0.5,0.1,0.8c0,0.4,0,0.8,0.2,1.1c0.3,0.2,0.6,0.4,1,0.4c0.3,0.1,0.6,0.1,0.8,0.2c0.2,0.1,0.3,0.4,0.4,0.7
				c0.1,0.4,0.3,0.8,0.6,0.9c0.1,0.1,0.3,0.1,0.5,0.1c0.2,0,0.4-0.1,0.6-0.1c0.3-0.1,0.6-0.1,0.8,0c0.2,0.1,0.4,0.3,0.6,0.6
				c0.2,0.3,0.5,0.6,0.9,0.7c0.1,0,0.1,0,0.1,0c0.3,0,0.6-0.2,0.9-0.3c0.2-0.1,0.5-0.3,0.7-0.3c0.2,0,0.5,0.1,0.8,0.3
				c0.3,0.2,0.6,0.3,0.9,0.3c0.1,0,0.1,0,0.1,0c0.4-0.1,0.6-0.4,0.9-0.7c0.2-0.2,0.4-0.4,0.6-0.6c0.2-0.1,0.5,0,0.8,0
				c0.2,0.1,0.4,0.1,0.6,0.1c0.2,0,0.4-0.1,0.5-0.1c0.3-0.2,0.4-0.6,0.6-0.9c0.1-0.2,0.2-0.6,0.4-0.7s0.5-0.2,0.7-0.2
				c0.4-0.1,0.8-0.1,1-0.4c0.2-0.2,0.2-0.7,0.2-1.1c0-0.3,0-0.6,0.1-0.8c0.1-0.2,0.4-0.4,0.6-0.5c0.3-0.2,0.7-0.4,0.8-0.8
				c0.1-0.3,0-0.7-0.1-1.1c-0.1-0.3-0.2-0.6-0.2-0.8c0.1-0.2,0.2-0.4,0.4-0.7C668.1,490,668.4,489.7,668.4,489.3z"/>
			<path fill="#262626" d="M670.6,471c0-0.2,0-0.4-0.1-0.6c-0.2-1.4-1-1.9-2.1-2.6c0.4-0.6,0.5-1.4,0.4-2.1c-0.9,0-1.8,0-2.6,0
				c0.3-0.4,0.4-0.9,0.3-1.4c-1.3-0.1-2.6,0-3.9,0.3c0.1-0.6-0.4-1.1-1.1-1.3c-1.6-0.4-3.2,0.5-4.7,0.9c-0.7,0.2-4.4-0.4-4.2,0.9
				c-0.4-0.2-0.8-0.4-1.2-0.4c-0.4-0.1-0.9,0.1-1.2,0.4c-0.1,0.1-0.1,0.2-0.2,0.2c-0.1,0.1-0.2,0.1-0.4,0.1
				c-0.6,0.1-1.1,0.9-0.9,1.5c0.1-0.2-0.2-0.4-0.4-0.4c-1.3-0.1-2.8,2.3-2.8,3.4c0,0.9,0,1.7,0,2.6c0,0.2,0,0.4-0.1,0.6
				c-0.1,0.2-0.2,0.3-0.4,0.5c-0.4,0.6-0.1,1.5,0.5,1.8c-0.8,1.9,0.2,3,1,4.5c0.2,0.4,1.2,2.5,1.1,2.9c0,0,0.1-0.2,0.1-0.4
				c0.2,0.4,0.4,0.9,0.6,1.2c0,0-0.1-2.5,0.7-5.6c0.3-1.2,1.4-2.8,2.1-4.2c1.2,0.5,3.2,1.1,6,1.5c2.1,0.3,5,0.6,8.2,0.6
				c0.1,0.1,0.1,0.1,0.1,0.2c0.1,0.6,0.2,1.1,0.3,1.5c0.2,1.4,1,5.4,1,5.4s0.1-0.2,0.2-0.5c0.1,0.8,0.1,1.3,0.1,1.3
				c0.5-1.2,0.6-3.2,1.5-4.2c0.9-0.9,2-0.8,2.6-2.2c0.4-0.9,0.2-2.1-0.2-2.9c-0.1-0.2-0.3-0.4-0.4-0.7c-0.1-0.2-0.1-0.4-0.1-0.6
				C670.6,472.4,670.6,471.7,670.6,471z"/>
		</g>
		<g>
			<path fill="#6C3F26" d="M752.2,519.9v8.3l0,0v4.6c0,0,5.2-1.1,5.2-4.6v-8.3H752.2z"/>
			<path d="M763.4,522c1.5-2.4,2.2-5.8,2.2-8.7c0-7.4-6-13.4-13.4-13.4c-7.4,0-13.4,6-13.4,13.4c0,2.9,0.8,6.3,2.2,8.7
				c-0.1,1.5-0.6,3.4,0.7,5.3c-0.4,0.6-0.6,1.4-0.4,2.3c0.3,1.6,1.5,2.5,2,3.3c0.5,0.8,0.1,2.3,0.1,2.3s4.1-3.2,3.1-6.6
				c-0.3-0.8-0.6-1.3-0.9-1.7c0.4-0.6,0.6-1.3,0.6-2.2c0.7-1.2,3.1-5.8,5.1-5.8c0.3,0,0.7,0.1,1.1,0.3c0.4-0.2,0.7-0.3,1.1-0.3
				c2,0,4.4,4.6,5.1,5.8c0,0.9,0.2,1.6,0.6,2.2c-0.4,0.4-0.7,0.9-0.9,1.7c-1,3.3,3.1,6.6,3.1,6.6s-0.4-1.5,0.1-2.3
				c0.5-0.8,1.8-1.7,2-3.3c0.2-0.9-0.1-1.7-0.4-2.3C763.9,525.4,763.4,523.5,763.4,522z"/>
			<path fill="#7B533C" d="M761.1,511.1c-0.2,0-0.6,0.3-0.9,0.6c0-0.4,0.1-0.9,0.1-1.2c0.1-2,0.5-7.4-4.6-7.4c-3.1,0-3.4,0-3.4,0
				s-0.2,0-3.4,0c-5.1,0-4.6,5.4-4.6,7.4c0,0.4,0,0.8,0.1,1.2c-0.3-0.3-0.7-0.6-0.9-0.6c-0.6,0-1,1.1-1.1,1.7
				c-0.1,0.6,0.8,3.4,0.9,3.7c0.1,0.3,0.8,0.9,1.2,0.4c0.1-0.1,0.1-0.1,0.1-0.2c0.1,0.8,0.1,1.6,0.1,2.4c0,3.2,2.9,4.1,3.8,5
				c1.5,1.5,3.8,1.3,3.8,1.3s2.4,0.2,3.8-1.3c0.9-0.9,3.8-1.8,3.8-5c0-0.8,0-1.6,0.1-2.4c0.1,0.1,0.1,0.2,0.1,0.2
				c0.4,0.6,1.1-0.1,1.2-0.4c0.1-0.3,1.1-3,0.9-3.7C762.1,512.3,761.7,511.1,761.1,511.1z"/>
			<path fill="#FFDE17" d="M743.3,531.5c-0.9,0.1-1.9,1.2-1.6,2.7c0.2,1.3,1.2,2.1,1.7,2.7c0.4,0.7,0.1,1.9,0.1,1.9s3.4-2.7,2.6-5.4
				C745.4,531.5,744.2,531.4,743.3,531.5z"/>
			<path fill="#FFDE17" d="M761.1,531.5c0.9,0.1,1.9,1.2,1.6,2.7c-0.2,1.3-1.2,2.1-1.6,2.7c-0.4,0.7-0.1,1.9-0.1,1.9
				s-3.4-2.7-2.6-5.4C759,531.5,760.2,531.4,761.1,531.5z"/>
			<path fill="#FFDE17" d="M760.9,535.6c0.6,0.1,1.4,0.9,1.2,2.1c-0.2,1-0.9,1.6-1.2,2.1s0,1.4,0,1.4s-2.6-2-1.9-4.1
				C759.4,535.6,760.3,535.5,760.9,535.6z"/>
			<path fill="#009ED4" d="M743.4,511.1c0,0-1.4-5.6,4.2-8.6c1.9-1.1,5.2-1.8,8.8,0.1c0,0,4.8,2.2,4.8,8.6c0,0,0.3,0.1,0.4,0.2
				c0,0,0.6-10.6-9.6-10.6c-3.6,0-9.8,2.1-9.1,10.6L743.4,511.1z"/>
			<path fill="#E24512" d="M747.8,656.7c-2.5,0-3.4-1.4-3.4-1.4v5.2c0.6,0.9,3.4,0.9,3.4,0.9s2.8,0,3.4-0.9v-5.2
				C751.2,655.3,750.3,656.7,747.8,656.7z"/>
			<path fill="#E24512" d="M756.7,656.7c-2.5,0-3.4-1.4-3.4-1.4v5.2c0.6,0.9,3.4,0.9,3.4,0.9s2.8,0,3.4-0.9v-5.2
				C760.1,655.3,759.2,656.7,756.7,656.7z"/>
			<g>
				<g>
					<path fill="#E64E9D" d="M747.8,651.7c0,0-1.6,0-3,0.5l-0.2,1.8c0,0,0.7-0.6,3.2-0.6s3.2,0.6,3.2,0.6l-0.2-1.8
						C749.4,651.7,747.8,651.7,747.8,651.7z"/>
					<path fill="#E64E9D" d="M759.6,652.2c-1.4-0.5-3-0.5-3-0.5s-1.6,0-3,0.5l-0.3,1.8c0,0,0.8-0.6,3.2-0.6s3.2,0.6,3.2,0.6
						L759.6,652.2z"/>
				</g>
			</g>
			<g>
				<path fill="#6C3F26" d="M782.1,580.4c-2.2-0.8-4.2-1.3-4.2-1.3l-4.9-15.6c-0.3-0.7-0.1-1.7-0.1-2.4c-0.2-2.6-0.3-5.1-0.5-7.6
					c-0.1-1.4-0.2-2.7-0.3-4.2c-0.1-1.4-0.5-2.8-0.9-4.1c-0.2-0.6-0.6-1.4-0.7-2.1c0-0.5,0.1-1,0-1.5c-0.1-1.2-0.3-2.5-0.5-3.7
					c-0.3-1.7-0.6-3.5-1.2-5.1c-0.8-2.1-1.6-2.6-4.3-3.3v6.6v5.6l-1.1-0.2l-0.3-4.2v-7.9l-5.9-0.8h-5.2h-5.2l-7.2,0.9
					c-2.6,0.7-3.9,1.8-4.8,3.9c-0.4,1.2-1.2,6-1.2,10l-1.2,20.1l-4.9,15.6c0,0-2,0.5-4.2,1.3c-0.4,0.1-2.3,2.1-2.3,2.4
					c0.1,0.3,0.6,1.6,1.4,1.6c0.8,0,5.6-1.8,5.6-1.6c0.1,0.6,1.2,1.5,2,1.6c0.5,0.1,0.2-0.1,0.4-1.6c0.2-2-0.1-3.6-0.1-3.6l6.6-15.8
					l3.8-21.9l-1.1,0.3v-4.6l12.5,6.2l12,6.1l-0.6-7.7l1,5.1v0.6c0.1,0,0.1-0.1,0.1-0.1c0.6,2.9,1.1,5.8,1.8,8.6
					c0.5,2.6,1.1,5.1,2.1,7.5c0.4,1,0.8,1.9,1.2,2.9c1.4,3.3,2.8,6.6,4.1,9.9c0.4,0.9,0.8,1.8,1.1,2.8c0,0-0.2,1.6-0.1,3.6
					c0.1,1.4-0.1,1.6,0.4,1.6c0.8-0.1,1.9-0.9,2-1.6c0.1-0.2,4.9,1.6,5.6,1.6c0.8,0,1.3-1.3,1.4-1.6
					C784.4,582.5,782.4,580.5,782.1,580.4z"/>
				<path fill="#6C3F26" d="M763.8,562.7h-11.2l-0.4,10.4l-0.4-10.4h-11.2c0,0-6.7,1.9-0.9,34.1c1.2,6.7,2.9,9.6,3.8,13.9
					c1.1,5.3-0.2,9.1,0,13.8c0.4,7.4,1.4,14.9,2.1,20.1c0,1.1-0.1,2.3-0.3,2.8c-0.3,0.6-0.2,1.5-0.1,2c-0.4,2.2-0.9,6.1-0.9,6.1
					c1,1.7,3.4,1.5,3.4,1.5s2.4,0.2,3.4-1.5c0,0-0.6-3.6-1-5.7l0,0c0,0,0.5-1.5,0-2.3c-0.2-0.4-0.3-1.6-0.3-2.6
					c0.7-5.7,1.6-13.9,1.6-20.2c0-4.7-0.6-6.6-0.6-13.2c0-5.9,0.9-11.1,0.9-15.9c0-8.8-0.2-8.1-0.2-13.5h0.4l0,0h1.1
					c0,5.4-0.2,4.8-0.2,13.5c0,4.8,0.9,9.9,0.9,15.9c0,6.6-0.6,8.4-0.6,13.2c0,6.5,0.9,14.8,1.6,20.5c0,0.9-0.1,1.9-0.3,2.3
					c-0.5,0.8,0,2.3,0,2.3l0,0c-0.4,2.1-1,5.7-1,5.7c1,1.7,3.4,1.5,3.4,1.5s2.4,0.2,3.4-1.5c0,0-0.6-3.9-0.9-6.1
					c0.1-0.5,0.2-1.4-0.1-2c-0.2-0.5-0.3-1.9-0.3-3c0.8-5.2,1.7-12.6,2.1-19.9c0.2-4.8-1.1-8.4,0-13.8c0.9-4.4,2.6-7.2,3.8-13.9
					C770.4,566.6,763.8,562.7,763.8,562.7z"/>
			</g>
			<g>
				<g>
					<path fill="#E24512" d="M747.7,649.1c0,0-1.4,0-2.6,0.4l-0.2,1.5c0,0,0.6-0.6,2.8-0.6s2.8,0.6,2.8,0.6l-0.2-1.5
						C749.1,649.1,747.7,649.1,747.7,649.1z"/>
					<path fill="#E24512" d="M759.3,649.6c-1.2-0.4-2.6-0.4-2.6-0.4s-1.4,0-2.6,0.4l-0.2,1.5c0,0,0.6-0.6,2.8-0.6s2.8,0.6,2.8,0.6
						L759.3,649.6z"/>
				</g>
			</g>
			<path fill="#FFDE17" d="M762.3,558l0.6-7.3c0.8-0.3,1.6-0.8,2-1.5c2.4-3.8-0.2-6.7-0.2-13l0,0V529h-1.4v7.9
				c-1.8,0.9-5.4,2.2-11.1,2.2c-4.7-0.1-9.1-1.5-11.1-2.4V529h-1.4v7.1v0.1c0,6.3-2.6,9.2-0.2,12.9c0.4,0.7,1.2,1.2,2,1.4l0.6,7.2
				c-8.1,11.4-7.1,43.8-7.1,43.8s5.1,4.1,17.1,4.1l0,0v-44.6l0,0v44.6c13,0,17.1-4.1,17.1-4.1S770.3,569.4,762.3,558z"/>
			<path fill="#7B533C" d="M752.2,519.9H747v8.3c0,3.5,5.2,4.6,5.2,4.6v-4.6l0,0V519.9z"/>
		</g>
	</g>
</g>
</svg>
