<?xml version="1.0" encoding="utf-8"?>
<!-- Generator: Adobe Illustrator 18.1.0, SVG Export Plug-In . SVG Version: 6.00 Build 0)  -->
<svg version="1.1" id="Layer_1" xmlns="http://www.w3.org/2000/svg" xmlns:xlink="http://www.w3.org/1999/xlink" x="0px" y="0px"
	 viewBox="0 0 1000 1000" enable-background="new 0 0 1000 1000" xml:space="preserve">
<circle fill="#FFFFFF" cx="500" cy="500" r="500"/>
<g>
	<g>
		<g>
			<g>
				<defs>
					<circle id="SVGID_1_" cx="500" cy="500" r="500"/>
				</defs>
				<clipPath id="SVGID_2_">
					<use xlink:href="#SVGID_1_"  overflow="visible"/>
				</clipPath>
				<g clip-path="url(#SVGID_2_)">
					<path fill="#6C3F26" d="M502,449.5v156.6l0,0v88.1c0,0,97.9-21.2,97.9-88.1V449.5H502z"/>
					<path d="M714.5,488.6c28.5-45.7,42.4-109.3,42.4-163.9c0-139.5-113.4-252.9-252.9-252.9S251.3,185.3,251.3,324.8
						c0,54.6,13.9,119.1,42.4,163.9c-1.6,28.5-9.7,64.4,12.2,100.3c-7.2,10.6-11.4,25.2-8.2,42.4c4.9,30.3,28.5,46.5,37.5,62
						c9,15.5,0.8,44,0.8,44s77.5-60.4,58.8-124c-4.1-14.8-10.6-24.5-17.1-31c7.2-9.8,10.6-24.5,10.6-41.6
						c13.9-22.8,58.7-109.2,97.1-109.2c6.5,0,13.1,2.4,19.6,5.7c6.5-4.1,13.1-5.7,19.6-5.7c37.5,0,82.4,86.5,97.1,109.2
						c0,16.2,3.2,31,10.6,41.6c-6.5,6.5-13.1,16.2-17.1,31c-18.8,62.8,58.8,124,58.8,124s-8.2-28.5,0.7-44s32.6-31.8,37.5-62
						c3.2-17.1-0.7-31.8-8.2-43.2C724.3,553.1,716.1,517.2,714.5,488.6z"/>
					<path fill="#7B533C" d="M670.4,284.8c-4.9,0-12.2,5.7-17.9,10.6c0-8.2,0.8-16.2,0.8-22.8c0.7-38.2,9.8-138.8-86.5-139.5
						c-59.5,0-63.6,0-63.6,0s-4.9,0-63.6,0c-96.2,0.7-87.2,101.1-86.5,139.5c0,6.5,0.8,14.7,0.8,22.8c-5.8-5.8-13.1-10.6-17.9-10.6
						c-11.4,0-19.6,22-21.2,31.8c-2.4,12.2,15.5,63.6,17.9,69.3c2.4,5.7,15.5,17.9,23.8,7.2c0.8-0.7,1.6-3.2,2.4-4.1
						c0.8,15.5,0.8,31,0.8,46.5c0,61.2,54.6,76.8,71.8,93.8c27.8,28.5,72.6,25.2,72.6,25.2s44.9,3.2,72.6-25.2
						c16.2-17.1,71.8-32.6,71.8-93.8c0-15.5,0-31,0.7-46.5c0.8,1.6,1.6,3.2,2.4,4.1c8.2,11.4,21.2-1.6,23.8-7.2
						c2.4-5.8,20.4-57.1,17.9-69.3C690,305.9,681.9,284.8,670.4,284.8z"/>
					<path fill="#009ED4" d="M336,284.8c0,0-25.3-105.3,80.8-163.1c36.8-20.4,99.5-32.6,164.7,1.6c0,0,88.9,40.7,88.9,161.5
						c0,0,5.7,0.7,8.2,4.1c0,0,10.6-199-180.2-199.7c-67.8,0-184.2,38.2-171.2,199.7L336,284.8z"/>
					<g>
						<path fill="#6C3F26" d="M217.8,1271.8l71.7-414.4l-21.2,5.8v-85.6L504,895.8L730.8,1010l-10.6-145.2l18.8,95.4v10.6
							c0.7,0,1.6-0.8,1.6-0.8c10.6,54.6,22,108.5,32.6,163.1c9.8,48.1,22,96.2,38.2,141.1l85.6-1.6c-4.9-12.3-1.6-31.8-2.4-45.8
							c-3.2-48.1-5.8-96.2-9-143.6c-1.6-26.1-3.2-52.3-4.9-78.2c-1.6-26.1-9-52.2-17.9-77.5c-4.1-12.2-12.2-26.1-12.2-39.2
							c-0.8-9,0.7-18.8,0-28.5c-1.6-23.8-4.9-46.5-9-70.1c-5.7-31.8-11.4-66.1-22.8-96.2c-15.5-40-30.2-49.8-79.9-62.8v125.6V863
							l-19.6-4.9l-5.7-79.9V628.1l-111.8-14.8h-97.6h-97.9l-138.8,17.9c-49.8,13.1-74.2,34.2-89.8,74.2
							c-9,22.8-23.8,113.4-23.8,188.4l-23.8,378.5"/>
					</g>
					<line fill="none" x1="503.3" y1="1227.6" x2="503.3" y2="1227.6"/>
					<path fill="#FFDE17" d="M692.5,1168.1l10.6-137.8c16.2-5.7,29.4-14.8,38.2-27.7c45.7-71-3.2-127.3-3.2-244.8V757V621.6h-25.2
						V770c-34.3,16.2-103.6,41.6-210.4,41.6c-88.1-0.7-169.7-28.5-208.8-44.9V621.6h-25.2v134.6v0.8c0,117.5-48.9,173.8-3.3,244.8
						c8.3,13.1,22,22,37.5,27.8l10.6,136.2"/>
					<path fill="#7B533C" d="M503.3,449.5h-97.8v156.6c0,66.1,97.9,88.1,97.9,88.1L503.3,449.5L503.3,449.5z"/>
				</g>
			</g>
		</g>
	</g>
</g>
</svg>
