<?xml version="1.0" encoding="utf-8"?>
<!-- Generator: Adobe Illustrator 18.1.0, SVG Export Plug-In . SVG Version: 6.00 Build 0)  -->
<svg version="1.1" id="Layer_1" xmlns="http://www.w3.org/2000/svg" xmlns:xlink="http://www.w3.org/1999/xlink" x="0px" y="0px"
	 viewBox="0 402 800 490" enable-background="new 0 402 800 490" xml:space="preserve">
<polygon fill="#39C6F4" points="799.9,658.4 0,658.4 0,681.2 8.3,681.2 8.2,690.2 11.9,690.8 11.2,727.1 13.9,727.2 13.8,734.2 
	13.8,734.2 13.8,734.2 13.9,734.2 14,734.2 14.1,734.2 14.2,734.2 14.8,734.2 16.9,734.2 16.8,740.5 16.8,740.6 16.8,740.6 
	16.9,740.6 17.1,740.6 20.1,740.8 20,746.6 20,746.8 20,746.8 20.1,746.8 23.2,746.9 23.1,751.9 23.2,752.1 23.2,752.2 33.1,752.8 
	33.1,758.7 40.4,758.7 40.7,757 41.1,757 41.1,756.9 41.1,756.8 41.1,756.4 41.1,755.9 41.1,755.5 41.1,754.9 41.1,754.6 
	41.1,754.1 41.1,753.7 41.1,753.4 41.1,753.3 41.1,753.2 41.1,752.8 51.1,752.2 51.3,752.1 51.4,751.8 51.6,751.8 51.7,751.6 
	51.7,751.5 51.7,746.9 54.5,746.8 54.7,746.8 54.9,746.6 55.1,746.6 55.1,746.6 55.1,746.4 55.1,740.8 57.8,740.6 57.9,740.6 
	57.9,740.6 57.9,740.5 57.9,740.5 57.9,734.2 59.7,734.2 59.1,863.8 105.9,863.8 108.1,733.8 115.2,733.5 115.5,777.4 116.5,792.5 
	124.8,834.4 148.7,834.2 156.4,796.1 157.9,777.3 158.1,730 160.6,730.1 160.9,741.7 171.9,741.2 172.2,695.6 173.6,695.9 
	174.8,696 174.8,852.9 174.8,872.9 197.2,872.9 197.2,853.4 218.3,853.4 218.6,716.3 223.8,713.5 223.8,714.7 227.4,714.9 
	227.4,795.3 265,795.4 265,745.2 265.1,725.4 269,725.5 274.1,724.6 274.1,733.6 281.3,734.7 281.7,734.7 281.7,737.8 282.3,738 
	294.8,737.8 295.1,809.4 328.3,809.2 328.4,793.9 328.7,720.6 329.1,722.9 335.4,747.2 335.7,747.2 335.8,786 337.2,789.8 
	337.3,831.6 338.4,834.1 339.6,834.4 339.6,836.1 339.6,836.4 340.4,836.6 340.4,838.2 340.4,838.6 341.7,838.8 341.7,841.6 
	341.7,841.9 342.8,842.2 354.2,842.2 355.3,841.9 355.3,841.6 355.3,838.8 356.5,838.6 356.5,838.2 356.5,836.6 357.4,836.4 
	357.4,836.1 357.4,834.4 358.6,834.1 359.8,831.6 359.9,789.8 361.2,786 361.4,740.9 364.1,727.1 364.2,702.1 369.5,702.1 
	369.5,681.2 369.6,681.2 369.6,727.9 370.8,727.9 370.8,747.4 382.3,748.2 382.3,731.3 384.9,731.4 385.3,731.4 385.3,727.9 
	387.6,727.9 387.6,724.3 388.9,724.3 389.2,724.3 389.2,728.2 390.7,728.4 390.7,737.6 392.1,737.7 392.1,737.7 392.1,746.8 
	398.6,746.8 398.6,741.4 405.9,741.2 407.9,741.2 407.9,731.1 409.4,731 409.4,722.8 414.6,722.8 414.7,722.8 414.7,724.9 
	427.7,724.6 427.6,689.2 432.2,689.2 431.2,732.4 431.2,785.2 433.4,785.5 433.4,803.4 452.8,803.4 452.8,785.5 455,785.2 
	455,732.4 453.9,689.2 455,689.2 454.9,681.2 457.2,681.2 457.3,707.6 460.2,707.6 458.7,801.3 458.8,801.4 458.9,801.4 
	460.3,801.6 460.3,801.6 460.4,801.6 460.6,801.6 472.6,826.2 485.4,826.2 497.9,801.8 498,801.8 498,801.8 498.1,801.8 
	498.6,801.8 498.5,762.7 506.6,762.9 506.5,833.6 522.3,835.9 522.6,727.7 531.6,734.4 531.6,765.9 532.3,779 532.3,809.2 
	533.7,809.6 534,809.6 534,811.1 535.6,811.4 535.7,811.4 535.7,812.9 537.4,813.2 537.4,813.2 537.4,814.7 539.1,815 539.1,815 
	539.1,816.6 540.8,816.9 547.1,816.9 548.8,816.6 548.8,815 548.9,815 550.4,814.7 550.4,813.2 550.7,813.2 552.3,812.9 
	552.3,811.4 552.4,811.4 554.1,811.1 554.1,809.6 554.1,809.6 555.6,809.2 555.7,779 556.5,765.9 556.6,743.2 561.9,732.8 
	561.8,866.1 599.2,866.1 599.4,790.1 642.1,789.7 642.1,763.5 654.8,763.5 654.9,801.7 683.1,801.6 683.2,762.8 687.4,762.8 
	688.4,762.8 689.2,712 710.6,709.8 710.6,812.1 757.9,811.9 757.8,681.2 762.9,681.2 762.7,707.3 800,707.4 799.9,660.9 "/>
<g>
	<path fill="#FFFFFF" d="M765.4,572.8c-1.1,0-2.1-0.7-2.3-1.8c-0.4-1.2,0.5-2.6,1.7-2.9c14.9-3.8,25.2-17.1,25.2-32.3
		c0-17.3-13.1-31.6-30.3-33.3c-1.4-0.1-2.2-1.2-2.2-2.6v-0.2c0.1-0.8,0.1-1.7,0.1-2.4c0-17.2-14-31.2-31.2-31.2
		c-4.5,0-8.8,0.9-13.1,2.9l-4.2,1.9c-0.6,0.2-1.4,0.2-1.9,0s-1.1-0.7-1.4-1.5l-1.5-4.5c-10.2-30.4-38.5-50.8-70.5-50.8l0,0
		c-20.7,0-39.8,8.3-54.1,23.4c-0.8,0.9-2.4,0.9-3.4,0.1s-0.9-2.4-0.1-3.4c14.9-15.9,35.9-25,57.5-25l0,0c34,0,64.2,21.7,75,54
		l0.6,1.9l1.9-0.8c4.8-2.2,9.8-3.2,15.1-3.2c19.9,0,36,16.1,36,36c0,0.2,0,0.5,0,0.7c18.5,2.8,32.3,18.6,32.3,37.6
		c0,17.6-11.9,32.8-28.8,36.9C765.8,572.8,765.6,572.8,765.4,572.8z"/>
</g>
<path fill="#FFFFFF" d="M275.8,472.7c-12-9.2-27.7-13.4-45.6-11.9c-4.8,0.4-9.1,1.1-12.6,1.9c-5.2,0.2-10.4,1-15.3,2.5
	c-9.1-22.8-31.2-37.9-56-37.9c-26.1,0-49.3,16.9-57.3,41.7c-0.6,0-1.4,0-1.9,0c-22.9,0-41.4,18.6-41.4,41.4c0,4.2,0.8,8.4,1.9,12.4
	h-3.8c-22.6,0-40.9,18.4-40.9,40.9c0,8.2,2.4,16.3,7.2,23.1c0.5,0.8,1.4,1.2,2.2,1.2c0.7,0,1.1-0.1,1.6-0.5c1.2-0.9,1.5-2.6,0.7-3.8
	c-4.1-6-6.2-12.9-6.2-20.1c0-19.6,15.9-35.5,35.5-35.5h7.6c0.9,0,1.8-0.5,2.3-1.2c0.5-0.8,0.6-1.8,0.2-2.6
	c-1.9-4.4-2.9-9.1-2.9-13.9c0-19.9,16.1-36,36-36c1.2,0,2.4,0.1,3.6,0.2c1.2,0.1,2.5-0.8,2.9-1.9c6.5-23.5,28.2-39.8,52.7-39.8
	c23.3,0,44.1,14.8,51.8,36.8c0.5,1.4,1.9,2.2,3.4,1.7c5.8-2.1,11.9-3,18.1-3l0.1-2.4c13.4-2.8,36.1-4.4,54.1,9.5
	c36.6,28.3,29.1,43.5,29,43.6c-0.5,0.9-0.2,2.1,0.7,2.6c0.3,0.2,0.6,0.2,0.9,0.2c0.6,0,1.3-0.3,1.6-0.9
	C306.2,520.4,315.4,503.3,275.8,472.7z"/>
<polygon fill="#009ED4" points="799.9,654.9 800,602.7 762.7,602.9 762.9,632.1 757.8,632.1 757.9,485.4 710.6,485.3 710.6,600 
	689.2,597.6 688.4,540.6 687.4,540.6 683.2,540.6 683.1,497 654.9,496.9 654.8,539.8 642.1,539.8 642.1,510.4 599.4,510 
	599.2,424.7 561.8,424.6 561.9,574.2 556.6,562.6 556.5,537.1 555.7,522.4 555.6,488.4 554.1,488.1 554.1,488.1 554.1,486.4 
	552.4,486.1 552.3,486.1 552.3,484.3 550.7,483.9 550.4,483.9 550.4,482.4 548.9,482 548.8,482 548.8,480.2 547.1,479.8 
	540.8,479.8 539.1,480.2 539.1,482 539.1,482 537.4,482.4 537.4,483.9 537.4,483.9 535.7,484.3 535.7,486.1 535.6,486.1 534,486.4 
	534,488.1 533.7,488.1 532.3,488.4 532.3,522.4 531.6,537.1 531.6,572.4 522.6,580 522.3,458.5 506.5,461.1 506.6,540.4 
	498.5,540.7 498.6,496.8 498.1,496.8 498,496.8 498,496.8 497.9,496.8 485.4,469.4 472.6,469.4 460.6,497.1 460.4,497.1 
	460.3,497.1 460.3,497.1 458.9,497.2 458.8,497.2 458.7,497.4 460.2,602.6 457.3,602.6 457.2,632.1 454.9,632.1 455,623.2 
	453.9,623.2 455,574.7 455,515.4 452.8,515.1 452.8,495.1 433.4,495.1 433.4,515.1 431.2,515.4 431.2,574.7 432.2,623.2 
	427.6,623.2 427.7,583.4 414.7,583.1 414.7,585.4 414.6,585.4 409.4,585.4 409.4,576.2 407.9,576.1 407.9,564.8 405.9,564.8 
	398.6,564.6 398.6,558.6 392.1,558.6 392.1,568.8 392.1,568.8 390.7,568.9 390.7,579.2 389.2,579.3 389.2,583.8 388.9,583.8 
	387.6,583.8 387.6,579.8 385.3,579.7 385.3,575.8 384.9,575.8 382.3,575.9 382.3,557 370.8,557.8 370.8,579.7 369.6,579.8 
	369.6,632.1 369.5,632.1 369.5,608.7 364.2,608.7 364.1,580.6 361.4,565.2 361.2,514.5 359.9,510.2 359.8,463.4 358.6,460.5 
	357.4,460.2 357.4,458.3 357.4,457.9 356.5,457.8 356.5,455.9 356.5,455.5 355.3,455.2 355.3,452.1 355.3,451.8 354.2,451.5 
	342.8,451.5 341.7,451.8 341.7,452.1 341.7,455.2 340.4,455.5 340.4,456 340.4,457.8 339.6,457.9 339.6,458.4 339.6,460.2 
	338.4,460.5 337.3,463.4 337.2,510.2 335.8,514.5 335.7,558.1 335.4,558.1 329.1,585.3 328.7,588 328.4,505.6 328.3,488.4 
	295.1,488.3 294.8,568.6 282.3,568.4 281.7,568.6 281.7,572.1 281.3,572.1 274.1,573.3 274.1,583.4 269,582.4 265.1,582.6 
	265,560.2 265,504 227.4,504.1 227.4,594.4 223.8,594.6 223.8,595.9 218.6,592.8 218.3,438.9 197.2,438.9 197.2,417 174.8,417 
	174.8,439.5 174.8,615.5 173.6,615.6 172.2,616 171.9,564.8 160.9,564.2 160.6,577.3 158.1,577.4 157.9,524.2 156.4,503.2 
	148.7,460.4 124.8,460.2 116.5,507.2 115.5,524.1 115.2,573.4 108.1,573.2 105.9,427.3 59.1,427.3 59.7,572.6 57.9,572.6 
	57.9,565.6 57.9,565.6 57.9,565.4 57.9,565.4 57.8,565.4 55.1,565.3 55.1,558.9 55.1,558.8 55.1,558.7 54.9,558.7 54.7,558.6 
	54.5,558.6 51.7,558.4 51.7,553.2 51.7,553.1 51.6,553 51.4,552.9 51.3,552.6 51.1,552.5 41.1,551.8 41.1,551.3 41.1,551.2 
	41.1,551.1 41.1,550.8 41.1,550.4 41.1,549.8 41.1,549.4 41.1,548.8 41.1,548.3 41.1,547.8 41.1,547.4 41.1,547.2 41.1,547.1 
	40.7,547.1 40.4,545.2 33.1,545.2 33.1,551.8 23.2,552.5 23.2,552.6 23.1,552.8 23.2,558.4 20.1,558.5 20,558.6 20,558.6 20,558.7 
	20.1,565.3 17.1,565.4 16.9,565.4 16.8,565.4 16.8,565.4 16.8,565.6 16.9,572.6 14.8,572.6 14.2,572.6 14.1,572.6 14,572.6 
	13.9,572.6 13.8,572.6 13.8,572.6 13.8,572.6 13.9,580.5 11.2,580.6 11.9,621.4 8.2,622 8.3,632.1 0,632.1 0,657.8 799.9,657.8 "/>
<rect x="0.2" y="657.8" fill="#8CC63F" width="800" height="11.7"/>
<rect x="130.2" y="605.9" fill="#FFDE17" width="49.2" height="51.8"/>
<polygon fill="#6DCEF5" points="247.9,658.4 187.4,658.4 189.1,586.5 249.5,586.5 "/>
<rect x="421.1" y="605.9" fill="#6DCEF5" width="50.4" height="51.6"/>
<rect x="314.9" y="563.1" fill="#EC1E24" width="70.9" height="94.3"/>
<rect x="525.9" y="579.1" fill="#EC1E24" width="67.2" height="78.5"/>
<polygon fill="#EC1E24" points="117.8,608 191.8,608 153.2,569.6 "/>
<polygon fill="#EC1E24" points="410.1,606.8 483.9,606.8 444.5,567.3 "/>
<polygon fill="#FFDE17" points="383.1,523.2 338,523.2 339.8,517.6 327.7,514.5 325.1,523.2 317.6,523.2 307.2,563.1 393.4,563.1 
	"/>
<polygon fill="#FFDE17" points="246.2,555.9 209.2,555.9 209.2,547.4 198.2,547.4 198.4,555.9 192.4,555.9 184,588.6 254.7,588.6 
	"/>
<polygon fill="#FFDE17" points="593.9,546.2 583.6,546.2 583.6,534.1 571.4,534.1 571.4,546.2 525.4,546.2 519.3,578.9 599.9,578.9 
	"/>
<circle fill="#8CC63F" cx="117.2" cy="626.1" r="14.6"/>
<circle fill="#8CC63F" cx="287.3" cy="617.2" r="17.7"/>
<ellipse fill="#8CC63F" cx="402.6" cy="611.5" rx="16.8" ry="22.3"/>
<circle fill="#8CC63F" cx="699.7" cy="598.8" r="27.5"/>
<polygon fill="#39B54A" points="83.3,632.2 111.2,632.2 97.2,578.9 "/>
<polygon fill="#7AC943" points="500.8,637.1 525.5,637.1 513.1,598.8 "/>
<polygon fill="#7AC943" points="243.9,637.1 276.2,637.1 260,578.9 "/>
<polygon fill="#39B54A" points="277.4,629.8 314.6,629.8 296,558.6 "/>
<polygon fill="#39B54A" points="475.9,629.8 513.3,629.8 494.6,558.6 "/>
<polygon fill="#39B54A" points="654,629.8 691.3,629.8 672.7,558.6 "/>
<rect x="604.5" y="602.7" fill="#6DCEF5" width="54.4" height="54.9"/>
<polygon fill="#EC1E24" points="594.4,605.6 668.3,605.6 629.8,567.2 "/>
<g>
	<rect x="139.1" y="616.6" fill="#FFFFFF" width="11.1" height="10.8"/>
	<rect x="159.9" y="616.6" fill="#FFFFFF" width="11.1" height="10.8"/>
	<rect x="159.9" y="637.1" fill="#FFFFFF" width="11.1" height="10.8"/>
	<rect x="138.5" y="637.1" fill="#FFFFFF" width="11.1" height="20.4"/>
</g>
<g>
	<rect x="430.3" y="616.6" fill="#FFFFFF" width="11.1" height="10.8"/>
	<rect x="451.2" y="616.6" fill="#FFFFFF" width="11.1" height="10.8"/>
	<rect x="451.2" y="637.1" fill="#FFFFFF" width="11.1" height="10.8"/>
	<rect x="429.7" y="637.1" fill="#FFFFFF" width="11.1" height="20.4"/>
</g>
<g>
	<rect x="636" y="616.6" fill="#FFFFFF" width="11.1" height="10.8"/>
	<rect x="615.1" y="616.6" fill="#FFFFFF" width="11.1" height="10.8"/>
	<rect x="615.1" y="637.1" fill="#FFFFFF" width="11.1" height="10.8"/>
	<rect x="636.4" y="637.1" fill="#FFFFFF" width="11.1" height="20.4"/>
</g>
<g>
	<rect x="323" y="616.6" fill="#FFFFFF" width="11.1" height="10.8"/>
	<rect x="343.8" y="616.6" fill="#FFFFFF" width="11.1" height="10.8"/>
	<rect x="343.8" y="637.2" fill="#FFFFFF" width="11.1" height="10.8"/>
	<rect x="366.4" y="616.6" fill="#FFFFFF" width="11.1" height="10.8"/>
	<rect x="323" y="595.2" fill="#FFFFFF" width="11.1" height="10.8"/>
	<rect x="343.8" y="595.2" fill="#FFFFFF" width="11.1" height="10.8"/>
	<rect x="366.4" y="595.2" fill="#FFFFFF" width="11.1" height="10.8"/>
	<rect x="323" y="572" fill="#FFFFFF" width="11.1" height="10.8"/>
	<rect x="343.8" y="572" fill="#FFFFFF" width="11.1" height="10.8"/>
	<rect x="366.4" y="572" fill="#FFFFFF" width="11.1" height="10.8"/>
	<rect x="366.4" y="637.2" fill="#FFFFFF" width="11.1" height="10.8"/>
	<rect x="322.4" y="637.2" fill="#FFFFFF" width="11.1" height="20.4"/>
</g>
<g>
	<rect x="532.6" y="612.4" fill="#FFFFFF" width="11.1" height="10.8"/>
	<rect x="553.5" y="612.4" fill="#FFFFFF" width="11.1" height="10.8"/>
	<rect x="553.5" y="637.2" fill="#FFFFFF" width="11.1" height="10.8"/>
	<rect x="576.1" y="612.4" fill="#FFFFFF" width="11.1" height="10.8"/>
	<rect x="532.6" y="589.8" fill="#FFFFFF" width="11.1" height="10.8"/>
	<rect x="553.5" y="589.8" fill="#FFFFFF" width="11.1" height="10.8"/>
	<rect x="576.1" y="589.8" fill="#FFFFFF" width="11.1" height="10.8"/>
	<rect x="576.1" y="637.2" fill="#FFFFFF" width="11.1" height="10.8"/>
	<rect x="532.1" y="637.2" fill="#FFFFFF" width="11.1" height="20.4"/>
</g>
<g>
	<rect x="201.1" y="616.6" fill="#FFFFFF" width="11.1" height="10.8"/>
	<rect x="201.1" y="637.2" fill="#FFFFFF" width="11.1" height="10.8"/>
	<rect x="223.7" y="616.6" fill="#FFFFFF" width="11.1" height="10.8"/>
	<rect x="201.1" y="595.2" fill="#FFFFFF" width="11.1" height="10.8"/>
	<rect x="223.7" y="595.2" fill="#FFFFFF" width="11.1" height="10.8"/>
	<rect x="223.7" y="637.2" fill="#FFFFFF" width="11.1" height="10.8"/>
</g>
<rect x="95.2" y="632.2" fill="#906342" width="4" height="25.2"/>
<rect x="296" y="629.6" fill="#906342" width="4" height="28.1"/>
<rect x="115.8" y="640.4" fill="#906342" width="3.8" height="17.1"/>
<rect x="285.4" y="634.9" fill="#906342" width="3.8" height="22.7"/>
<rect x="258.2" y="637.1" fill="#906342" width="3.8" height="20.5"/>
<rect x="401" y="633.8" fill="#906342" width="2.8" height="23.9"/>
<rect x="491.6" y="628.9" fill="#906342" width="2.7" height="28.8"/>
<rect x="511.2" y="637.1" fill="#906342" width="2.6" height="20.6"/>
<rect x="669.8" y="629.8" fill="#906342" width="3.8" height="27.9"/>
<rect x="698.8" y="626.3" fill="#906342" width="3.8" height="31.2"/>
</svg>
