<?xml version="1.0" encoding="utf-8"?>
<!-- Generator: Adobe Illustrator 18.1.0, SVG Export Plug-In . SVG Version: 6.00 Build 0)  -->
<svg version="1.1" id="Layer_1" xmlns="http://www.w3.org/2000/svg" xmlns:xlink="http://www.w3.org/1999/xlink" x="0px" y="0px"
	 viewBox="170.8 227.3 1013.8 1000" enable-background="new 170.8 227.3 1013.8 1000" xml:space="preserve">
<g>
	<circle fill="#FFFFFF" cx="684.6" cy="727.3" r="500"/>
	<g>
		<g>
			<defs>
				<circle id="SVGID_1_" cx="684.6" cy="727.3" r="500"/>
			</defs>
			<clipPath id="SVGID_2_">
				<use xlink:href="#SVGID_1_"  overflow="visible"/>
			</clipPath>
			<g clip-path="url(#SVGID_2_)">
				<g>
					<path fill="#009ED4" d="M928.5,1017.7l58.7-10.6c26.1-87.3-2.4-208.8-41.6-277.3C913,672.7,822.4,622.1,758,597.6l-181.1,409.5
						c28.5,12.2,66.1,65.3,9.8,116.6c-98.7,91.4-51.4,199-8.2,217.8c22,9.8,62.8-24.5,23.7-108.5c0,0,175.4-62.8,199-228.4
						c7.3-50.6,9.8-95.4,26.9-128.1C881.1,782,849.3,936.9,928.5,1017.7z"/>
				</g>
				<path fill="#BD814E" d="M930.9,1031.5c0,0-6.5,13.9-12.2,28.5c-5.7,13.9,11.4,26.1,22,9.8c1.6-1.6,4.9-5.7,5.7-7.3
					c1.6-1.6,6.5,22,13.9,30.2c12.2,12.2,41.6,1.6,50.6-13.1c6.5-10.6,1.6-52.2-19.6-71L930.9,1031.5z"/>
				<path fill="#E64E9D" d="M995.3,993.2c0,0,6.5,9.8,2.4,21.2l-66.9,17.1c0,0-14.7-5.7-9-18.8L995.3,993.2z"/>
				<g>
					<path fill="#009ED4" d="M333,756.7l-31.8-49.8c46.5-78.3,155-139.5,232.5-157.4c63.6-14.7,163.1,17.1,224.3,48.9L612.8,994
						l-35.9,13.1c-27.7-12.2-93-8.2-88.9,68.5c8.2,158.2-92.2,185.2-133.8,165.6c-40-18.8-47.3-88.9,40.8-116.6
						c0,0-72.6-152.5,33.4-282.2c31.8-39.2,64.4-71.8,75.9-106.9C537.8,631.9,445.6,759.9,333,756.7z"/>
				</g>
				<path fill="#BD814E" d="M320.8,764.8c0,0-5.7,14.7-13.1,28.5c-6.5,13.1-26.9,9.8-22.8-9.8c0.8-2.4,1.6-7.3,1.6-9.8
					c0-2.4-21.2,10.6-31.8,9.8c-17.1,0-29.4-29.4-24.5-46.5c3.3-12.2,37.5-36.7,65.3-33.4L320.8,764.8z"/>
				<path fill="#E64E9D" d="M305.3,690.6c0,0-11.4,1.6-17.1,12.2l32.6,61.2c0,0,14.7,7.3,20.4-6.5L305.3,690.6z"/>
				
					<ellipse transform="matrix(0.3969 -0.9179 0.9179 0.3969 -221.496 1078.5428)" fill="#F1F2F2" cx="710" cy="707.8" rx="164.8" ry="159.1"/>
				<g>
					<path fill="#BD814E" d="M844.4,397c-72.6-31-155.8,1.6-186.8,73.4c-1.6,4.1-2.4,8.2-4.1,12.2c-12.2,9-21.2,20.4-26.9,33.4
						c-23.7,55.5,19.6,128.1,96.2,161.5l0,0L844.4,397L844.4,397z"/>
					<path fill="#BD814E" d="M906.4,637.6c5.7-13.9,7.3-28.5,5.7-43.2c2.4-4.1,4.9-7.3,6.5-11.4c31-71.8-2.4-155-74.2-186
						L722.9,677.5C800.4,711,882.8,693,906.4,637.6z"/>
				</g>
				<ellipse fill="#BD814E" cx="917.4" cy="586.7" rx="27.7" ry="27.7"/>
				<ellipse fill="#BD814E" cx="656.1" cy="473.7" rx="27.7" ry="27.7"/>
				<path fill="#009ED4" d="M819.2,599.2c-10.6-14.7-29.4-8.2-54.6-18.8c-24.5-10.6-32.6-28.5-50.6-26.9
					c-10.6,1.6-17.9,8.2-21.2,16.3c-11.4,26.1,3.3,71,39.2,86.5c35.9,15.5,79.1-4.9,89.7-30.2C825.7,618,824.9,607.4,819.2,599.2z"
					/>
				<g>
					<circle fill="#FFDE17" cx="749.8" cy="614.7" r="18.8"/>
					<g>
						<path fill="#FFDE17" d="M753.9,606.6c-25.3-11.4-55.5,0.8-66.1,26.1c-11.4,25.3,0.8,55.5,26.1,66.1
							c25.3,11.4,55.5-0.8,66.1-26.1C790.6,647.4,779.2,618,753.9,606.6z M718,688.2c-19.6-8.2-28.5-31-20.4-50.6s31-28.5,50.6-20.4
							c19.6,8.2,28.5,31,20.4,50.6C760.4,688.2,737.6,697.1,718,688.2z"/>
					</g>
				</g>
				<g>
					<path fill="#6C3F26" d="M774.3,473.6c0,0,0-0.8-0.8-3.3c0-2.4-0.8-5.7,0-9.8c0.8-4.1,1.6-9.8,4.1-15.5s6.5-12.2,11.4-17.9
						c5.7-5.7,13.1-11.4,22-14.7c9-3.3,19.6-5.7,29.4-4.1l4.9,0.8c1.6,0,2.4,0.8,4.1,0.8c2.4,0.8,5.7,1.6,8.2,3.3
						c5.7,2.4,10.6,5.7,14.7,9.8c9,8.2,15.5,18.8,17.9,31c0,1.6,0.8,3.3,0.8,4.9c0,1.6,0,3.3,0,4.9v4.9l0,0v0.8l0,0v0.8v0.8v1.6
						c-0.8,7.3-3.3,13.1-6.5,18.8c-6.5,10.6-17.1,18.8-28.5,22c-1.6,0.8-2.4,0.8-4.1,0.8c-1.6,0-2.4,0.8-4.1,0.8c-1.6,0-2.4,0-4.1,0
						h-2.4h-0.8h-0.8h-0.8l0,0h-1.6c-0.8,0-0.8,0-1.6,0c-1.6,0-3.3-0.8-4.9-0.8c-2.4-0.8-4.9-1.6-7.3-3.3
						c-9.8-5.7-15.5-14.7-17.1-23.7c-0.8-4.1-0.8-9-0.8-12.2v-0.8l0,0v-0.8v-0.8c0-0.8,0.8-1.6,0.8-2.4c0.8-1.6,1.6-4.1,2.4-5.7
						c4.1-6.5,9-9.8,13.1-11.4c2.4-0.8,4.1-1.6,5.7-1.6s3.3,0,4.1,0c2.4,0,3.3,0.8,3.3,0.8s-0.8,0-3.3,0.8c-0.8,0-2.4,0.8-3.3,1.6
						c-1.6,0.8-2.4,1.6-4.1,2.4c-2.4,2.4-5.7,6.5-6.5,10.6c0,0.8,0,1.6-0.8,3.3c0,0.8,0,1.6,0,2.4v0.8v0.8l0,0v-0.8l0,0l0,0
						c0,2.4,0.8,4.9,2.4,7.3c2.4,4.9,6.5,9,11.4,10.6c1.6,0.8,2.4,0.8,4.1,0.8c0.8,0,0.8,0,1.6,0c0,0,0.8,0,1.6,0h1.6l0,0h-0.8l0,0
						l0,0h0.8h0.8c0.8,0,1.6,0,2.4,0c0.8,0,1.6,0,2.4-0.8c0.8,0,1.6-0.8,2.4-0.8c5.7-2.4,10.6-6.5,13.1-12.2
						c1.6-2.4,2.4-5.7,2.4-8.2v-2.4v-2.4c0-0.8,0-1.6,0-2.4c0-0.8,0-1.6-0.8-2.4c-0.8-3.3-1.6-6.5-3.3-9.8c-1.6-3.3-3.3-5.7-5.7-8.2
						c-2.4-2.4-4.9-4.9-8.2-6.5c-1.6-0.8-3.3-1.6-4.9-2.4l0-3.3c-0.8,0-1.6,0-1.6-0.8c-7.3-1.6-13.9-1.6-21.2,0
						c-6.5,1.6-13.1,4.1-17.9,7.3c-4.9,3.3-9.8,7.3-13.1,11.4c-3.3,4.1-5.7,8.2-7.3,12.2c-1.6,3.3-3.3,6.5-3.3,9
						C775.1,472.8,774.3,473.6,774.3,473.6z"/>
					<path fill="#6C3F26" d="M775.1,474.4c0,0-0.8,0-1.6-0.8c-0.8-0.8-2.4-1.6-4.9-3.3c-1.6-1.6-4.1-3.3-6.5-6.5
						c-0.8-1.6-2.4-2.4-3.3-4.1c-0.8-1.6-2.4-3.3-3.3-5.7c-0.8-1.6-1.6-4.1-2.4-6.5c-0.8-2.4-1.6-4.9-1.6-7.3
						c-0.8-4.9-1.6-10.6-0.8-16.3c0-2.4,0.8-5.7,1.6-9c0.8-1.6,0.8-3.3,0.8-4.1l1.6-4.1c0.8-1.6,1.6-2.4,1.6-4.1
						c0.8-1.6,1.6-2.4,2.4-4.1c1.6-2.4,3.3-4.9,5.7-7.3c1.6-2.4,4.1-4.9,6.5-6.5l0.8-0.8l0,0l0,0l0.8-0.8l0,0l1.6-0.8
						c0.8-0.8,1.6-1.6,3.3-2.4c1.6-0.8,3.3-1.6,4.9-2.4c1.6-0.8,3.3-1.6,4.1-1.6c3.3-0.8,5.7-1.6,9-2.4c5.7-0.8,11.4-0.8,17.1,0
						c2.4,0,4.9,0.8,7.3,1.6c2.4,0.8,4.9,1.6,6.5,3.3c4.1,2.4,7.3,4.9,9.8,7.3c2.4,2.4,4.1,4.9,5.7,7.3c1.6,1.6,1.6,4.1,2.4,4.9
						c0.8,0.8,0.8,1.6,0.8,1.6s-0.8,0-1.6-0.8c-0.8-0.8-2.4-1.6-4.9-2.4c-2.4-0.8-4.9-1.6-7.3-2.4c-1.6,0-2.4-0.8-4.1-0.8
						s-3.3-0.8-4.9-0.8c-6.5,0-13.9,0.8-20.4,3.3c-1.6,0.8-3.3,1.6-4.9,2.4l-1.6,0.8c-0.8,0.8-0.8,0.8-1.6,1.6
						c-0.8,0-1.6,0.8-2.4,1.6l-1.6,1.6l0,0c0.8-0.8,0,0,0.8,0l0,0l0,0l0,0l-0.8,0.8c-1.6,1.6-2.4,2.4-4.1,4.1
						c-2.4,3.3-4.9,6.5-6.5,9.8c-1.6,3.3-3.3,7.3-4.9,10.6c-0.8,3.3-1.6,7.3-2.4,10.6c0,0.8,0,1.6,0,2.4c0,0.8,0,1.6,0,2.4
						s0,1.6,0,2.4c0,0.8,0,1.6,0,2.4c0,1.6,0,3.3,0,4.9c0,0.8,0,1.6,0,2.4c0,0.8,0,1.6,0,2.4c0.8,3.3,0.8,5.7,1.6,7.3
						c0.8,2.4,0.8,4.1,1.6,4.9C775.1,473.6,775.1,474.4,775.1,474.4z"/>
				</g>
			</g>
		</g>
	</g>
</g>
</svg>
