<?xml version="1.0" encoding="utf-8"?>
<!-- Generator: Adobe Illustrator 18.1.0, SVG Export Plug-In . SVG Version: 6.00 Build 0)  -->
<svg version="1.1" id="Layer_1" xmlns="http://www.w3.org/2000/svg" xmlns:xlink="http://www.w3.org/1999/xlink" x="0px" y="0px"
	 viewBox="0 280 1000 1000" enable-background="new 0 280 1000 1000" xml:space="preserve">
<circle fill="#FFFFFF" cx="500" cy="780" r="500"/>
<g>
	<g>
		<defs>
			<circle id="SVGID_1_" cx="500" cy="780" r="500"/>
		</defs>
		<clipPath id="SVGID_2_">
			<use xlink:href="#SVGID_1_"  overflow="visible"/>
		</clipPath>
		<g clip-path="url(#SVGID_2_)">
			<polygon fill="#009ED4" points="673.7,1037.7 673.7,976.6 584.8,965.2 429,965.2 319.7,979 271.6,1042.6 296.1,1062.2 
				304.2,1348.5 675.4,1348.5 			"/>
			<path fill="#009ED4" d="M699.8,1172.3l-17.9-72.6l-21.2-124.8c99.5,9,113.4,63.6,117.5,100.3c4.1,32.6,7.3,81.6,7.3,81.6
				C736.5,1222.1,713.7,1175.6,699.8,1172.3z"/>
			<path fill="#FDD09E" d="M739.8,1362.4c4.1,12.2,51.4,14.7,51.4,2.4c-2.4-138.7-5.7-207.2-5.7-207.2l-88.1,3.3
				C697.4,1160.9,722.7,1307.7,739.8,1362.4z"/>
			<path fill="#009ED4" d="M296.1,1167.4l15.5-67.7l8.2-120.7c-99.5,9-100.3,59.5-104.4,96.2c-4.1,32.6-7.3,92.2-7.3,92.2H296.1z"/>
			<path fill="#FFE5BA" d="M495.9,848.5H429v107.7c0,45.7,66.9,60.4,66.9,60.4v-60.4l0,0V848.5z"/>
			<path fill="#FDD09E" d="M495.9,948v67.7c0,0,66.9-14.7,66.9-60.4L495.9,948z"/>
			<rect x="495.9" y="848.5" fill="#FDD09E" width="66.9" height="107.7"/>
			<path fill="#FFE5BA" d="M495.9,931.7c0,0,40,2.4,64.4-20.4c14.7-13.9,63.6-26.9,63.6-75.9c0-49.8,5.7-101.1,5.7-132.1
				c0.8-31,9-112.6-77.5-113.4c-53,0-57.1,0-57.1,0v341.8H495.9z"/>
			<path fill="#FFE5BA" d="M619.1,731.1c0,0,17.1-17.9,25.3-17.9c9.8,0,17.1,17.9,18.8,26.1c1.6,9.8-13.9,51.4-16.3,56.3
				s-13.9,14.7-21.2,5.7C613.4,785.7,619.1,731.1,619.1,731.1z"/>
			<path fill="#FFE5BA" d="M372.8,731.1c0,0-17.1-17.9-25.3-17.9c-10.6,0-17.1,17.9-18.8,26.1c-1.6,9.8,13.9,51.4,16.3,56.3
				c2.4,4.9,13.9,14.7,21.2,5.7C377.7,785.7,372.8,731.1,372.8,731.1z"/>
			<path fill="#FFE5BA" d="M495.9,931.7c0,0-40,2.4-64.4-20.4c-14.7-13.9-63.6-26.9-63.6-75.9c0-49.8-5.7-101.1-5.7-132.1
				c-0.8-31-9-112.6,77.5-113.4c53,0,56.3,0,56.3,0V931.7z"/>
			<path fill="#FFDE17" d="M818.1,664.2c-13.1-75-44.9-123.2-101.1-121.5c-48.9,1.6-102,67.7-102,67.7l42.4,23.7
				c0,0,17.1,9.8,40.8,20.4c-0.8,62,57.1,98.7,57.1,98.7c-8.2-24.5,11.4-45.7,11.4-45.7c-4.1,79.9,71,78.3,71,78.3
				C791.2,723.7,827.1,718,818.1,664.2z"/>
			<path fill="#FFDE17" d="M593,603.8c0,0-17.9,62.8-115,67.7c0,0,26.1-29.4,27.7-44.9c0,0-27.7,39.2-84.8,43.2
				c0,0,13.1-23.7,14.7-43.2l-64.4,85.6c0,0-50.6-166.4,105.2-176.2c83.2-4.9,109.3,17.1,119.9,33.4
				C606.9,585.9,593,603.8,593,603.8z"/>
			<path fill="#39B54A" d="M652.5,565.5c-9.8-1.6-22.8,2.4-22.8,2.4s-13.1,4.1-20.4,11.4c0,0,27.7,30.2,28.5,87.3
				c0,0,2.4,5.7,22.8-1.6c20.4-6.5,19.6-12.2,19.6-12.2C693.3,586.7,652.5,565.5,652.5,565.5z"/>
			<path fill="#FFDE17" d="M188.4,664.2c13.1-75,44.9-123.2,101.1-121.5c48.9,1.6,102,67.7,102,67.7L349.1,634
				c0,0-17.1,9.8-40.8,20.4c0.8,62-57.1,98.7-57.1,98.7c8.2-24.5-11.4-45.7-11.4-45.7c4.1,79.9-71,78.3-71,78.3
				C214.5,723.7,178.6,718,188.4,664.2z"/>
			<path fill="#39B54A" d="M376,568.7c0,0-13.1-4.1-22.8-2.4c0,0-40.8,21.2-28.5,87.3c0,0-0.8,5.7,19.6,12.2s22.8,1.6,22.8,1.6
				c0.8-57.9,28.5-87.3,28.5-87.3C389.1,572.8,376,568.7,376,568.7z"/>
			<path fill="#FFDE17" d="M571.8,620.1c0,0,49.8,124,49.8,170.5c0,0,41.6-164.8,7.3-206.4C618.3,570.4,571.8,559,571.8,620.1z"/>
			<path fill="#FFDE17" d="M434.7,620.1c0,0-71.8,112.6-71.8,159.1c0,0-19.6-153.3,14.7-194.9C388.3,570.4,434.7,559,434.7,620.1z"
				/>
			<path fill="#FDD09E" d="M251.2,1362.4c-4.1,12.2-51.4,14.7-51.4,2.4c2.4-138.7,5.7-207.2,5.7-207.2l88.1,3.3
				C294.5,1160.9,268.4,1307.7,251.2,1362.4z"/>
			<path fill="#E64E9D" d="M562.8,955.4c0,0,58.7,4.9,47.3,60.4c-12.2,57.9-107.7,60.4-114.2,0
				C495.9,1015.7,551.4,992.9,562.8,955.4z"/>
			<path fill="#E64E9D" d="M428.2,955.4c0,0-58.7,4.9-47.3,60.4c12.2,57.9,107.7,60.4,114.2,0C495.9,1015.7,440.5,992.9,428.2,955.4
				z"/>
		</g>
	</g>
</g>
</svg>
