<?xml version="1.0" encoding="utf-8"?>
<!-- Generator: Adobe Illustrator 18.1.0, SVG Export Plug-In . SVG Version: 6.00 Build 0)  -->
<svg version="1.1" id="Layer_1" xmlns="http://www.w3.org/2000/svg" xmlns:xlink="http://www.w3.org/1999/xlink" x="0px" y="0px"
	 viewBox="0 904 800 376" enable-background="new 0 904 800 376" xml:space="preserve">
<g>
	<g>
		
			<radialGradient id="SVGID_1_" cx="134.8062" cy="1645.5944" r="14.3197" gradientTransform="matrix(3.6044 0 0 -1.1469 -3.8556 3051.8479)" gradientUnits="userSpaceOnUse">
			<stop  offset="0" style="stop-color:#848689"/>
			<stop  offset="1" style="stop-color:#FFFFFF"/>
		</radialGradient>
		<ellipse fill="url(#SVGID_1_)" cx="482" cy="1164.4" rx="51.6" ry="16.6"/>
		<g>
			<path fill="#009ED4" d="M212.9,1053.1v35.4h-11v-35.4h-13.3v-9.1h38v9.1H212.9z"/>
			<path fill="#009ED4" d="M280,1066.1c0,13-10.4,22.8-24,22.8c-13.6,0-24-9.7-24-22.8c0-13.1,10.4-22.8,24-22.8
				C269.5,1043.7,280,1053.4,280,1066.1z M243.4,1066.4c0,7.5,5.8,13.3,12.7,13.3c6.8,0,12.3-5.8,12.3-13.3s-5.5-13.3-12.3-13.3
				C248.9,1053.1,243.4,1058.6,243.4,1066.4z"/>
			<path fill="#009ED4" d="M382.1,1120.2v-34.4h-37v34.7h-22.8v-89.2h22.8v36.6h37v-36.6h22.8v89.2h-22.8V1120.2z"/>
			<path fill="#009ED4" d="M626.8,1120.2v-57.7l-21.4,49h-14.9l-21.4-49v57.7h-20.2v-89.2h24.7l24.3,53.2l24.3-53.2h24.7v89.2H626.8
				L626.8,1120.2z"/>
			<path fill="#009ED4" d="M699.1,1049.2v17.8h42.5v17.8h-42.5v17.8h48.3v17.8h-71.1v-89.1h69.8v17.8H699.1L699.1,1049.2z"/>
		</g>
		<g>
			<path fill="#009ED4" d="M109,940.2l-11,13c-4.9-5.9-12-9.7-18.8-9.7c-11.7,0-20.7,9.4-20.7,21.4c0,12.3,8.7,21.7,20.7,21.7
				c6.1,0,13.6-3.2,18.8-8.7l11,11.7c-8.1,8.1-19.8,13.6-30.5,13.6c-22.3,0.1-38.9-16.5-38.9-38.2c0-21.1,17.2-37,39.6-37
				C90.2,927.8,101.9,932.8,109,940.2z"/>
			<path fill="#009ED4" d="M175.2,987v15.6h-50.7v-74.3h18.8v58.4h31.8L175.2,987L175.2,987z"/>
			<path fill="#009ED4" d="M264.7,965.5c0,21.7-17.2,38-40.2,38s-40.2-16.2-40.2-38s17.2-37.6,40.2-37.6S264.7,943.8,264.7,965.5z
				 M203.8,965.5c0,12.7,9.7,22,21.1,22c11.3,0,20.4-9.7,20.4-22c0-12.7-9.1-22-20.4-22C213.1,943.5,203.8,952.9,203.8,965.5z"/>
			<path fill="#009ED4" d="M338.4,935.7l-7.1,14.9c-7.8-4.5-17.8-7.8-23.7-7.8c-4.9,0-8.1,2-8.1,5.5c0,13,39.2,5.5,39.2,32.5
				c0,14.9-13.3,22.8-29.9,22.8c-12.3,0-25-4.5-34-12l7.5-14.6c7.8,6.8,19.2,11,26.9,11c5.9,0,9.7-2.2,9.7-6.5
				c0-13.3-39.2-5.2-39.2-31.5c0-13.6,11.7-22.4,29.5-22.4C319.9,927.6,330.9,930.8,338.4,935.7z"/>
			<path fill="#009ED4" d="M375.7,943.1v14.6H411v14.9h-35.4v14.9h40.5v14.9h-59.3v-74.3h58v14.9L375.7,943.1L375.7,943.1z"/>
		</g>
		<g>
			<g>
				<path fill="#EC1E24" d="M527.5,1055.7c0-25.6-20.7-46.4-46.4-46.4c-25.6,0-46.4,20.7-46.4,46.4c0,22,34.4,81.1,44.1,97
					c0.6,1,1.3,1.3,2.2,1.3c1,0,2-0.6,2.2-1.3C492.8,1136.8,527.5,1077.8,527.5,1055.7L527.5,1055.7z M481.1,1087.8
					c-17.8,0-32.5-14.6-32.5-32.1s14.6-32.1,32.5-32.1c17.8,0,32.1,14.6,32.1,32.1S498.7,1087.8,481.1,1087.8L481.1,1087.8z"/>
			</g>
		</g>
	</g>
	<g>
		<path fill="#666666" d="M271.2,1230.5l-5.5,6.4c-2.3-3-6.1-4.7-9.4-4.7c-5.8,0-10.2,4.7-10.2,10.8s4.4,10.8,10.2,10.8
			c3.2,0,6.8-1.7,9.4-4.4l5.5,5.8c-4,4.1-9.6,6.8-15.2,6.8c-11.1,0-19.3-8.2-19.3-19c0-10.5,8.5-18.6,19.5-18.6
			C261.8,1224.4,267.4,1226.7,271.2,1230.5z"/>
		<path fill="#666666" d="M310.6,1261.5v-14.3h-15.2v14.3H286v-36.8h9.4v15.2h15.2v-15.2h9.4v36.8H310.6L310.6,1261.5z"/>
		<path fill="#666666" d="M337.7,1261.5v-36.8h9.4v36.8H337.7z"/>
		<path fill="#666666" d="M397,1230.5l-5.5,6.4c-2.3-3-6.1-4.7-9.4-4.7c-5.9,0-10.2,4.7-10.2,10.8s4.4,10.8,10.2,10.8
			c3.2,0,6.8-1.7,9.4-4.4l5.5,5.8c-4,4.1-9.6,6.8-15.2,6.8c-11.1,0-19.3-8.2-19.3-19c0-10.5,8.5-18.6,19.5-18.6
			C387.6,1224.4,393.5,1226.7,397,1230.5z"/>
		<path fill="#666666" d="M419.8,1254.7l-2.6,6.8h-9.6l15.8-36.8h9.6l15.5,36.8h-9.9l-2.6-6.8H419.8z M428,1234l-5.3,13.8h10.5
			L428,1234z"/>
		<path fill="#666666" d="M493.9,1242.7v14.3c-4,3-10.2,4.7-15.2,4.7c-11.1,0-19.5-8.2-19.5-18.6c0-10.8,8.7-18.6,20.4-18.6
			c5.5,0,11.4,2.1,14.9,5.5l-5.3,6.4c-2.6-2.3-6.4-4-9.9-4c-6.1,0-10.8,4.7-10.8,10.8s4.7,11.1,10.8,11.1c1.7,0,4.4-0.6,6.4-1.7
			v-9.6L493.9,1242.7L493.9,1242.7z"/>
		<path fill="#666666" d="M548.5,1243c0,10.8-8.5,19-19.9,19c-11.4,0-19.9-8.2-19.9-19s8.5-18.6,19.9-18.6
			C540.1,1224.4,548.5,1232.2,548.5,1243z M518.1,1243c0,6.1,4.7,11.1,10.5,11.1c5.5,0,10.2-4.7,10.2-11.1c0-6.1-4.4-10.8-10.2-10.8
			C522.8,1232.2,518.1,1236.9,518.1,1243z"/>
	</g>
</g>
</svg>
