<?xml version="1.0" encoding="utf-8"?>
<!-- Generator: Adobe Illustrator 18.1.0, SVG Export Plug-In . SVG Version: 6.00 Build 0)  -->
<svg version="1.1" id="Layer_1" xmlns="http://www.w3.org/2000/svg" xmlns:xlink="http://www.w3.org/1999/xlink" x="0px" y="0px"
	 viewBox="-10 94 1302 628" enable-background="new -10 94 1302 628" xml:space="preserve">
<g>
	<g>
		
			<radialGradient id="SVGID_1_" cx="136.3915" cy="-298.5717" r="15.9089" gradientTransform="matrix(5.8662 0 0 1.8666 0 1090.4106)" gradientUnits="userSpaceOnUse">
			<stop  offset="0" style="stop-color:#848689"/>
			<stop  offset="1" style="stop-color:#FFFFFF"/>
		</radialGradient>
		<ellipse fill="url(#SVGID_1_)" cx="800.1" cy="532.9" rx="93.3" ry="29.9"/>
		<g>
			<path fill="#009ED4" d="M313.3,331.7v63.9h-19.9v-63.9h-24.1v-16.4h68.6v16.4H313.3z"/>
			<path fill="#009ED4" d="M434.7,355.1c0,23.5-18.8,41.1-43.4,41.1s-43.4-17.6-43.4-41.1s18.8-41.1,43.4-41.1
				C415.9,314.6,434.7,332.2,434.7,355.1z M368.4,355.7c0,13.5,10.6,24.1,22.9,24.1s22.3-10.6,22.3-24.1s-10-24.1-22.3-24.1
				C378.4,331.7,368.4,341.6,368.4,355.7z"/>
			<path fill="#009ED4" d="M619.5,453.1v-62.2h-66.9v62.8h-41.1V292.4h41.1v66.3h66.9v-66.3h41.1v161.3h-41.1V453.1z"/>
			<path fill="#009ED4" d="M1061.8,453.1V348.7l-38.7,88.6h-27l-38.7-88.6v104.4H921V291.8h44.6l44,96.2l44-96.2h44.6v161.3
				L1061.8,453.1L1061.8,453.1z"/>
			<path fill="#009ED4" d="M1192.6,324.6v32.3h76.8v32.3h-76.8v32.3h87.4v32.3h-128.5V292.4h126.1v32.3L1192.6,324.6L1192.6,324.6z"
				/>
		</g>
		<g>
			<path fill="#009ED4" d="M125.5,127.5L105.6,151c-8.8-10.6-21.7-17.6-34-17.6c-21.1,0-37.5,17-37.5,38.7
				c0,22.3,15.8,39.3,37.5,39.3c11.1,0,24.6-5.9,34-15.8l19.9,21.1c-14.7,14.7-35.8,24.6-55.1,24.6C29.9,241.3,0,211.4,0,172.1
				c0-38.1,31.1-66.9,71.6-66.9C91.5,105.2,112.6,114,125.5,127.5z"/>
			<path fill="#009ED4" d="M245.2,212v28.2h-91.5V105.8h34v105.6h57.5V212z"/>
			<path fill="#009ED4" d="M407.1,173.3c0,39.3-31.1,68.6-72.7,68.6s-72.7-29.3-72.7-68.6s31.1-68,72.7-68S407.1,134,407.1,173.3z
				 M296.8,173.3c0,22.9,17.6,39.9,38.1,39.9s37-17.6,37-39.9c0-22.9-16.4-39.9-37-39.9C313.8,133.4,296.8,150.4,296.8,173.3z"/>
			<path fill="#009ED4" d="M540.3,119.3l-12.9,27c-14.1-8.2-32.3-14.1-42.8-14.1c-8.8,0-14.7,3.5-14.7,10c0,23.5,71,10,71,58.7
				c0,27-24.1,41.1-54,41.1c-22.3,0-45.2-8.2-61.6-21.7l13.5-26.4c14.1,12.3,34.6,19.9,48.7,19.9c10.6,0,17.6-4.1,17.6-11.7
				c0-24.1-71-9.4-71-56.9c0-24.6,21.1-40.5,53.4-40.5C506.8,104.6,526.8,110.5,540.3,119.3z"/>
			<path fill="#009ED4" d="M607.7,132.8v26.4h63.9v27h-63.9v27H681v27H573.7V105.8h105v27H607.7z"/>
		</g>
		<g>
			<g>
				<path fill="#EC1E24" d="M882.3,336.4c0-46.3-37.5-83.9-83.9-83.9c-46.3,0-83.9,37.5-83.9,83.9c0,39.9,62.2,146.7,79.8,175.4
					c1.2,1.8,2.3,2.3,4.1,2.3s3.5-1.2,4.1-2.3C819.5,483,882.3,376.2,882.3,336.4L882.3,336.4z M798.4,394.4
					c-32.3,0-58.7-26.4-58.7-58.1s26.4-58.1,58.7-58.1s58.1,26.4,58.1,58.1S830.1,394.4,798.4,394.4L798.4,394.4z"/>
			</g>
		</g>
	</g>
	<g>
		<path fill="#666666" d="M347.5,649.6l-11.1,12.9c-4.7-5.9-12.3-9.4-18.8-9.4c-11.7,0-20.5,9.4-20.5,21.7s8.8,21.7,20.5,21.7
			c6.5,0,13.5-3.5,18.8-8.8l11.1,11.7c-8.2,8.2-19.4,13.5-30.5,13.5c-22.3,0-38.7-16.4-38.7-38.1c0-21.1,17-37.5,39.3-37.5
			C328.7,637.3,339.9,642,347.5,649.6z"/>
		<path fill="#666666" d="M426.7,711.8V683h-30.5v28.7h-18.8v-73.9h18.8v30.5h30.5v-30.5h18.8v73.9L426.7,711.8L426.7,711.8z"/>
		<path fill="#666666" d="M481.2,711.8v-73.9H500v73.9H481.2z"/>
		<path fill="#666666" d="M600.3,649.6l-11.1,12.9c-4.7-5.9-12.3-9.4-18.8-9.4c-11.7,0-20.5,9.4-20.5,21.7s8.8,21.7,20.5,21.7
			c6.5,0,13.5-3.5,18.8-8.8l11.1,11.7c-8.2,8.2-19.4,13.5-30.5,13.5c-22.3,0-38.7-16.4-38.7-38.1c0-21.1,17-37.5,39.3-37.5
			C581.5,637.3,593.3,642,600.3,649.6z"/>
		<path fill="#666666" d="M646.1,698.3l-5.3,13.5h-19.4l31.7-73.9h19.4l31.1,73.9h-19.9l-5.3-13.5H646.1z M662.5,656.6l-10.6,27.6
			H673L662.5,656.6z"/>
		<path fill="#666666" d="M795.1,674.2V703c-8.2,5.9-20.5,9.4-30.5,9.4c-22.3,0-39.3-16.4-39.3-37.5c0-21.7,17.6-37.5,41.1-37.5
			c11.1,0,22.9,4.1,29.9,11.1l-10.6,12.9c-5.3-4.7-12.9-8.2-19.9-8.2c-12.3,0-21.7,9.4-21.7,21.7s9.4,22.3,21.7,22.3
			c3.5,0,8.8-1.2,12.9-3.5v-19.4L795.1,674.2L795.1,674.2z"/>
		<path fill="#666666" d="M904.8,674.8c0,21.7-17,38.1-39.9,38.1S825,696.5,825,674.8s17-37.5,39.9-37.5
			C887.8,637.3,904.8,653.1,904.8,674.8z M843.8,674.8c0,12.3,9.4,22.3,21.1,22.3c11.1,0,20.5-9.4,20.5-22.3
			c0-12.3-8.8-21.7-20.5-21.7S843.8,662.5,843.8,674.8z"/>
	</g>
</g>
</svg>
