<?xml version="1.0" encoding="utf-8"?>
<!-- Generator: Adobe Illustrator 18.1.0, SVG Export Plug-In . SVG Version: 6.00 Build 0)  -->
<svg version="1.1" id="Layer_1" xmlns="http://www.w3.org/2000/svg" xmlns:xlink="http://www.w3.org/1999/xlink" x="0px" y="0px"
	 viewBox="0 0 162 45" enable-background="new 0 0 162 45" xml:space="preserve">
<g>
	<rect x="0" y="0" fill="none" stroke="#009ED4" stroke-miterlimit="10" width="162" height="45"/>
	<g>
		<path fill="#009ED4" d="M52.9,26.9l-1.1,2.6h-2l5-11.3h2l5,11.3h-2l-1.1-2.6H52.9z M55.8,20.1l-2.1,5h4.3L55.8,20.1z"/>
		<path fill="#009ED4" d="M69,18.1c2.3,0,3.8,1.1,3.8,2.8c0,1.3-0.8,2.2-2,2.5c1.5,0.3,2.4,1.3,2.4,2.9c0,1.9-1.6,3.1-4.1,3.1h-5
			V18.1H69z M66,22.8h2.9c1.2,0,1.9-0.6,1.9-1.5s-0.7-1.5-1.9-1.5H66V22.8z M66,27.7h2.9c1.5,0,2.4-0.6,2.4-1.7c0-1-0.9-1.6-2.4-1.6
			H66V27.7z"/>
		<path fill="#009ED4" d="M87.4,23.8c0,3.2-2.6,5.8-6,5.8s-6-2.5-6-5.8c0-3.3,2.6-5.7,6-5.7S87.4,20.5,87.4,23.8z M77.3,23.8
			c0,2.3,1.9,4,4.1,4s4-1.8,4-4c0-2.3-1.8-4-4-4C79.2,19.8,77.3,21.5,77.3,23.8z"/>
		<path fill="#009ED4" d="M99.9,24.7c0,3-1.9,4.8-4.9,4.8S90,27.7,90,24.7v-6.6H92v6.6c0,1.9,1.2,3.1,3,3.1c1.8,0,3-1.1,3-3.1v-6.6
			h1.9V24.7z"/>
		<path fill="#009ED4" d="M107.6,19.8v9.6h-1.9v-9.6h-3.6v-1.7h9.1v1.7H107.6z"/>
	</g>
</g>
</svg>
